<?xml version="1.0" standalone="no"?>
<!DOCTYPE svg PUBLIC "-//W3C//DTD SVG 1.1//EN" "http://www.w3.org/Graphics/SVG/1.1/DTD/svg11.dtd" >
<svg>
<metadata>
Created by FontForge 20120731 at Sun Jun 30 15:08:36 2019
 By www
Copyright (c) 2010 by t Wiescher, Wiescher-Design, Munich, Germany, www.wiescher-design.de,. All rights reserved.
</metadata>
<defs>
<font id="PurissimaBoldW00-Regular" horiz-adv-x="369" >
  <font-face 
    font-family="PurissimaBoldW00-Regular"
    font-weight="400"
    font-stretch="normal"
    units-per-em="1000"
    panose-1="2 0 5 3 3 0 0 2 0 3"
    ascent="800"
    descent="-200"
    x-height="304"
    cap-height="494"
    bbox="-110 -207 785 737"
    underline-thickness="50"
    underline-position="-100"
    unicode-range="U+0002-FB06"
  />
<missing-glyph horiz-adv-x="288" 
 />
    <glyph glyph-name=".notdef" horiz-adv-x="288" 
 />
    <glyph glyph-name="glyph1" horiz-adv-x="0" 
 />
    <glyph glyph-name="glyph1" horiz-adv-x="0" 
 />
    <glyph glyph-name="glyph2" horiz-adv-x="288" 
 />
    <glyph glyph-name="uni0002" horiz-adv-x="0" 
 />
    <glyph glyph-name="uni0009" unicode="&#x9;" horiz-adv-x="0" 
 />
    <glyph glyph-name="uni000A" unicode="&#xa;" horiz-adv-x="0" 
 />
    <glyph glyph-name="uni000D" unicode="&#xd;" horiz-adv-x="0" 
 />
    <glyph glyph-name="space" unicode=" " horiz-adv-x="288" 
 />
    <glyph glyph-name="exclam" unicode="!" horiz-adv-x="230" 
d="M74 494h73v-345h-63zM114 -8q-23 0 -38.5 17t-15.5 38q0 23 16 39t39 16t39 -16t16 -39q0 -24 -16.5 -39.5t-39.5 -15.5z" />
    <glyph glyph-name="quotedbl" unicode="&#x22;" horiz-adv-x="298" 
d="M169 598h87l-22 -200h-43zM49 598h87l-22 -200h-44z" />
    <glyph glyph-name="numbersign" unicode="#" horiz-adv-x="482" 
d="M118 137h-89v72h102l8 47h-95v71h107l23 138l72 -13l-22 -125h69l23 138l71 -13l-22 -125h92v-71h-104l-8 -47h97v-72h-110l-24 -148l-72 13l24 135h-69l-25 -148l-72 13zM272 209l8 47h-69l-8 -47h69z" />
    <glyph glyph-name="dollar" unicode="$" horiz-adv-x="341" 
d="M149 -38q-40 3 -71.5 20.5t-52.5 35.5l52 53q14 -13 32 -24t40 -14v147q-23 12 -43.5 25t-36 29.5t-24.5 37.5t-9 49q0 49 32 84.5t81 45.5v66h59v-65q33 -5 58 -19t45 -31l-53 -53q-23 23 -50 31v-138q54 -29 81 -60.5t27 -80.5q0 -48 -31 -85.5t-77 -50.5v-72h-59v69z
M149 374q-16 -6 -24 -21t-8 -31t9 -30t23 -18v100zM208 46q14 9 21 24.5t7 29.5t-5.5 26t-22.5 21v-101z" />
    <glyph glyph-name="percent" unicode="%" horiz-adv-x="570" 
d="M130 164q-33 0 -53 13t-30.5 34.5t-14 50t-3.5 59.5t3 59.5t13.5 51t30.5 36t54 13.5t54 -13.5t30.5 -36t13.5 -51t3 -59.5t-3.5 -59.5t-14 -50t-30.5 -34.5t-53 -13zM439 -11q-33 0 -53 13t-30.5 34.5t-13.5 50t-3 59.5t3 60t13.5 51t30.5 35t53 13t52.5 -12t30.5 -32.5
t14.5 -48t3.5 -57.5q0 -32 -2.5 -62t-12.5 -53t-30.5 -37t-55.5 -14zM376 484l53 -25l-237 -476l-53 25zM440 43q16 0 24.5 10t12 25.5t3.5 35v37.5q0 16 -1 33.5t-5 32t-12 24t-22 9.5q-17 0 -25.5 -11t-12 -28.5t-3.5 -38.5v-41q0 -15 1 -30.5t5 -28.5t12.5 -21t22.5 -8z
M132 218q16 0 24.5 11t12 28.5t3.5 38v39.5q0 15 -1 31.5t-5 29.5t-12 21.5t-22 8.5t-21.5 -7t-11.5 -18.5t-5 -25.5t-1 -28v-50q0 -15 1 -29t5 -25t11.5 -18t21.5 -7z" />
    <glyph glyph-name="ampersand" unicode="&#x26;" horiz-adv-x="441" 
d="M311 38q-23 -23 -51.5 -36t-68.5 -13q-27 0 -53 11t-46.5 30.5t-32.5 45.5t-12 55q0 51 23.5 82.5t58.5 51.5q-18 18 -30.5 38.5t-12.5 52.5q0 24 9.5 43.5t25 33.5t36.5 21.5t45 7.5q47 0 79 -29t32 -77q0 -18 -6.5 -33.5t-16.5 -29t-23 -25t-26 -20.5q17 -20 39 -47
t36 -47q14 16 29.5 32.5t27.5 30.5l53 -46l-64 -75l56 -66l-59 -46zM198 300q17 12 27.5 25.5t10.5 30.5q0 14 -9 24t-24 10t-26 -10t-11 -24q0 -17 11.5 -31t20.5 -25zM173 211q-20 -11 -34 -34t-14 -46q0 -13 5.5 -25t14.5 -21t21 -14.5t25 -5.5q25 0 43 8t32 22z" />
    <glyph glyph-name="quotesingle" unicode="'" horiz-adv-x="169" 
d="M45 598h87l-21 -200h-45z" />
    <glyph glyph-name="parenleft" unicode="(" horiz-adv-x="182" 
d="M121 -74q-37 69 -60 148t-23 164q0 83 22.5 163.5t60.5 159.5l60 -27q-32 -72 -52 -147t-20 -149q0 -49 7 -90t17.5 -75t23 -62.5t24.5 -52.5z" />
    <glyph glyph-name="parenright" unicode=")" horiz-adv-x="159" 
d="M0 -42q12 24 24.5 52.5t23 62.5t17.5 75t7 90q0 74 -20 149t-52 147l60 27q38 -79 60.5 -159.5t22.5 -163.5q0 -85 -23 -164t-60 -148z" />
    <glyph glyph-name="asterisk" unicode="*" horiz-adv-x="320" 
d="M42 431l64 34l-64 35l31 54l60 -38v73h60v-73l62 38l31 -54l-64 -35l64 -34l-31 -54l-60 38v-73h-60v73l-62 -38z" />
    <glyph glyph-name="plus" unicode="+" horiz-adv-x="366" 
d="M21 248h124v125h72v-125h125v-72h-125v-124h-72v124h-124v72z" />
    <glyph glyph-name="comma" unicode="," horiz-adv-x="139" 
d="M40 -43q-11 8 -18.5 19.5t-7.5 27.5q0 23 16.5 38t38.5 15q23 0 39.5 -14t16.5 -43q0 -15 -8.5 -39.5t-18.5 -47.5q-12 -27 -27 -58l-65 25z" />
    <glyph glyph-name="hyphen" unicode="-" horiz-adv-x="263" 
d="M39 295h187v-72h-187v72z" />
    <glyph glyph-name="period" unicode="." horiz-adv-x="159" 
d="M80 -11q-22 1 -37.5 15.5t-15.5 37.5q0 24 15.5 40t38.5 16t39 -16t16 -40q0 -25 -16 -39t-40 -14z" />
    <glyph glyph-name="slash" unicode="/" horiz-adv-x="325" 
d="M240 486l67 -28l-211 -474l-67 29z" />
    <glyph glyph-name="zero" unicode="0" horiz-adv-x="375" 
d="M186 -10q-33 0 -59.5 12t-45 32.5t-29 48t-12.5 59.5q-1 15 -1 37.5v45.5q0 45 4.5 88t19.5 76t44 53.5t79 20.5q34 0 60.5 -12t45 -32t29.5 -48t14 -59q0 -17 0.5 -40.5t0.5 -46.5t-0.5 -45.5t-0.5 -37.5q-3 -32 -14 -59.5t-29.5 -48t-45 -32.5t-60.5 -12zM187 61
q24 0 38 14t21 35.5t8.5 49t1.5 54.5v33q0 24 -2 49.5t-9 47t-20.5 35t-37.5 13.5t-38 -14t-21 -35.5t-8.5 -47.5t-1.5 -51v-30q0 -28 2 -55.5t8.5 -49t20.5 -35t38 -13.5z" />
    <glyph glyph-name="one" unicode="1" horiz-adv-x="400" 
d="M132 70h48v303l-84 -42v79l98 50h65v-390h45v-70h-172v70z" />
    <glyph glyph-name="two" unicode="2" horiz-adv-x="384" 
d="M353 70l-71 -70h-251q5 27 17.5 51.5t28.5 46.5t33.5 41t32.5 35l30 31q12 12 24 25.5t22 29.5t16 34.5t6 41.5t-17.5 41t-43.5 18q-24 0 -43 -10t-35 -24l-53 53q25 21 56.5 36.5t76.5 15.5q30 0 56 -10t45.5 -28t30.5 -42t11 -52t-7.5 -52t-20 -45t-28.5 -39.5
t-33 -36.5l-36 -38q-14 -14 -27 -28t-21 -25h201z" />
    <glyph glyph-name="three" unicode="3" horiz-adv-x="354" 
d="M85 94q17 -14 35.5 -23.5t42.5 -9.5q30 0 53.5 22.5t23.5 59.5q0 15 -7.5 28t-20 22.5t-28.5 14.5t-32 5v65q35 2 54.5 21t19.5 42t-13 37t-38 14q-24 0 -40.5 -10.5t-36.5 -27.5l-51 52q23 20 53.5 38.5t75.5 18.5q30 0 55 -9.5t42 -26t26.5 -39t9.5 -47.5
q0 -28 -18.5 -54t-42.5 -37q32 -14 52.5 -42.5t20.5 -64.5q0 -37 -13.5 -65.5t-35 -48t-50 -29.5t-58.5 -10q-44 0 -75 15t-56 36z" />
    <glyph glyph-name="four" unicode="4" horiz-adv-x="380" 
d="M11 136l196 335l66 -40l-143 -249l-9 -11h74v60l80 92v-152h92l-73 -73h-19v-98h-80v98h-184v38z" />
    <glyph glyph-name="five" unicode="5" horiz-adv-x="357" 
d="M79 94q16 -14 35 -23.5t43 -9.5q15 0 30.5 5.5t27.5 17.5t19.5 31t7.5 47q0 32 -17 54.5t-43 22.5q-29 0 -48.5 -10.5t-34.5 -24.5l-41 41v211h266l-73 -72h-120v-84q11 4 24 7t28 3q30 0 55.5 -11t45 -30.5t30.5 -46.5t11 -60q0 -45 -15 -77.5t-38.5 -53.5t-53.5 -31
t-60 -10q-44 0 -75 15t-56 36z" />
    <glyph glyph-name="six" unicode="6" 
d="M272 427l-88 -122q35 0 64 -12t50 -33t33 -49.5t12 -61.5t-13 -61.5t-34.5 -50t-50.5 -34t-62 -12.5t-62 12.5t-50.5 34t-34.5 50t-13 61.5q0 21 7 45t14 35q6 10 16.5 25.5t23.5 34t27.5 39t28.5 40.5q33 47 73 100zM183 58q19 0 34.5 7.5t26 20.5t16 29t5.5 34
q0 36 -22 64t-60 28q-36 0 -59.5 -26t-23.5 -66q0 -18 6.5 -34t17.5 -29t26.5 -20.5t32.5 -7.5z" />
    <glyph glyph-name="seven" unicode="7" horiz-adv-x="357" 
d="M52 16q31 89 78.5 184t98.5 182h-133l-72 74h310l10 -21q-26 -47 -57 -104t-61 -117.5t-56.5 -119.5t-43.5 -108z" />
    <glyph glyph-name="eight" unicode="8" horiz-adv-x="365" 
d="M263 258q16 -6 30 -18.5t24.5 -28.5t16.5 -33.5t6 -35.5q0 -32 -13 -59.5t-34.5 -47.5t-49.5 -32t-59 -12t-59.5 12t-50 32t-34 47.5t-12.5 59.5q0 36 21.5 69.5t53.5 46.5q-24 12 -37 35t-13 49t10.5 48t28.5 38.5t42 25.5t50 9q25 0 48.5 -9t41.5 -25.5t28.5 -38.5
t10.5 -48q0 -25 -13 -48t-37 -36zM184 289q21 0 35 15t14 38q0 21 -14 36t-35 15q-23 0 -37.5 -15t-14.5 -36q0 -23 14.5 -38t37.5 -15zM109 142q0 -31 21.5 -53t53.5 -22q30 0 52 22t22 53q0 33 -22 55.5t-52 22.5q-32 0 -53.5 -23t-21.5 -55z" />
    <glyph glyph-name="nine" unicode="9" horiz-adv-x="362" 
d="M186 155q-6 -1 -12 -1.5t-12 -0.5q-32 0 -57.5 12t-44.5 32.5t-29 47.5t-10 57q0 33 13 62t35 50.5t51 34t61 12.5q34 0 63 -12.5t50.5 -34t34 -50.5t12.5 -62q0 -28 -9 -51.5t-16 -34.5q-9 -14 -25 -36.5t-34 -48t-37 -52t-34.5 -48t-25 -35l-9.5 -13.5l-59 42zM181 212
q37 0 60 25t23 65q0 36 -22.5 63.5t-60.5 27.5q-18 0 -33 -7.5t-26 -20t-17 -29t-6 -34.5t5.5 -34t16 -28.5t26 -20t34.5 -7.5z" />
    <glyph glyph-name="colon" unicode=":" horiz-adv-x="159" 
d="M78 155q-23 1 -38.5 17t-15.5 39t15.5 39.5t38.5 16.5q24 0 40 -16.5t16 -39.5q0 -24 -16 -40t-40 -16zM78 -7q-23 0 -38.5 16.5t-15.5 39.5q0 22 16 38t39 16t39 -16t16 -40t-16.5 -39t-39.5 -15z" />
    <glyph glyph-name="semicolon" unicode=";" horiz-adv-x="169" 
d="M28 171q1 21 16 37.5t40 16.5q22 0 39 -15.5t17 -38.5q0 -25 -17.5 -40t-40.5 -15t-38.5 15t-15.5 40zM55 -43q-11 8 -18.5 19.5t-7.5 27.5q0 23 17 38t38 15q23 0 39.5 -14t16.5 -43q0 -15 -8.5 -39.5t-18.5 -47.5q-12 -27 -27 -58l-65 25z" />
    <glyph glyph-name="less" unicode="&#x3c;" horiz-adv-x="476" 
d="M9 277l423 198l31 -64l-361 -169l360 -168l-30 -65l-423 198v70z" />
    <glyph glyph-name="equal" unicode="=" 
d="M23 254h321v-73h-321v73zM23 139h321v-72h-321v72z" />
    <glyph glyph-name="greater" unicode="&#x3e;" horiz-adv-x="473" 
d="M7 74l360 168l-360 169l30 64l424 -198v-70l-424 -198z" />
    <glyph glyph-name="question" unicode="?" horiz-adv-x="300" 
d="M118 125q-5 17 -8 31t-3 38q0 32 12 57t39 44q16 11 28 27t12 39q0 19 -19 35t-40 16t-39.5 -10.5t-30.5 -22.5l-51 50q21 18 52 35.5t70 17.5q28 0 54 -10t45.5 -27t31 -39t11.5 -47q0 -28 -6 -47.5t-16.5 -33.5t-24.5 -24t-29 -19q-20 -12 -25.5 -33t-5.5 -41
q0 -9 0.5 -16.5t0.5 -12.5q0 -7 -2 -7h-56zM142 -9q-23 1 -38 17t-15 39t16 38.5t39 15.5t39.5 -15.5t16.5 -39.5q0 -26 -17.5 -40.5t-40.5 -14.5z" />
    <glyph glyph-name="at" unicode="@" horiz-adv-x="669" 
d="M622 -10q-26 -26 -60.5 -47t-72 -36t-76 -23t-71.5 -8q-55 0 -107 14t-93 43t-66 75t-25 110q0 67 27.5 124t73 98.5t104.5 65t121 23.5q50 0 95.5 -15.5t80 -43.5t55 -66t20.5 -84q0 -49 -16.5 -91t-44 -72.5t-63.5 -47.5t-75 -17q-45 0 -60 36q-15 -17 -36.5 -26
t-47.5 -9q-25 0 -43.5 9.5t-30.5 25.5t-17.5 37t-5.5 43q0 33 10 67.5t29 63t46.5 46.5t62.5 18q25 0 41.5 -9t28.5 -24l4 18h68q-4 -21 -10 -47t-12.5 -54.5t-12 -56.5t-8.5 -52q0 -2 -0.5 -3t-0.5 -3q0 -7 3 -11.5t6 -4.5q21 0 40 14t34 37t24 52t9 59q0 68 -48 109.5
t-129 41.5q-47 0 -91 -19.5t-78.5 -53.5t-55 -80t-20.5 -98q0 -50 17.5 -84.5t46.5 -56t68 -31.5t81 -10q30 0 63 7t65.5 20t62 31.5t53.5 40.5zM341 236q-20 0 -34 -12.5t-23 -31.5t-13.5 -40.5t-4.5 -40.5q0 -29 12 -40.5t25 -11.5q19 0 34 13t25 31.5t15 39.5t5 38
q0 32 -14 43.5t-27 11.5z" />
    <glyph glyph-name="A" unicode="A" horiz-adv-x="438" 
d="M194 488l46 17l199 -485l-77 -31l-60 150h-166l-60 -150l-77 31zM274 211l-55 133l-54 -133h109z" />
    <glyph glyph-name="B" unicode="B" horiz-adv-x="360" 
d="M37 494q47 0 74.5 0.5t42 0.5h19.5h8q28 0 53 -8.5t43.5 -24.5t29.5 -40t11 -55q0 -29 -17.5 -58.5t-46.5 -42.5q48 -16 68 -50t20 -72q0 -41 -14.5 -68.5t-40 -44t-59 -24t-70.5 -7.5h-121v494zM153 293q16 0 31 4.5t27 13.5t19.5 22.5t7.5 31.5q0 33 -26 46t-62 12
l-31 -1v-129h34zM165 71q18 0 35.5 4t31.5 12.5t22.5 22.5t8.5 34q0 42 -30 61.5t-80 17.5l-34 -1v-151h46z" />
    <glyph glyph-name="C" unicode="C" horiz-adv-x="426" 
d="M420 45q-31 -24 -70 -37.5t-76 -13.5q-53 0 -99.5 19.5t-81.5 54t-55.5 80.5t-20.5 99t20.5 99t55.5 80.5t81.5 54.5t99.5 20q35 0 72.5 -11.5t71.5 -33.5l-55 -54q-46 26 -89 26q-36 0 -67.5 -14.5t-55 -39.5t-37 -57.5t-13.5 -68.5t13.5 -69t37 -58t55 -40t67.5 -15
q44 0 91 33z" />
    <glyph glyph-name="D" unicode="D" horiz-adv-x="430" 
d="M38 494l114 1q57 0 103 -17.5t79 -49.5t50.5 -76.5t17.5 -96.5q0 -56 -20.5 -103t-55.5 -81t-81.5 -52.5t-99.5 -18.5h-107v494zM145 72q37 0 68.5 14t55 39t36.5 58.5t13 71.5q0 36 -11.5 66.5t-33.5 53t-52.5 35t-68.5 12.5l-32 -1v-349h25z" />
    <glyph glyph-name="E" unicode="E" horiz-adv-x="342" 
d="M36 495h272v-74h-188v-117h175v-72h-175v-160h189v-72h-273v495z" />
    <glyph glyph-name="F" unicode="F" horiz-adv-x="328" 
d="M36 494h268v-73h-184v-117h170v-72h-170v-232h-84v494z" />
    <glyph glyph-name="G" unicode="G" horiz-adv-x="449" 
d="M330 197h-64v72h147v-229q-32 -24 -67 -35t-72 -11q-53 0 -99.5 19.5t-81.5 54t-55.5 80.5t-20.5 99t20.5 99t55.5 80.5t81.5 54.5t99.5 20q35 0 72.5 -11.5t71.5 -33.5l-55 -54q-46 26 -89 26q-36 0 -67.5 -14.5t-55 -39.5t-37 -57.5t-13.5 -68.5t13.5 -69t37 -58
t55 -40t67.5 -15q16 0 29 2.5t27 9.5v119z" />
    <glyph glyph-name="H" unicode="H" horiz-adv-x="436" 
d="M43 494h84v-190h186v190h83v-494h-83v232h-186v-232h-84v494z" />
    <glyph glyph-name="I" unicode="I" horiz-adv-x="161" 
d="M13 72h26v349h-26v73h135v-73h-26v-349h26v-72h-135v72z" />
    <glyph glyph-name="J" unicode="J" horiz-adv-x="214" 
d="M19 73q44 0 64.5 25t20.5 61v262h-79v73h163v-335q0 -34 -10.5 -63.5t-32 -51.5t-53 -35t-73.5 -13v77z" />
    <glyph glyph-name="K" unicode="K" horiz-adv-x="368" 
d="M37 494h83v-208l186 220l63 -54l-160 -179l172 -236l-67 -49l-194 276v-264h-83v494z" />
    <glyph glyph-name="L" unicode="L" horiz-adv-x="281" 
d="M36 494h84v-422h152v-72h-236v494z" />
    <glyph glyph-name="M" unicode="M" horiz-adv-x="571" 
d="M87 494h62l130 -339l130 339h62l70 -491l-82 -11l-42 296l-110 -281l-49 -16l-118 299l-41 -298l-83 11z" />
    <glyph glyph-name="N" unicode="N" horiz-adv-x="469" 
d="M38 487l49 17l252 -321v311h83v-486l-38 -16l-263 330v-322h-83v487z" />
    <glyph glyph-name="O" unicode="O" horiz-adv-x="573" 
d="M29 247q0 53 20 99t55 80.5t82 54.5t100 20t100 -20t82 -54t55.5 -80.5t20.5 -98.5q0 -53 -20.5 -99.5t-55.5 -81t-82 -54t-100 -19.5t-100 19.5t-82 54t-55 80.5t-20 99zM286 66q35 0 66.5 15t55 39.5t37 57.5t13.5 69t-13.5 69t-37 58t-54.5 39.5t-67 14.5t-67.5 -14.5
t-55 -39.5t-37 -57.5t-13.5 -68.5t13.5 -69t37 -58t55 -40t67.5 -15z" />
    <glyph glyph-name="P" unicode="P" horiz-adv-x="332" 
d="M36 494l104 1q35 0 68.5 -5t59 -20.5t41 -43.5t15.5 -72q0 -36 -17 -63t-41.5 -44.5t-51 -26.5t-45.5 -9l-50 51v-262h-83v494zM119 276q23 0 44.5 4t38 13t26.5 24t10 37q0 39 -24.5 54t-58.5 14l-36 -1v-145z" />
    <glyph glyph-name="Q" unicode="Q" horiz-adv-x="571" 
d="M29 247q0 53 20 99t55 80.5t82 54.5t100 20t100 -20t82 -54t55.5 -80.5t20.5 -98.5q0 -53 -20.5 -99.5t-55.5 -81t-82 -54t-100 -19.5t-100 19.5t-82 54t-55 80.5t-20 99zM246 -6l227 -69l-22 -69l-227 70zM286 66q35 0 66.5 15t55 39.5t37 57.5t13.5 69t-13.5 69t-37 58
t-54.5 39.5t-67 14.5t-67.5 -14.5t-55 -39.5t-37 -57.5t-13.5 -68.5t13.5 -69t37 -58t55 -40t67.5 -15z" />
    <glyph glyph-name="R" unicode="R" horiz-adv-x="337" 
d="M37 494l104 1q37 0 70 -5t58 -20.5t40 -43.5t15 -72q0 -26 -9 -47t-23.5 -36.5t-32 -26t-34.5 -15.5l116 -199l-71 -41l-151 264v-253h-82v494zM146 283q2 0 4.5 -0.5t5.5 -0.5q31 0 57 18t26 54q0 39 -24 54t-60 14l-36 -1v-135z" />
    <glyph glyph-name="S" unicode="S" horiz-adv-x="342" 
d="M72 106q19 -14 42 -27t53 -13q14 0 26 6t21 16t14 22.5t5 25.5q0 14 -6 24t-15 18.5t-20.5 15t-23.5 12.5l-25 14q-23 13 -43.5 26t-36 29.5t-25 37.5t-9.5 50t11 54.5t31 44t47.5 29t59.5 10.5q46 0 78 -15.5t58 -37.5l-55 -54q-16 14 -35.5 24t-45.5 10t-44.5 -19
t-18.5 -42t19.5 -38t39.5 -27l45 -26q42 -24 71 -57t29 -82q0 -30 -12 -56t-33 -45.5t-48.5 -31t-57.5 -11.5q-50 0 -88 19t-62 40z" />
    <glyph glyph-name="T" unicode="T" horiz-adv-x="290" 
d="M103 421h-103v73h290v-73h-104v-421h-83v421z" />
    <glyph glyph-name="U" unicode="U" horiz-adv-x="431" 
d="M41 494h82v-345q0 -15 7.5 -30t20.5 -26.5t29.5 -19t33.5 -7.5t33.5 7.5t29 19t20.5 26.5t8 30v345h83v-345q0 -33 -14.5 -61.5t-38.5 -49.5t-55.5 -33t-65.5 -12q-35 0 -66 12t-55 33t-38 49.5t-14 61.5v345z" />
    <glyph glyph-name="V" unicode="V" horiz-adv-x="437" 
d="M7 474l76 30l137 -349l132 349l77 -30l-184 -467l-49 -16z" />
    <glyph glyph-name="W" unicode="W" horiz-adv-x="683" 
d="M7 474l78 30l125 -339l115 327l39 13l119 -341l115 340l77 -30l-164 -467l-49 -16l-116 316l-108 -300l-49 -16z" />
    <glyph glyph-name="X" unicode="X" horiz-adv-x="367" 
d="M137 255l-121 209l71 42l101 -176l100 176l71 -42l-124 -215l127 -219l-71 -42l-108 186l-105 -186l-71 41z" />
    <glyph glyph-name="Y" unicode="Y" horiz-adv-x="384" 
d="M149 200l-142 265l72 42l111 -210l2 -8l113 218l72 -42l-145 -266v-199h-83v200z" />
    <glyph glyph-name="Z" unicode="Z" horiz-adv-x="382" 
d="M237 416h-188v78h333l-239 -413h255l-80 -81h-317z" />
    <glyph glyph-name="bracketleft" unicode="[" horiz-adv-x="202" 
d="M202 -82h-137v656h137v-68h-60v-520h60v-68z" />
    <glyph glyph-name="backslash" unicode="\" horiz-adv-x="248" 
d="M14 472l68 21l151 -495l-67 -21z" />
    <glyph glyph-name="bracketright" unicode="]" horiz-adv-x="185" 
d="M0 -14h60v520h-60v68h137v-656h-137v68z" />
    <glyph glyph-name="asciicircum" unicode="^" horiz-adv-x="380" 
d="M155 570h71l109 -233l-63 -31l-81 174l-80 -173l-65 31z" />
    <glyph glyph-name="underscore" unicode="_" horiz-adv-x="432" 
d="M-11 -119h454v-72h-454v72z" />
    <glyph glyph-name="grave" unicode="`" horiz-adv-x="277" 
d="M63 691l123 -92l-43 -56l-122 92z" />
    <glyph glyph-name="a" unicode="a" 
d="M258 25q-14 -12 -37.5 -21.5t-44.5 -9.5q-33 0 -61.5 12.5t-50.5 34t-34.5 50t-12.5 61.5t12.5 61.5t34.5 50.5t50.5 34.5t61.5 12.5q22 0 46.5 -10t39.5 -24q0 3 -0.5 7.5t-0.5 9.5q-1 5 -1 10h72v-304h-75zM176 61q35 0 59 23t24 68q0 41 -24 66.5t-59 25.5
q-18 0 -33 -8t-26 -20.5t-17 -29t-6 -34.5t6 -34t17 -29t26 -20.5t33 -7.5z" />
    <glyph glyph-name="b" unicode="b" horiz-adv-x="370" 
d="M34 510l76 9v-245q13 13 35.5 24.5t51.5 11.5q36 0 64.5 -12.5t48.5 -34t30.5 -50t10.5 -61.5t-13 -62t-35 -50t-51 -33.5t-62 -12.5q-26 0 -49 11.5t-35 28.5q0 -2 -0.5 -5t-0.5 -7q0 -7 0.5 -13.5t0.5 -8.5h-72v510zM190 61q18 0 33 7.5t26 20.5t17 29t6 34t-5 34.5
t-15 29t-25.5 20.5t-36.5 8q-35 0 -59 -26t-24 -66q0 -43 24 -67t59 -24z" />
    <glyph glyph-name="c" unicode="c" horiz-adv-x="311" 
d="M299 46q-20 -22 -52 -37t-69 -15q-33 0 -62.5 12.5t-51.5 34t-35 50t-13 61.5t13 61.5t35 50.5t51 34.5t62 12.5q34 0 64 -13.5t56 -35.5l-48 -48q-15 11 -32 20.5t-39 9.5q-18 0 -33 -8t-26.5 -20.5t-18 -29t-6.5 -34.5t6 -34t17 -29t26 -20.5t33 -7.5q20 0 40 10.5
t35 22.5z" />
    <glyph glyph-name="d" unicode="d" 
d="M260 34q-14 -18 -38 -29t-46 -11q-33 0 -62.5 12.5t-51 33.5t-34.5 50t-13 62t12 61.5t33 50t49 34t60 12.5q29 0 51 -8.5t36 -22.5v240l76 -9v-510h-73zM176 61q35 0 58.5 24t23.5 67q0 41 -23.5 66.5t-58.5 25.5q-19 0 -34 -8t-25.5 -20.5t-16.5 -29t-6 -34.5t6 -34
t17 -29t26 -20.5t33 -7.5z" />
    <glyph glyph-name="e" unicode="e" horiz-adv-x="338" 
d="M315 62q-24 -28 -59.5 -48t-77.5 -20q-33 0 -62 12.5t-51 34t-35 50t-13 61.5t13 62t34.5 50.5t51 34.5t62.5 13t60 -14t46.5 -37.5t31 -55t11.5 -66.5h-230q3 -32 26 -55t55 -23q28 0 51.5 17t37.5 32zM246 199q-5 17 -22 32.5t-46 15.5q-31 0 -50 -15t-27 -33h145z" />
    <glyph glyph-name="f" unicode="f" horiz-adv-x="190" 
d="M52 237h-37v67h37v21q0 33 10 61.5t29.5 50t49.5 34.5t71 13v-68h-9q-20 0 -34 -8t-23 -20.5t-13 -29t-4 -33.5v-21h101l-69 -67h-32v-237h-77v237z" />
    <glyph glyph-name="g" unicode="g" 
d="M99 -39q16 -12 36 -22.5t40 -10.5q35 0 58.5 25.5t23.5 73.5q-14 -14 -34 -22.5t-47 -8.5q-33 0 -62.5 12.5t-51 33.5t-34.5 49.5t-13 61.5t13 62t34.5 50.5t51 34t62.5 12.5q11 0 23.5 -3t24.5 -8.5t21.5 -12.5t15.5 -16l-1 32h72v-284q0 -33 -12.5 -62t-34 -50.5
t-50 -34t-61.5 -12.5q-35 0 -66.5 14t-57.5 37zM176 62q35 0 58.5 25.5t23.5 65.5q0 44 -23.5 68t-58.5 24q-18 0 -33 -7.5t-26 -20.5t-17 -29.5t-6 -34.5t6 -34t17 -29t26 -20.5t33 -7.5z" />
    <glyph glyph-name="h" unicode="h" horiz-adv-x="342" 
d="M33 510l75 9v-241q12 11 32 21.5t43 10.5q69 0 97 -40t28 -118v-152h-76v151q0 17 -1.5 33.5t-7.5 30t-17 21.5t-30 8q-37 0 -52.5 -26.5t-15.5 -67.5v-150h-75v510z" />
    <glyph glyph-name="i" unicode="i" horiz-adv-x="142" 
d="M20 389q0 22 14.5 36t35.5 14t35.5 -14t14.5 -36t-14.5 -36t-34.5 -14q-22 0 -36.5 14.5t-14.5 35.5zM38 237h-25v67h102v-304h-77v237z" />
    <glyph glyph-name="j" unicode="j" horiz-adv-x="141" 
d="M25 389q0 22 14.5 36t36.5 14q20 0 34.5 -14t14.5 -36t-14.5 -36t-34.5 -14q-21 0 -36 14.5t-15 35.5zM-15 -77q26 15 41 37t15 45v232h-26v67h103v-299q0 -41 -21.5 -76t-58.5 -61z" />
    <glyph glyph-name="k" unicode="k" horiz-adv-x="317" 
d="M36 510l77 9v-345l141 142l51 -52l-107 -102l123 -119l-54 -54l-154 156v-145h-77v510z" />
    <glyph glyph-name="l" unicode="l" horiz-adv-x="149" 
d="M36 510l77 9v-392q0 -26 5.5 -46.5t33.5 -37.5l-54 -54q-19 13 -31 26t-19 29t-9.5 36t-2.5 47v383z" />
    <glyph glyph-name="m" unicode="m" horiz-adv-x="502" 
d="M36 304h73l-1 -32q9 15 30.5 27t44.5 12q30 0 46 -8t31 -22q13 12 35.5 21t41.5 9q68 0 94.5 -41t26.5 -118v-152h-76v152q0 16 -1 32.5t-5.5 30t-13.5 21.5t-25 8q-12 0 -24 -4t-23 -12q5 -17 6.5 -35t1.5 -41v-152h-75v152q0 16 -1.5 32.5t-6.5 30t-14 21.5t-25 8
q-34 0 -49 -27t-15 -62v-155h-76v304z" />
    <glyph glyph-name="n" unicode="n" horiz-adv-x="345" 
d="M36 304h73l-1 -34q4 6 13 13t20 13.5t23.5 10.5t23.5 4q70 0 96.5 -42t26.5 -117v-152h-76v152q0 16 -1.5 32.5t-6.5 30t-14.5 21.5t-25.5 8q-35 0 -55 -26.5t-20 -66.5v-151h-76v304z" />
    <glyph glyph-name="o" unicode="o" 
d="M25 152q0 33 12.5 61.5t34.5 50.5t51 34.5t62 12.5t62 -12.5t50.5 -34.5t34.5 -50.5t13 -61.5t-13 -61.5t-34.5 -50t-50.5 -34t-62 -12.5t-62 12.5t-51 34t-34.5 50t-12.5 61.5zM185 61q18 0 33 7.5t26 20.5t17 29t6 34t-6 34.5t-17 29t-26 20.5t-33 8t-33 -8t-26 -20.5
t-17 -29t-6 -34.5t6 -34t17 -29t26 -20.5t33 -7.5z" />
    <glyph glyph-name="p" unicode="p" horiz-adv-x="370" 
d="M34 304h72v-36q14 16 39.5 29.5t52.5 13.5q34 0 62 -11.5t48 -32t31.5 -50t11.5 -65.5q0 -35 -13 -64t-35 -50t-51.5 -32.5t-61.5 -11.5q-21 0 -43.5 10.5t-36.5 22.5v-157l-76 -10v444zM190 61q16 0 31 6.5t26 18.5t18 29t7 37q0 39 -19 65.5t-55 26.5q-17 0 -33.5 -6
t-29.5 -17.5t-20.5 -29t-7.5 -39.5q0 -45 24 -68t59 -23z" />
    <glyph glyph-name="q" unicode="q" 
d="M254 35q-9 -14 -30.5 -27t-49.5 -13q-33 0 -62.5 12.5t-51 34t-34.5 50t-13 61.5t13 62t34.5 50t51 33.5t62.5 12.5q26 0 49.5 -12.5t34.5 -26.5v32h72v-434l-76 -10v175zM174 62q35 0 59 25t24 66q0 43 -24 67t-59 24q-18 0 -33 -7.5t-26 -20.5t-17 -29t-6 -34t6 -34
t17 -29t26 -20.5t33 -7.5z" />
    <glyph glyph-name="r" unicode="r" horiz-adv-x="237" 
d="M32 304h73l-1 -37q7 17 28 30.5t44 13.5q21 0 38.5 -7t37.5 -20l-10 -10.5t-22 -23.5t-22 -23.5l-10 -10.5q-5 11 -14 16t-17 5q-49 0 -49 -86v-151h-76v304z" />
    <glyph glyph-name="s" unicode="s" horiz-adv-x="235" 
d="M49 94q17 -13 36 -23t39 -10q11 0 20.5 7.5t9.5 20.5q0 14 -15 21.5t-28 14.5l-14 7q-13 5 -26 13t-23 18.5t-16.5 24t-6.5 30.5q0 20 8 37t22 29.5t32.5 19.5t38.5 7q29 0 53 -11t50 -31l-50 -47q-20 13 -30 17.5t-22 4.5q-9 0 -17 -5.5t-8 -14.5q0 -5 4.5 -9.5t11 -8
t13.5 -6t12 -5.5l13 -7q35 -17 55 -37t20 -60q0 -45 -31 -71t-75 -26q-36 0 -67.5 14.5t-56.5 36.5z" />
    <glyph glyph-name="t" unicode="t" horiz-adv-x="185" 
d="M43 237h-43v23l120 120v-76h85l-70 -67h-15v-110q0 -26 6 -46t33 -37l-54 -55q-19 13 -31 26t-19 29t-9.5 36t-2.5 47v110z" />
    <glyph glyph-name="u" unicode="u" horiz-adv-x="342" 
d="M32 304h76v-151q0 -18 3.5 -34.5t10.5 -29t18.5 -20.5t28.5 -8t28.5 7.5t19 20.5t11 29t3.5 34v152h77v-151q0 -33 -9 -62t-26 -50.5t-43.5 -34t-60.5 -12.5t-59.5 12.5t-43 33.5t-26 50t-8.5 62v152z" />
    <glyph glyph-name="v" unicode="v" horiz-adv-x="341" 
d="M14 284l72 31l86 -211l83 211l72 -31l-115 -276l-75 -16z" />
    <glyph glyph-name="w" unicode="w" horiz-adv-x="496" 
d="M14 284l71 31l77 -186l68 173l33 13l72 -185l76 185l71 -31l-117 -278l-54 -14l-63 152l-56 -137l-56 -15z" />
    <glyph glyph-name="x" unicode="x" horiz-adv-x="296" 
d="M101 155l-86 117l63 44l71 -99l69 99l63 -44l-86 -117l87 -120l-62 -46l-72 103l-71 -103l-63 46z" />
    <glyph glyph-name="y" unicode="y" horiz-adv-x="339" 
d="M15 -63q36 9 55 25.5t30 38.5q7 13 11.5 23t8.5 16q4 7 7 12q-28 54 -59.5 114t-57.5 113l70 35l89 -178l91 178l69 -35q-38 -75 -71 -138l-28 -54t-25.5 -50t-20.5 -40t-12 -24q-18 -35 -48 -62.5t-75 -41.5z" />
    <glyph glyph-name="z" unicode="z" horiz-adv-x="280" 
d="M12 45l135 187l6 5h-135v67h238l4 -46l-134 -185l-5 -3h168l-69 -70h-205z" />
    <glyph glyph-name="braceleft" unicode="{" horiz-adv-x="212" 
d="M69 162q0 6 -2 17t-7 22.5t-14 20.5t-23 10v24q18 1 27.5 9.5t13.5 21.5t4.5 28t0.5 29v112q0 6 1 20.5t7 31.5t19 33.5t37 25.5q14 5 36.5 7t44.5 2l-1 -26q-6 -1 -16.5 -3.5t-21 -11.5t-18.5 -28.5t-8 -54.5v-76q0 -51 -5.5 -83t-33.5 -50q24 -16 31.5 -44.5t7.5 -86.5
v-79q0 -26 2 -42t9 -26t20 -16.5t35 -13.5l-2 -25q-6 0 -24 1t-38.5 6t-39.5 16t-29 31t-11.5 42t-1.5 42v114z" />
    <glyph glyph-name="bar" unicode="|" horiz-adv-x="206" 
d="M70 493h72v-693h-72v693z" />
    <glyph glyph-name="braceright" unicode="}" horiz-adv-x="211" 
d="M145 48q0 -20 -1.5 -42t-11.5 -42t-29 -31t-39.5 -16t-38.5 -6t-24 -1l-2 25q22 7 35 13.5t20 16.5t9 26t2 42v79q0 58 7.5 86.5t31.5 44.5q-14 9 -22 21.5t-12 28.5t-4.5 36.5t-0.5 46.5v76q0 35 -8 54.5t-18.5 28.5t-21 11.5t-16.5 3.5l-1 26q22 0 44.5 -2t36.5 -7
q24 -9 37 -25.5t19 -33.5t7 -31.5t1 -20.5v-112q0 -14 0.5 -29t4.5 -28t13.5 -21.5t27.5 -9.5v-24q-14 -1 -23 -10t-14 -20.5t-7 -22.5t-2 -17v-114z" />
    <glyph glyph-name="asciitilde" unicode="~" horiz-adv-x="425" 
d="M36 235q14 20 26 36t24.5 27t27.5 17t36 6q22 0 40 -6.5t33.5 -14t28 -14t22.5 -6.5q18 0 28.5 16t20.5 33l65 -36q-14 -22 -25.5 -38.5t-24 -28t-27 -17t-34.5 -5.5q-22 0 -39.5 7t-32.5 15t-28 15t-27 7q-16 0 -27.5 -16.5t-21.5 -32.5z" />
    <glyph glyph-name="uni00A0" unicode="&#xa0;" horiz-adv-x="288" 
 />
    <glyph glyph-name="exclamdown" unicode="&#xa1;" horiz-adv-x="231" 
d="M60 438q0 23 16.5 39.5t39.5 16.5t39 -17.5t16 -39.5t-16.5 -38.5t-39.5 -16.5t-39 17t-16 39zM84 345h75v-347h-75v347z" />
    <glyph glyph-name="cent" unicode="&#xa2;" horiz-adv-x="328" 
d="M152 -30q-28 6 -51.5 20t-41 34.5t-27.5 46t-10 54.5t10 55t27.5 46.5t41 34.5t51.5 20v60h61v-60q25 -4 47.5 -16t43.5 -29l-49 -48q-11 8 -21 14.5t-21 8.5v-171q11 3 23 11.5t21 16.5l48 -50q-18 -18 -42.5 -31t-49.5 -18v-57h-61v58zM152 209q-23 -11 -37.5 -34
t-14.5 -50q0 -26 14.5 -49.5t37.5 -34.5v168z" />
    <glyph glyph-name="sterling" unicode="&#xa3;" horiz-adv-x="401" 
d="M23 22q11 17 22 32.5t23.5 27t29 18.5t39.5 7q3 6 3 14q0 14 -5.5 28t-13.5 28h-86v70h52q-10 24 -15.5 47.5t-5.5 54.5q0 28 11 52t30.5 42t46 28t56.5 10q45 0 76 -15.5t56 -36.5l-53 -52q-15 14 -33.5 23.5t-44.5 9.5t-44 -18t-18 -41q0 -27 9 -51.5t22 -52.5h108v-70
h-77q5 -15 8 -30t3 -31q0 -8 -1 -16.5t-4 -16.5q32 -17 43 -17q15 0 27 16.5t23 32.5l64 -36q-27 -43 -49 -66t-61 -23q-23 0 -40.5 7t-32 15t-27.5 15t-27 7t-27 -16.5t-22 -32.5z" />
    <glyph glyph-name="currency" unicode="&#xa4;" horiz-adv-x="470" 
d="M82 143q-10 14 -20 38t-10 62q0 23 7 50t23 46l-50 50l56 57l50 -50q14 10 37.5 20t61.5 10q5 0 17 -1.5t26.5 -5t29 -9.5t24.5 -14l50 50l57 -57l-50 -50q10 -14 19 -38.5t9 -59.5q0 -5 -1.5 -18t-4.5 -28t-8.5 -29.5t-14.5 -23.5l51 -50l-57 -56l-50 50
q-14 -10 -38 -19.5t-60 -9.5q-38 0 -61 10t-37 20l-51 -50l-56 56zM237 350q-21 0 -40.5 -8.5t-34.5 -23.5t-23.5 -35t-8.5 -42q0 -46 31 -76.5t77 -30.5q20 0 39 6t33.5 19t23.5 33.5t9 49.5q0 4 -2.5 21.5t-13 37t-32 34.5t-58.5 15z" />
    <glyph glyph-name="yen" unicode="&#xa5;" horiz-adv-x="378" 
d="M24 177h121v17q-1 1 -1 2t-1 2t-1 2h-118v72h78l-94 177l69 42l107 -200l2 -10l110 210l70 -41l-97 -178h75v-72h-114l-5 -6v-17h119v-72h-119v-105h-80v105h-121v72z" />
    <glyph glyph-name="brokenbar" unicode="&#xa6;" horiz-adv-x="245" 
d="M91 431h72v-270h-72v270zM91 111h72v-270h-72v270z" />
    <glyph glyph-name="section" unicode="&#xa7;" horiz-adv-x="332" 
d="M75 -31q16 -13 37 -25t47 -12q24 0 41.5 18.5t17.5 41.5q0 21 -14.5 32t-32.5 21l-33 18q-20 11 -38 22t-31.5 24.5t-21 31.5t-7.5 44q0 31 15 56.5t39 42.5q-20 16 -33 36.5t-13 51.5q0 26 10 49t28 39.5t42 26t52 9.5q44 0 73.5 -15t52.5 -35l-50 -49q-14 11 -31.5 22
t-40.5 11t-39.5 -16.5t-16.5 -37.5q0 -19 16 -29.5t32 -19.5l42 -25q40 -24 64.5 -49t24.5 -70q0 -29 -14.5 -56.5t-37.5 -44.5q20 -17 30.5 -36.5t10.5 -49.5q0 -27 -10.5 -51t-28.5 -42t-42.5 -28.5t-53.5 -10.5q-46 0 -80 18t-57 38zM189 125q17 6 27 22t12 34
q0 12 -6.5 20.5t-15.5 15.5t-19.5 12t-19.5 11q-19 -2 -34 -17.5t-15 -34.5q0 -18 18 -32t53 -31z" />
    <glyph glyph-name="dieresis" unicode="&#xa8;" horiz-adv-x="320" 
d="M224 598q0 -22 -15.5 -35.5t-35.5 -13.5t-34.5 15t-14.5 34q0 20 14.5 35.5t34.5 15.5t35.5 -15.5t15.5 -35.5zM100 598q0 -22 -15.5 -35.5t-35.5 -13.5q-21 0 -35 15t-14 34q0 20 14.5 35.5t34.5 15.5t35.5 -15.5t15.5 -35.5z" />
    <glyph glyph-name="copyright" unicode="&#xa9;" horiz-adv-x="606" 
d="M155 47q-12 9 -28 25.5t-30.5 40.5t-24.5 55.5t-10 70.5q0 51 18.5 94.5t51.5 76t77 51t95 18.5t94.5 -19t76 -51.5t51 -76.5t18.5 -95q0 -50 -19 -93.5t-51.5 -76t-76.5 -51.5t-93 -19q-40 0 -78.5 13.5t-70.5 36.5zM116 239q0 -39 14.5 -73t40 -59.5t60 -40.5t73.5 -15
q38 0 72 14.5t59.5 40t40 59.5t14.5 73t-14.5 73t-39.5 59.5t-59 40t-73 14.5t-73 -14.5t-59.5 -39.5t-40.5 -59t-15 -73zM399 126q-16 -14 -41 -26.5t-51 -12.5q-32 0 -59.5 12t-48.5 32t-33 47.5t-12 59.5q0 31 12 58.5t33 48t48.5 32t59.5 11.5q29 0 51 -10t42 -24
l-36 -35q-17 12 -30 17t-27 5q-21 0 -38.5 -8.5t-31 -22.5t-21 -32.5t-7.5 -39.5q0 -20 7.5 -39t21 -33.5t31 -23t38.5 -8.5q14 0 30 8.5t28 17.5z" />
    <glyph glyph-name="ordfeminine" unicode="&#xaa;" horiz-adv-x="233" 
d="M154 418q-10 -8 -20.5 -11t-21.5 -3q-21 0 -39.5 8t-32.5 21.5t-22 31.5t-8 39t8 39t22 31.5t32.5 21.5t39.5 8q11 0 24 -3.5t21 -12.5v12h52v-193h-55v11zM112 455q18 0 30.5 12.5t12.5 36.5q0 23 -12.5 36t-30.5 13q-20 0 -33 -14.5t-13 -34.5t13 -34.5t33 -14.5z" />
    <glyph glyph-name="guillemotleft" unicode="&#xab;" horiz-adv-x="293" 
d="M114 162l102 140l59 -43l-77 -97l77 -98l-59 -42zM0 162l102 140l58 -43l-76 -97l77 -98l-59 -42z" />
    <glyph glyph-name="logicalnot" unicode="&#xac;" horiz-adv-x="500" 
d="M15 238h454v-238h-77v162h-377v76z" />
    <glyph glyph-name="uni00AD" unicode="&#xad;" horiz-adv-x="263" 
d="M39 295h187v-72h-187v72z" />
    <glyph glyph-name="registered" unicode="&#xae;" horiz-adv-x="585" 
d="M155 47q-12 9 -28 25.5t-30.5 40.5t-24.5 55.5t-10 70.5q0 51 18.5 94.5t51.5 76t77 51t95 18.5t94.5 -19t76 -51.5t51 -76.5t18.5 -95q0 -50 -19 -93.5t-51.5 -76t-76.5 -51.5t-93 -19q-40 0 -78.5 13.5t-70.5 36.5zM116 239q0 -39 14.5 -73t40 -59.5t60 -40.5t73.5 -15
q38 0 72 14.5t59.5 40t40 59.5t14.5 73t-14.5 73t-39.5 59.5t-59 40t-73 14.5t-73 -14.5t-59.5 -39.5t-40.5 -59t-15 -73zM232 381h60q21 0 40 -3.5t34 -12.5t24 -25t9 -42q0 -29 -17.5 -47.5t-36.5 -24.5l66 -111l-46 -27l-81 143v-134h-52v284zM295 262q20 0 35.5 7
t15.5 29q0 23 -15 29.5t-36 6.5h-11v-72h11z" />
    <glyph glyph-name="macron" unicode="&#xaf;" horiz-adv-x="320" 
d="M17 622h200v-71h-200v71z" />
    <glyph glyph-name="degree" unicode="&#xb0;" horiz-adv-x="257" 
d="M245 513q0 -23 -9 -44t-25 -37t-36.5 -26t-44.5 -10q-25 0 -46.5 9.5t-37 25.5t-24.5 37t-9 45t9 45t25 37t37.5 25t45.5 9t44.5 -9t36.5 -25t25 -37t9 -45zM81 515q0 -21 14 -34.5t35 -13.5q20 0 33 13.5t13 34.5q0 20 -13 33t-33 13q-21 0 -35 -13t-14 -33z" />
    <glyph glyph-name="plusminus" unicode="&#xb1;" horiz-adv-x="366" 
d="M22 285h124v124h72v-124h125v-72h-125v-125h-72v125h-124v72zM23 70h320v-70h-320v70z" />
    <glyph glyph-name="uni00B2" unicode="&#xb2;" horiz-adv-x="306" 
d="M266 215l-50 -49h-176q8 37 32 68t47 54l21 21q16 16 31.5 38t15.5 54q0 17 -12.5 29t-29.5 12t-30.5 -7t-24.5 -16l-37 37q17 14 39 25t54 11q21 0 39 -7t31.5 -19.5t21.5 -29.5t8 -36q0 -40 -19.5 -68t-42.5 -53l-25 -27q-9 -10 -19 -19.5t-15 -17.5h141z" />
    <glyph glyph-name="uni00B3" unicode="&#xb3;" horiz-adv-x="282" 
d="M77 230q11 -10 24 -16.5t30 -6.5q21 0 37.5 15.5t16.5 41.5q0 22 -19.5 35.5t-42.5 13.5v46q25 2 38.5 14.5t13.5 29.5q0 16 -9 25.5t-26 9.5t-28.5 -7.5t-25.5 -18.5l-36 36q17 14 37.5 27t52.5 13q43 0 68 -25t25 -60q0 -20 -12.5 -38t-29.5 -26q22 -10 36.5 -29.5
t14.5 -45.5t-9.5 -46t-24.5 -33.5t-35 -20.5t-41 -7q-31 0 -53 10.5t-39 25.5z" />
    <glyph glyph-name="acute" unicode="&#xb4;" horiz-adv-x="277" 
d="M15 598l122 92l42 -56l-122 -92z" />
    <glyph glyph-name="paragraph" unicode="&#xb6;" horiz-adv-x="375" 
d="M137 188q-46 11 -73.5 44t-27.5 87q0 64 42.5 102.5t109.5 38.5h159v-71h-34v-389h-72v389h-32v-389h-72v188z" />
    <glyph glyph-name="periodcentered" unicode="&#xb7;" horiz-adv-x="142" 
d="M15 262q0 23 16 39.5t40 16.5q23 0 39.5 -16.5t16.5 -39.5q0 -24 -16.5 -40t-39.5 -16q-24 0 -40 16t-16 40z" />
    <glyph glyph-name="cedilla" unicode="&#xb8;" horiz-adv-x="365" 
d="M113 -28l122 -92l-41 -56l-123 92z" />
    <glyph glyph-name="uni00B9" unicode="&#xb9;" horiz-adv-x="226" 
d="M65 214h34v212l-59 -29v55l69 35h45v-273h32v-49h-121v49z" />
    <glyph glyph-name="guillemotright" unicode="&#xbb;" horiz-adv-x="292" 
d="M191 162l-78 97l59 43l103 -140l-103 -140l-58 42zM76 162l-76 97l58 43l103 -140l-103 -140l-58 42z" />
    <glyph glyph-name="onequarter" unicode="&#xbc;" horiz-adv-x="601" 
d="M317 89l131 223l51 -30l-97 -167h36v15l61 75v-90h65l-55 -56h-10v-64h-61v64h-121v30zM378 484l53 -25l-236 -476l-53 25zM70 220h31v186l-54 -28v61l67 35h49v-254h28v-55h-121v55z" />
    <glyph glyph-name="onehalf" unicode="&#xbd;" horiz-adv-x="592" 
d="M563 50l-55 -54h-171q8 34 30.5 62.5t46.5 54.5t42.5 51.5t18.5 53.5q0 14 -10.5 24.5t-24.5 10.5q-16 0 -28.5 -7t-23.5 -17l-40 41q19 15 41 26t51 11q42 0 70 -26t28 -65q0 -25 -12 -49t-29.5 -45.5t-35.5 -40t-30 -31.5h132zM371 484l53 -25l-235 -476l-54 25z
M71 220h31v186l-54 -28v61l67 35h47v-254h29v-55h-120v55z" />
    <glyph glyph-name="threequarters" unicode="&#xbe;" horiz-adv-x="592" 
d="M386 484l53 -25l-236 -476l-53 25zM60 243q11 -10 23.5 -17.5t27.5 -7.5q17 0 31 14.5t14 35.5q0 19 -17.5 30t-39.5 11v51q23 2 35.5 12.5t12.5 24.5q0 13 -7 21t-21 8t-24 -7t-25 -22l-42 42q17 14 38.5 28t52.5 14q42 0 66.5 -24.5t24.5 -59.5q0 -18 -10.5 -34.5
t-26.5 -24.5q19 -9 32 -28t13 -42q0 -25 -9 -44.5t-24 -32.5t-34 -20t-40 -7q-29 0 -51.5 11t-39.5 27zM309 89l131 223l51 -30l-98 -167h37v15l61 75v-90h65l-55 -56h-10v-64h-61v64h-121v30z" />
    <glyph glyph-name="questiondown" unicode="&#xbf;" horiz-adv-x="302" 
d="M105 427q0 23 16 39.5t39 16.5t39.5 -17t16.5 -40t-16.5 -39t-40.5 -16q-23 0 -38.5 16t-15.5 40zM282 44q-24 -22 -53 -37t-67 -15q-29 0 -54.5 10t-45 27t-31 39t-11.5 46q0 27 6 46t16.5 33t24.5 24.5t29 20.5q20 13 25.5 32t5.5 37q0 11 -1 20t-1 16q0 6 2 8h63
q1 -12 2 -23q1 -10 1.5 -21.5t0.5 -21.5q0 -36 -10.5 -61t-40.5 -45q-16 -11 -27.5 -27t-11.5 -39q0 -20 18.5 -35.5t39.5 -15.5q22 0 40 10t31 23z" />
    <glyph glyph-name="Agrave" unicode="&#xc0;" horiz-adv-x="437" 
d="M194 488l46 17l199 -485l-77 -31l-60 150h-166l-60 -150l-77 31zM274 211l-55 133l-54 -133h109zM164 674l123 -92l-43 -56l-122 92z" />
    <glyph glyph-name="Aacute" unicode="&#xc1;" horiz-adv-x="440" 
d="M194 488l46 17l199 -485l-77 -31l-60 150h-166l-60 -150l-77 31zM274 211l-55 133l-54 -133h109zM165 583l122 92l42 -56l-122 -92z" />
    <glyph glyph-name="Acircumflex" unicode="&#xc2;" horiz-adv-x="440" 
d="M194 488l46 17l199 -485l-77 -31l-60 150h-166l-60 -150l-77 31zM274 211l-55 133l-54 -133h109zM124 594l104 80l105 -80l-43 -56l-62 49l-63 -49z" />
    <glyph glyph-name="Atilde" unicode="&#xc3;" horiz-adv-x="438" 
d="M194 488l46 17l199 -485l-77 -31l-60 150h-166l-60 -150l-77 31zM274 211l-55 133l-54 -133h109zM97 595q3 6 10.5 19t19 25.5t26.5 22t33 9.5q12 0 20 -2t15.5 -6t17 -10t25.5 -13q1 -1 4 -1q6 0 11 5.5t9 12.5l9 18l66 -33q-5 -9 -13.5 -22t-20 -24.5t-25.5 -19.5
t-29 -8q-8 0 -19.5 5t-24.5 11.5t-24.5 11.5t-18.5 5q-4 0 -7.5 -6t-7.5 -13q-4 -9 -9 -19z" />
    <glyph glyph-name="Adieresis" unicode="&#xc4;" horiz-adv-x="437" 
d="M194 488l46 17l199 -485l-77 -31l-60 150h-166l-60 -150l-77 31zM274 211l-55 133l-54 -133h109zM337 622q0 -22 -15.5 -35.5t-35.5 -13.5t-34.5 15t-14.5 34q0 20 14.5 35.5t34.5 15.5t35.5 -15.5t15.5 -35.5zM213 622q0 -22 -15.5 -35.5t-35.5 -13.5q-21 0 -35 15
t-14 34q0 20 14.5 35.5t34.5 15.5t35.5 -15.5t15.5 -35.5z" />
    <glyph glyph-name="Aring" unicode="&#xc5;" horiz-adv-x="440" 
d="M194 488l46 17l199 -485l-77 -31l-60 150h-166l-60 -150l-77 31zM274 211l-55 133l-54 -133h109zM154 604q0 29 21 50t50 21t50 -21t21 -50t-21 -49.5t-50 -20.5t-50 20.5t-21 49.5zM199 604q0 -10 7 -17t18 -7t18.5 6.5t7.5 17.5t-7.5 18.5t-18.5 7.5t-18 -7.5t-7 -18.5
z" />
    <glyph glyph-name="AE" unicode="&#xc6;" horiz-adv-x="643" 
d="M197 494h235l29 -73h-187l48 -117h175l29 -72h-175l66 -160h189l29 -72h-277l-58 139h-165l-60 -150l-76 31zM273 211l-55 133l-54 -133h109z" />
    <glyph glyph-name="Ccedilla" unicode="&#xc7;" horiz-adv-x="425" 
d="M420 45q-31 -24 -70 -37.5t-76 -13.5q-8 0 -14.5 0.5t-13.5 1.5l115 -87l-41 -56l-123 92l39 52q-47 7 -87 29t-69 55t-46 75.5t-17 90.5q0 53 20.5 99t55.5 80.5t81.5 54.5t99.5 20q35 0 72.5 -11.5t71.5 -33.5l-55 -54q-46 26 -89 26q-36 0 -67.5 -14.5t-55 -39.5
t-37 -57.5t-13.5 -68.5t13.5 -69t37 -58t55 -40t67.5 -15q44 0 91 33z" />
    <glyph glyph-name="Egrave" unicode="&#xc8;" horiz-adv-x="342" 
d="M36 495h272v-74h-188v-117h175v-72h-175v-160h189v-72h-273v495zM130 661l123 -92l-43 -56l-122 92z" />
    <glyph glyph-name="Eacute" unicode="&#xc9;" horiz-adv-x="342" 
d="M36 495h272v-74h-188v-117h175v-72h-175v-160h189v-72h-273v495zM103 583l122 92l42 -56l-122 -92z" />
    <glyph glyph-name="Ecircumflex" unicode="&#xca;" horiz-adv-x="342" 
d="M36 495h272v-74h-188v-117h175v-72h-175v-160h189v-72h-273v495zM74 596l104 80l105 -80l-43 -56l-62 49l-63 -49z" />
    <glyph glyph-name="Edieresis" unicode="&#xcb;" horiz-adv-x="342" 
d="M36 495h272v-74h-188v-117h175v-72h-175v-160h189v-72h-273v495zM285 610q0 -22 -15.5 -35.5t-35.5 -13.5t-34.5 15t-14.5 34q0 20 14.5 35.5t34.5 15.5t35.5 -15.5t15.5 -35.5zM161 610q0 -22 -15.5 -35.5t-35.5 -13.5q-21 0 -35 15t-14 34q0 20 14.5 35.5t34.5 15.5
t35.5 -15.5t15.5 -35.5z" />
    <glyph glyph-name="Igrave" unicode="&#xcc;" horiz-adv-x="164" 
d="M13 72h26v349h-26v73h135v-73h-26v-349h26v-72h-135v72zM40 677l123 -92l-43 -56l-122 92z" />
    <glyph glyph-name="Iacute" unicode="&#xcd;" horiz-adv-x="165" 
d="M13 72h26v349h-26v73h135v-73h-26v-349h26v-72h-135v72zM3 583l122 92l42 -56l-122 -92z" />
    <glyph glyph-name="Icircumflex" unicode="&#xce;" horiz-adv-x="163" 
d="M13 72h26v349h-26v73h135v-73h-26v-349h26v-72h-135v72zM-23 595l104 80l105 -80l-43 -56l-62 49l-63 -49z" />
    <glyph glyph-name="Idieresis" unicode="&#xcf;" horiz-adv-x="158" 
d="M13 72h26v349h-26v73h135v-73h-26v-349h26v-72h-135v72zM194 612q0 -22 -15.5 -35.5t-35.5 -13.5t-34.5 15t-14.5 34q0 20 14.5 35.5t34.5 15.5t35.5 -15.5t15.5 -35.5zM70 612q0 -22 -15.5 -35.5t-35.5 -13.5q-21 0 -35 15t-14 34q0 20 14.5 35.5t34.5 15.5t35.5 -15.5
t15.5 -35.5z" />
    <glyph glyph-name="Eth" unicode="&#xd0;" horiz-adv-x="476" 
d="M81 232h-63v72h63v190h114q57 0 103.5 -17.5t79.5 -49.5t51 -76t18 -96q0 -56 -20.5 -103t-56 -81t-82.5 -52.5t-100 -18.5h-107v232zM188 72q36 0 68 14t55 38.5t36.5 58t13.5 71.5q0 36 -11.5 66.5t-33 53t-52.5 35t-69 12.5h-31v-117h98v-72h-98v-160h24z" />
    <glyph glyph-name="Ntilde" unicode="&#xd1;" horiz-adv-x="460" 
d="M38 487l49 17l252 -321v311h83v-486l-38 -16l-263 330v-322h-83v487zM96 595q3 6 10.5 19t19 25.5t26.5 22t33 9.5q12 0 20 -2t15.5 -6t17 -10t25.5 -13q1 -1 4 -1q6 0 11 5.5t9 12.5l9 18l66 -33q-5 -9 -13.5 -22t-20 -24.5t-25.5 -19.5t-29 -8q-8 0 -19.5 5t-24.5 11.5
t-24.5 11.5t-18.5 5q-4 0 -7.5 -6t-7.5 -13q-4 -9 -9 -19z" />
    <glyph glyph-name="Ograve" unicode="&#xd2;" horiz-adv-x="573" 
d="M29 247q0 53 20 99t55 80.5t82 54.5t100 20t100 -20t82 -54t55.5 -80.5t20.5 -98.5q0 -53 -20.5 -99.5t-55.5 -81t-82 -54t-100 -19.5t-100 19.5t-82 54t-55 80.5t-20 99zM286 66q35 0 66.5 15t55 39.5t37 57.5t13.5 69t-13.5 69t-37 58t-54.5 39.5t-67 14.5t-67.5 -14.5
t-55 -39.5t-37 -57.5t-13.5 -68.5t13.5 -69t37 -58t55 -40t67.5 -15zM264 675l123 -92l-43 -56l-122 92z" />
    <glyph glyph-name="Oacute" unicode="&#xd3;" horiz-adv-x="573" 
d="M29 247q0 53 20 99t55 80.5t82 54.5t100 20t100 -20t82 -54t55.5 -80.5t20.5 -98.5q0 -53 -20.5 -99.5t-55.5 -81t-82 -54t-100 -19.5t-100 19.5t-82 54t-55 80.5t-20 99zM286 66q35 0 66.5 15t55 39.5t37 57.5t13.5 69t-13.5 69t-37 58t-54.5 39.5t-67 14.5t-67.5 -14.5
t-55 -39.5t-37 -57.5t-13.5 -68.5t13.5 -69t37 -58t55 -40t67.5 -15zM214 583l122 92l42 -56l-122 -92z" />
    <glyph glyph-name="Ocircumflex" unicode="&#xd4;" horiz-adv-x="573" 
d="M29 247q0 53 20 99t55 80.5t82 54.5t100 20t100 -20t82 -54t55.5 -80.5t20.5 -98.5q0 -53 -20.5 -99.5t-55.5 -81t-82 -54t-100 -19.5t-100 19.5t-82 54t-55 80.5t-20 99zM286 66q35 0 66.5 15t55 39.5t37 57.5t13.5 69t-13.5 69t-37 58t-54.5 39.5t-67 14.5t-67.5 -14.5
t-55 -39.5t-37 -57.5t-13.5 -68.5t13.5 -69t37 -58t55 -40t67.5 -15zM194 595l104 80l105 -80l-43 -56l-62 49l-63 -49z" />
    <glyph glyph-name="Otilde" unicode="&#xd5;" horiz-adv-x="573" 
d="M29 247q0 53 20 99t55 80.5t82 54.5t100 20t100 -20t82 -54t55.5 -80.5t20.5 -98.5q0 -53 -20.5 -99.5t-55.5 -81t-82 -54t-100 -19.5t-100 19.5t-82 54t-55 80.5t-20 99zM286 66q35 0 66.5 15t55 39.5t37 57.5t13.5 69t-13.5 69t-37 58t-54.5 39.5t-67 14.5t-67.5 -14.5
t-55 -39.5t-37 -57.5t-13.5 -68.5t13.5 -69t37 -58t55 -40t67.5 -15zM168 594q3 6 10.5 19t19 25.5t26.5 22t33 9.5q12 0 20 -2t15.5 -6t17 -10t25.5 -13q1 -1 4 -1q6 0 11 5.5t9 12.5l9 18l66 -33q-5 -9 -13.5 -22t-20 -24.5t-25.5 -19.5t-29 -8q-8 0 -19.5 5t-24.5 11.5
t-24.5 11.5t-18.5 5q-4 0 -7.5 -6t-7.5 -13q-4 -9 -9 -19z" />
    <glyph glyph-name="Odieresis" unicode="&#xd6;" horiz-adv-x="573" 
d="M29 247q0 53 20 99t55 80.5t82 54.5t100 20t100 -20t82 -54t55.5 -80.5t20.5 -98.5q0 -53 -20.5 -99.5t-55.5 -81t-82 -54t-100 -19.5t-100 19.5t-82 54t-55 80.5t-20 99zM286 66q35 0 66.5 15t55 39.5t37 57.5t13.5 69t-13.5 69t-37 58t-54.5 39.5t-67 14.5t-67.5 -14.5
t-55 -39.5t-37 -57.5t-13.5 -68.5t13.5 -69t37 -58t55 -40t67.5 -15zM412 622q0 -22 -15.5 -35.5t-35.5 -13.5t-34.5 15t-14.5 34q0 20 14.5 35.5t34.5 15.5t35.5 -15.5t15.5 -35.5zM288 622q0 -22 -15.5 -35.5t-35.5 -13.5q-21 0 -35 15t-14 34q0 20 14.5 35.5t34.5 15.5
t35.5 -15.5t15.5 -35.5z" />
    <glyph glyph-name="multiply" unicode="&#xd7;" horiz-adv-x="383" 
d="M145 218l-98 97l51 51l96 -98l99 99l50 -52l-98 -97l98 -97l-50 -51l-99 98l-96 -97l-51 50z" />
    <glyph glyph-name="Oslash" unicode="&#xd8;" horiz-adv-x="589" 
d="M90 85q-26 32 -39.5 71.5t-13.5 83.5q0 53 20 99.5t55 81t81.5 54t99.5 19.5q45 0 86.5 -14.5t74.5 -40.5q15 15 32 32.5t31 30.5l45 -48l-63 -62q22 -31 37 -70t15 -81q0 -53 -20.5 -99t-55.5 -80.5t-82 -54t-100 -19.5q-44 0 -84 14t-72 37q-16 -14 -32.5 -31
t-29.5 -30l-48 46zM396 384q-22 17 -48 27t-55 10q-36 0 -67.5 -14.5t-55 -39.5t-37 -57.5t-13.5 -68.5q0 -27 7.5 -51.5t21.5 -47.5zM192 95q44 -35 101 -35q36 0 68 15t55 39.5t36.5 57t13.5 68.5q0 26 -7 50.5t-20 44.5z" />
    <glyph glyph-name="Ugrave" unicode="&#xd9;" horiz-adv-x="429" 
d="M41 494h82v-345q0 -15 7.5 -30t20.5 -26.5t29.5 -19t33.5 -7.5t33.5 7.5t29 19t20.5 26.5t8 30v345h83v-345q0 -33 -14.5 -61.5t-38.5 -49.5t-55.5 -33t-65.5 -12q-35 0 -66 12t-55 33t-38 49.5t-14 61.5v345zM183 675l123 -92l-43 -56l-122 92z" />
    <glyph glyph-name="Uacute" unicode="&#xda;" horiz-adv-x="429" 
d="M41 494h82v-345q0 -15 7.5 -30t20.5 -26.5t29.5 -19t33.5 -7.5t33.5 7.5t29 19t20.5 26.5t8 30v345h83v-345q0 -33 -14.5 -61.5t-38.5 -49.5t-55.5 -33t-65.5 -12q-35 0 -66 12t-55 33t-38 49.5t-14 61.5v345zM150 583l122 92l42 -56l-122 -92z" />
    <glyph glyph-name="Ucircumflex" unicode="&#xdb;" horiz-adv-x="429" 
d="M41 494h82v-345q0 -15 7.5 -30t20.5 -26.5t29.5 -19t33.5 -7.5t33.5 7.5t29 19t20.5 26.5t8 30v345h83v-345q0 -33 -14.5 -61.5t-38.5 -49.5t-55.5 -33t-65.5 -12q-35 0 -66 12t-55 33t-38 49.5t-14 61.5v345zM116 594l104 80l105 -80l-43 -56l-62 49l-63 -49z" />
    <glyph glyph-name="Udieresis" unicode="&#xdc;" horiz-adv-x="429" 
d="M41 494h82v-345q0 -15 7.5 -30t20.5 -26.5t29.5 -19t33.5 -7.5t33.5 7.5t29 19t20.5 26.5t8 30v345h83v-345q0 -33 -14.5 -61.5t-38.5 -49.5t-55.5 -33t-65.5 -12q-35 0 -66 12t-55 33t-38 49.5t-14 61.5v345zM327 622q0 -22 -15.5 -35.5t-35.5 -13.5t-34.5 15t-14.5 34
q0 20 14.5 35.5t34.5 15.5t35.5 -15.5t15.5 -35.5zM203 622q0 -22 -15.5 -35.5t-35.5 -13.5q-21 0 -35 15t-14 34q0 20 14.5 35.5t34.5 15.5t35.5 -15.5t15.5 -35.5z" />
    <glyph glyph-name="Yacute" unicode="&#xdd;" horiz-adv-x="378" 
d="M149 200l-142 265l72 42l111 -210l2 -8l113 218l72 -42l-145 -266v-199h-83v200zM111 583l122 92l42 -56l-122 -92z" />
    <glyph glyph-name="Thorn" unicode="&#xde;" horiz-adv-x="328" 
d="M35 494h83v-87q38 0 74 -5.5t63.5 -21t44 -44.5t16.5 -77q0 -41 -14.5 -69.5t-41 -46.5t-63 -26t-79.5 -8v-109h-83v494zM118 188q22 0 43 2.5t37 10t26 21.5t10 38q0 23 -10.5 36.5t-27.5 21t-37.5 9.5t-40.5 2v-141z" />
    <glyph glyph-name="germandbls" unicode="&#xdf;" horiz-adv-x="363" 
d="M27 38q27 17 33 37t6 46v111h-36v68h36q0 32 8.5 59.5t24.5 47.5t39 31.5t53 11.5q23 0 43.5 -8.5t35.5 -23t23.5 -33t8.5 -37.5q0 -30 -11 -47t-24 -27.5t-24 -19t-11 -22.5q0 -10 13.5 -17t32.5 -18q34 -19 53.5 -42t19.5 -63q0 -21 -8.5 -40t-23 -33t-34 -22t-41.5 -8
q-25 0 -47.5 7.5t-43.5 20.5q9 12 20 26.5t20 28.5q26 -16 51 -16q11 0 20.5 10t9.5 24q0 19 -18 30.5t-39.5 24t-39.5 30.5t-18 51t10.5 49.5t23.5 26.5t23.5 19t10.5 27q0 13 -10.5 24.5t-25.5 11.5q-26 0 -36.5 -26.5t-10.5 -60.5v-176q0 -39 -11 -73t-52 -64z" />
    <glyph glyph-name="agrave" unicode="&#xe0;" 
d="M258 25q-14 -12 -37.5 -21.5t-44.5 -9.5q-33 0 -61.5 12.5t-50.5 34t-34.5 50t-12.5 61.5t12.5 61.5t34.5 50.5t50.5 34.5t61.5 12.5q22 0 46.5 -10t39.5 -24q0 3 -0.5 7.5t-0.5 9.5q-1 5 -1 10h72v-304h-75zM176 61q35 0 59 23t24 68q0 41 -24 66.5t-59 25.5
q-18 0 -33 -8t-26 -20.5t-17 -29t-6 -34.5t6 -34t17 -29t26 -20.5t33 -7.5zM172 543l123 -92l-43 -56l-122 92z" />
    <glyph glyph-name="aacute" unicode="&#xe1;" 
d="M258 25q-14 -12 -37.5 -21.5t-44.5 -9.5q-33 0 -61.5 12.5t-50.5 34t-34.5 50t-12.5 61.5t12.5 61.5t34.5 50.5t50.5 34.5t61.5 12.5q22 0 46.5 -10t39.5 -24q0 3 -0.5 7.5t-0.5 9.5q-1 5 -1 10h72v-304h-75zM176 61q35 0 59 23t24 68q0 41 -24 66.5t-59 25.5
q-18 0 -33 -8t-26 -20.5t-17 -29t-6 -34.5t6 -34t17 -29t26 -20.5t33 -7.5zM123 450l122 92l42 -56l-122 -92z" />
    <glyph glyph-name="acircumflex" unicode="&#xe2;" 
d="M258 25q-14 -12 -37.5 -21.5t-44.5 -9.5q-33 0 -61.5 12.5t-50.5 34t-34.5 50t-12.5 61.5t12.5 61.5t34.5 50.5t50.5 34.5t61.5 12.5q22 0 46.5 -10t39.5 -24q0 3 -0.5 7.5t-0.5 9.5q-1 5 -1 10h72v-304h-75zM176 61q35 0 59 23t24 68q0 41 -24 66.5t-59 25.5
q-18 0 -33 -8t-26 -20.5t-17 -29t-6 -34.5t6 -34t17 -29t26 -20.5t33 -7.5zM88 447l104 80l105 -80l-43 -56l-62 49l-63 -49z" />
    <glyph glyph-name="atilde" unicode="&#xe3;" 
d="M258 25q-14 -12 -37.5 -21.5t-44.5 -9.5q-33 0 -61.5 12.5t-50.5 34t-34.5 50t-12.5 61.5t12.5 61.5t34.5 50.5t50.5 34.5t61.5 12.5q22 0 46.5 -10t39.5 -24q0 3 -0.5 7.5t-0.5 9.5q-1 5 -1 10h72v-304h-75zM176 61q35 0 59 23t24 68q0 41 -24 66.5t-59 25.5
q-18 0 -33 -8t-26 -20.5t-17 -29t-6 -34.5t6 -34t17 -29t26 -20.5t33 -7.5zM62 421q3 6 10.5 19t19 25.5t26.5 22t33 9.5q12 0 20 -2t15.5 -6t17 -10t25.5 -13q1 -1 4 -1q6 0 11 5.5t9 12.5l9 18l66 -33q-5 -9 -13.5 -22t-20 -24.5t-25.5 -19.5t-29 -8q-8 0 -19.5 5
t-24.5 11.5t-24.5 11.5t-18.5 5q-4 0 -7.5 -6t-7.5 -13q-4 -9 -9 -19z" />
    <glyph glyph-name="adieresis" unicode="&#xe4;" 
d="M258 25q-14 -12 -37.5 -21.5t-44.5 -9.5q-33 0 -61.5 12.5t-50.5 34t-34.5 50t-12.5 61.5t12.5 61.5t34.5 50.5t50.5 34.5t61.5 12.5q22 0 46.5 -10t39.5 -24q0 3 -0.5 7.5t-0.5 9.5q-1 5 -1 10h72v-304h-75zM176 61q35 0 59 23t24 68q0 41 -24 66.5t-59 25.5
q-18 0 -33 -8t-26 -20.5t-17 -29t-6 -34.5t6 -34t17 -29t26 -20.5t33 -7.5zM312 442q0 -22 -15.5 -35.5t-35.5 -13.5t-34.5 15t-14.5 34q0 20 14.5 35.5t34.5 15.5t35.5 -15.5t15.5 -35.5zM188 442q0 -22 -15.5 -35.5t-35.5 -13.5q-21 0 -35 15t-14 34q0 20 14.5 35.5
t34.5 15.5t35.5 -15.5t15.5 -35.5z" />
    <glyph glyph-name="aring" unicode="&#xe5;" 
d="M258 25q-14 -12 -37.5 -21.5t-44.5 -9.5q-33 0 -61.5 12.5t-50.5 34t-34.5 50t-12.5 61.5t12.5 61.5t34.5 50.5t50.5 34.5t61.5 12.5q22 0 46.5 -10t39.5 -24q0 3 -0.5 7.5t-0.5 9.5q-1 5 -1 10h72v-304h-75zM176 61q35 0 59 23t24 68q0 41 -24 66.5t-59 25.5
q-18 0 -33 -8t-26 -20.5t-17 -29t-6 -34.5t6 -34t17 -29t26 -20.5t33 -7.5zM120 475q0 29 21 50t50 21t50 -21t21 -50t-21 -49.5t-50 -20.5t-50 20.5t-21 49.5zM165 475q0 -10 7 -17t18 -7t18.5 6.5t7.5 17.5t-7.5 18.5t-18.5 7.5t-18 -7.5t-7 -18.5z" />
    <glyph glyph-name="ae" unicode="&#xe6;" horiz-adv-x="596" 
d="M265 25q-14 -12 -37 -21.5t-45 -9.5q-32 0 -61 12.5t-51 34t-34.5 50t-12.5 61.5t12.5 61.5t34.5 50.5t51 34.5t61 12.5q23 0 46.5 -10t38.5 -24v27h71l-1 -27q15 13 36 23.5t47 10.5q32 0 59.5 -13.5t47.5 -37t31 -54.5t11 -65h-231q5 -33 27.5 -56.5t54.5 -23.5
q28 0 51.5 17t37.5 32l48 -48q-23 -28 -59 -48t-78 -20q-25 0 -46.5 10t-36.5 23l1 -27h-75zM183 61q35 0 59.5 23t24.5 68q0 41 -24.5 66.5t-59.5 25.5q-18 0 -33 -8t-26 -20.5t-17 -29t-6 -34.5t6 -34t17 -29t26 -20.5t33 -7.5zM484 205q-7 17 -23.5 29t-39.5 12
q-26 0 -43.5 -12t-26.5 -29h133z" />
    <glyph glyph-name="ccedilla" unicode="&#xe7;" horiz-adv-x="311" 
d="M146 -3q-27 6 -51 20t-41.5 34.5t-27.5 46t-10 54.5q0 33 13 61.5t35 50.5t51 34.5t62 12.5q34 0 64 -13.5t56 -35.5l-48 -48q-15 11 -32 20.5t-39 9.5q-18 0 -33 -8t-26.5 -20.5t-18 -29t-6.5 -34.5t6 -34t17 -29t26 -20.5t33 -7.5q20 0 40 10.5t35 22.5l48 -48
q-20 -22 -52 -37t-69 -15q-17 0 -32 3zM146 -3l122 -92l-41 -56l-123 92z" />
    <glyph glyph-name="egrave" unicode="&#xe8;" horiz-adv-x="344" 
d="M315 62q-24 -28 -59.5 -48t-77.5 -20q-33 0 -62 12.5t-51 34t-35 50t-13 61.5t13 62t34.5 50.5t51 34.5t62.5 13t60 -14t46.5 -37.5t31 -55t11.5 -66.5h-230q3 -32 26 -55t55 -23q28 0 51.5 17t37.5 32zM246 199q-5 17 -22 32.5t-46 15.5q-31 0 -50 -15t-27 -33h145z
M147 517l123 -92l-43 -56l-122 92z" />
    <glyph glyph-name="eacute" unicode="&#xe9;" horiz-adv-x="344" 
d="M315 62q-24 -28 -59.5 -48t-77.5 -20q-33 0 -62 12.5t-51 34t-35 50t-13 61.5t13 62t34.5 50.5t51 34.5t62.5 13t60 -14t46.5 -37.5t31 -55t11.5 -66.5h-230q3 -32 26 -55t55 -23q28 0 51.5 17t37.5 32zM246 199q-5 17 -22 32.5t-46 15.5q-31 0 -50 -15t-27 -33h145z
M111 426l122 92l42 -56l-122 -92z" />
    <glyph glyph-name="ecircumflex" unicode="&#xea;" horiz-adv-x="344" 
d="M315 62q-24 -28 -59.5 -48t-77.5 -20q-33 0 -62 12.5t-51 34t-35 50t-13 61.5t13 62t34.5 50.5t51 34.5t62.5 13t60 -14t46.5 -37.5t31 -55t11.5 -66.5h-230q3 -32 26 -55t55 -23q28 0 51.5 17t37.5 32zM246 199q-5 17 -22 32.5t-46 15.5q-31 0 -50 -15t-27 -33h145z
M78 426l104 80l105 -80l-43 -56l-62 49l-63 -49z" />
    <glyph glyph-name="edieresis" unicode="&#xeb;" horiz-adv-x="344" 
d="M315 62q-24 -28 -59.5 -48t-77.5 -20q-33 0 -62 12.5t-51 34t-35 50t-13 61.5t13 62t34.5 50.5t51 34.5t62.5 13t60 -14t46.5 -37.5t31 -55t11.5 -66.5h-230q3 -32 26 -55t55 -23q28 0 51.5 17t37.5 32zM246 199q-5 17 -22 32.5t-46 15.5q-31 0 -50 -15t-27 -33h145z
M296 418q0 -22 -15.5 -35.5t-35.5 -13.5t-34.5 15t-14.5 34q0 20 14.5 35.5t34.5 15.5t35.5 -15.5t15.5 -35.5zM172 418q0 -22 -15.5 -35.5t-35.5 -13.5q-21 0 -35 15t-14 34q0 20 14.5 35.5t34.5 15.5t35.5 -15.5t15.5 -35.5z" />
    <glyph glyph-name="igrave" unicode="&#xec;" horiz-adv-x="148" 
d="M43 236h-25v68h102v-304h-77v236zM40 518l123 -92l-43 -56l-122 92z" />
    <glyph glyph-name="iacute" unicode="&#xed;" horiz-adv-x="148" 
d="M43 236h-25v68h102v-304h-77v236zM-6 426l122 92l42 -56l-122 -92z" />
    <glyph glyph-name="icircumflex" unicode="&#xee;" horiz-adv-x="146" 
d="M43 236h-25v68h102v-304h-77v236zM-32 426l75 80l134 -80l-43 -56l-62 49l-63 -49z" />
    <glyph glyph-name="idieresis" unicode="&#xef;" horiz-adv-x="148" 
d="M43 236h-25v68h102v-304h-77v236zM189 419q0 -22 -15.5 -35.5t-35.5 -13.5t-34.5 15t-14.5 34q0 20 14.5 35.5t34.5 15.5t35.5 -15.5t15.5 -35.5zM65 419q0 -22 -15.5 -35.5t-35.5 -13.5q-21 0 -35 15t-14 34q0 20 14.5 35.5t34.5 15.5t35.5 -15.5t15.5 -35.5z" />
    <glyph glyph-name="eth" unicode="&#xf0;" horiz-adv-x="353" 
d="M51 409h53l-26 35l61 36l55 -71h93v-70h-43q10 -16 25.5 -37t30.5 -45.5t26 -51t11 -53.5q0 -33 -12.5 -61.5t-34.5 -50t-51 -34t-62 -12.5q-32 0 -61 12.5t-51 34t-35 50t-13 61.5t12 61t33 49t50.5 33.5t64.5 12.5l-23 31h-103v70zM177 61q18 0 33 7.5t26 20.5t17.5 29
t6.5 34q0 40 -23 66t-60 26q-19 0 -34.5 -8t-26 -20.5t-16 -29t-5.5 -34.5t6 -34t16.5 -29t25.5 -20.5t34 -7.5z" />
    <glyph glyph-name="ntilde" unicode="&#xf1;" horiz-adv-x="348" 
d="M36 304h73l-1 -34q4 6 13 13t20 13.5t23.5 10.5t23.5 4q70 0 96.5 -42t26.5 -117v-152h-76v152q0 16 -1.5 32.5t-6.5 30t-14.5 21.5t-25.5 8q-35 0 -55 -26.5t-20 -66.5v-151h-76v304zM44 396q3 6 10.5 19t19 25.5t26.5 22t33 9.5q12 0 20 -2t15.5 -6t17 -10t25.5 -13
q1 -1 4 -1q6 0 11 5.5t9 12.5l9 18l66 -33q-5 -9 -13.5 -22t-20 -24.5t-25.5 -19.5t-29 -8q-8 0 -19.5 5t-24.5 11.5t-24.5 11.5t-18.5 5q-4 0 -7.5 -6t-7.5 -13q-4 -9 -9 -19z" />
    <glyph glyph-name="ograve" unicode="&#xf2;" horiz-adv-x="370" 
d="M25 152q0 33 12.5 61.5t34.5 50.5t51 34.5t62 12.5t62 -12.5t50.5 -34.5t34.5 -50.5t13 -61.5t-13 -61.5t-34.5 -50t-50.5 -34t-62 -12.5t-62 12.5t-51 34t-34.5 50t-12.5 61.5zM185 61q18 0 33 7.5t26 20.5t17 29t6 34t-6 34.5t-17 29t-26 20.5t-33 8t-33 -8t-26 -20.5
t-17 -29t-6 -34.5t6 -34t17 -29t26 -20.5t33 -7.5zM146 517l123 -92l-43 -56l-122 92z" />
    <glyph glyph-name="oacute" unicode="&#xf3;" horiz-adv-x="370" 
d="M25 152q0 33 12.5 61.5t34.5 50.5t51 34.5t62 12.5t62 -12.5t50.5 -34.5t34.5 -50.5t13 -61.5t-13 -61.5t-34.5 -50t-50.5 -34t-62 -12.5t-62 12.5t-51 34t-34.5 50t-12.5 61.5zM185 61q18 0 33 7.5t26 20.5t17 29t6 34t-6 34.5t-17 29t-26 20.5t-33 8t-33 -8t-26 -20.5
t-17 -29t-6 -34.5t6 -34t17 -29t26 -20.5t33 -7.5zM100 426l122 92l42 -56l-122 -92z" />
    <glyph glyph-name="ocircumflex" unicode="&#xf4;" horiz-adv-x="370" 
d="M25 152q0 33 12.5 61.5t34.5 50.5t51 34.5t62 12.5t62 -12.5t50.5 -34.5t34.5 -50.5t13 -61.5t-13 -61.5t-34.5 -50t-50.5 -34t-62 -12.5t-62 12.5t-51 34t-34.5 50t-12.5 61.5zM185 61q18 0 33 7.5t26 20.5t17 29t6 34t-6 34.5t-17 29t-26 20.5t-33 8t-33 -8t-26 -20.5
t-17 -29t-6 -34.5t6 -34t17 -29t26 -20.5t33 -7.5zM84 427l104 80l105 -80l-43 -56l-62 49l-63 -49z" />
    <glyph glyph-name="otilde" unicode="&#xf5;" horiz-adv-x="370" 
d="M25 152q0 33 12.5 61.5t34.5 50.5t51 34.5t62 12.5t62 -12.5t50.5 -34.5t34.5 -50.5t13 -61.5t-13 -61.5t-34.5 -50t-50.5 -34t-62 -12.5t-62 12.5t-51 34t-34.5 50t-12.5 61.5zM185 61q18 0 33 7.5t26 20.5t17 29t6 34t-6 34.5t-17 29t-26 20.5t-33 8t-33 -8t-26 -20.5
t-17 -29t-6 -34.5t6 -34t17 -29t26 -20.5t33 -7.5zM48 396q3 6 10.5 19t19 25.5t26.5 22t33 9.5q12 0 20 -2t15.5 -6t17 -10t25.5 -13q1 -1 4 -1q6 0 11 5.5t9 12.5l9 18l66 -33q-5 -9 -13.5 -22t-20 -24.5t-25.5 -19.5t-29 -8q-8 0 -19.5 5t-24.5 11.5t-24.5 11.5t-18.5 5
q-4 0 -7.5 -6t-7.5 -13q-4 -9 -9 -19z" />
    <glyph glyph-name="odieresis" unicode="&#xf6;" horiz-adv-x="370" 
d="M25 152q0 33 12.5 61.5t34.5 50.5t51 34.5t62 12.5t62 -12.5t50.5 -34.5t34.5 -50.5t13 -61.5t-13 -61.5t-34.5 -50t-50.5 -34t-62 -12.5t-62 12.5t-51 34t-34.5 50t-12.5 61.5zM185 61q18 0 33 7.5t26 20.5t17 29t6 34t-6 34.5t-17 29t-26 20.5t-33 8t-33 -8t-26 -20.5
t-17 -29t-6 -34.5t6 -34t17 -29t26 -20.5t33 -7.5zM302 418q0 -22 -15.5 -35.5t-35.5 -13.5t-34.5 15t-14.5 34q0 20 14.5 35.5t34.5 15.5t35.5 -15.5t15.5 -35.5zM178 418q0 -22 -15.5 -35.5t-35.5 -13.5q-21 0 -35 15t-14 34q0 20 14.5 35.5t34.5 15.5t35.5 -15.5
t15.5 -35.5z" />
    <glyph glyph-name="divide" unicode="&#xf7;" horiz-adv-x="372" 
d="M137 320q0 22 14 36t35 14q22 0 35.5 -14.5t13.5 -35.5q0 -20 -14.5 -34t-35.5 -14q-20 0 -34 13.5t-14 34.5zM28 257h314v-72h-314v72zM137 121q0 20 14 34.5t35 14.5q22 0 35.5 -14.5t13.5 -34.5t-14 -34t-34 -14q-21 0 -35.5 12.5t-14.5 35.5z" />
    <glyph glyph-name="oslash" unicode="&#xf8;" horiz-adv-x="356" 
d="M51 43q-15 20 -24.5 44.5t-9.5 52.5q0 33 12.5 61.5t34.5 50t51 34t62 12.5q49 0 85 -23q9 11 20 22.5t19 19.5l41 -39l-38 -41q15 -20 24.5 -44.5t9.5 -52.5q0 -33 -13 -61.5t-35 -50.5t-51 -34.5t-62 -12.5q-23 0 -44.5 7t-39.5 19l-42 -47l-41 38zM214 222
q-18 10 -37 10q-17 0 -32 -8t-26 -20.5t-17 -29t-6 -34.5q0 -11 2 -20t5 -19zM140 59q17 -10 37 -10q18 0 33 7.5t26 20t17 29t6 34.5q0 21 -7 39z" />
    <glyph glyph-name="ugrave" unicode="&#xf9;" horiz-adv-x="340" 
d="M32 304h76v-151q0 -18 3.5 -34.5t10.5 -29t18.5 -20.5t28.5 -8t28.5 7.5t19 20.5t11 29t3.5 34v152h77v-151q0 -33 -9 -62t-26 -50.5t-43.5 -34t-60.5 -12.5t-59.5 12.5t-43 33.5t-26 50t-8.5 62v152zM136 518l123 -92l-43 -56l-122 92z" />
    <glyph glyph-name="uacute" unicode="&#xfa;" horiz-adv-x="340" 
d="M32 304h76v-151q0 -18 3.5 -34.5t10.5 -29t18.5 -20.5t28.5 -8t28.5 7.5t19 20.5t11 29t3.5 34v152h77v-151q0 -33 -9 -62t-26 -50.5t-43.5 -34t-60.5 -12.5t-59.5 12.5t-43 33.5t-26 50t-8.5 62v152zM104 426l122 92l42 -56l-122 -92z" />
    <glyph glyph-name="ucircumflex" unicode="&#xfb;" horiz-adv-x="340" 
d="M32 304h76v-151q0 -18 3.5 -34.5t10.5 -29t18.5 -20.5t28.5 -8t28.5 7.5t19 20.5t11 29t3.5 34v152h77v-151q0 -33 -9 -62t-26 -50.5t-43.5 -34t-60.5 -12.5t-59.5 12.5t-43 33.5t-26 50t-8.5 62v152zM65 424l104 80l105 -80l-43 -56l-62 49l-63 -49z" />
    <glyph glyph-name="udieresis" unicode="&#xfc;" horiz-adv-x="340" 
d="M32 304h76v-151q0 -18 3.5 -34.5t10.5 -29t18.5 -20.5t28.5 -8t28.5 7.5t19 20.5t11 29t3.5 34v152h77v-151q0 -33 -9 -62t-26 -50.5t-43.5 -34t-60.5 -12.5t-59.5 12.5t-43 33.5t-26 50t-8.5 62v152zM282 419q0 -22 -15.5 -35.5t-35.5 -13.5t-34.5 15t-14.5 34
q0 20 14.5 35.5t34.5 15.5t35.5 -15.5t15.5 -35.5zM158 419q0 -22 -15.5 -35.5t-35.5 -13.5q-21 0 -35 15t-14 34q0 20 14.5 35.5t34.5 15.5t35.5 -15.5t15.5 -35.5z" />
    <glyph glyph-name="yacute" unicode="&#xfd;" horiz-adv-x="341" 
d="M15 -63q36 9 55 25.5t30 38.5q7 13 11.5 23t8.5 16q4 7 7 12q-28 54 -59.5 114t-57.5 113l70 35l89 -178l91 178l69 -35q-38 -75 -71 -138l-28 -54t-25.5 -50t-20.5 -40t-12 -24q-18 -35 -48 -62.5t-75 -41.5zM116 440l122 92l42 -56l-122 -92z" />
    <glyph glyph-name="thorn" unicode="&#xfe;" horiz-adv-x="360" 
d="M34 493h79l1 -221q15 19 38 29t45 10q33 0 60 -13t45.5 -35t28.5 -50.5t10 -59.5q0 -33 -9.5 -62t-28.5 -51.5t-46 -35.5t-62 -13q-23 0 -44 8t-38 30v-166h-79v630zM185 64q37 0 57 26t20 62q0 35 -20 60t-57 25q-35 0 -55 -26t-20 -59q0 -35 19.5 -61.5t55.5 -26.5z
" />
    <glyph glyph-name="ydieresis" unicode="&#xff;" horiz-adv-x="340" 
d="M15 -63q36 9 55 25.5t30 38.5q7 13 11.5 23t8.5 16q4 7 7 12q-28 54 -59.5 114t-57.5 113l70 35l89 -178l91 178l69 -35q-38 -75 -71 -138l-28 -54t-25.5 -50t-20.5 -40t-12 -24q-18 -35 -48 -62.5t-75 -41.5zM291 443q0 -22 -15.5 -35.5t-35.5 -13.5t-34.5 15t-14.5 34
q0 20 14.5 35.5t34.5 15.5t35.5 -15.5t15.5 -35.5zM167 443q0 -22 -15.5 -35.5t-35.5 -13.5q-21 0 -35 15t-14 34q0 20 14.5 35.5t34.5 15.5t35.5 -15.5t15.5 -35.5z" />
    <glyph glyph-name="Amacron" unicode="&#x100;" horiz-adv-x="437" 
d="M194 488l46 17l199 -485l-77 -31l-60 150h-166l-60 -150l-77 31zM274 211l-55 133l-54 -133h109zM125 614h200v-71h-200v71z" />
    <glyph glyph-name="amacron" unicode="&#x101;" 
d="M258 25q-14 -12 -37.5 -21.5t-44.5 -9.5q-33 0 -61.5 12.5t-50.5 34t-34.5 50t-12.5 61.5t12.5 61.5t34.5 50.5t50.5 34.5t61.5 12.5q22 0 46.5 -10t39.5 -24q0 3 -0.5 7.5t-0.5 9.5q-1 5 -1 10h72v-304h-75zM176 61q35 0 59 23t24 68q0 41 -24 66.5t-59 25.5
q-18 0 -33 -8t-26 -20.5t-17 -29t-6 -34.5t6 -34t17 -29t26 -20.5t33 -7.5zM103 439h200v-71h-200v71z" />
    <glyph glyph-name="Abreve" unicode="&#x102;" horiz-adv-x="437" 
d="M194 488l46 17l199 -485l-77 -31l-60 150h-166l-60 -150l-77 31zM274 211l-55 133l-54 -133h109zM171 674q10 -23 23 -36t34 -13t34 13t23 36h72q-11 -57 -47 -87t-82 -30q-23 0 -43.5 8.5t-37.5 24t-29.5 37t-17.5 47.5h71z" />
    <glyph glyph-name="abreve" unicode="&#x103;" horiz-adv-x="370" 
d="M258 25q-14 -12 -37.5 -21.5t-44.5 -9.5q-33 0 -61.5 12.5t-50.5 34t-34.5 50t-12.5 61.5t12.5 61.5t34.5 50.5t50.5 34.5t61.5 12.5q22 0 46.5 -10t39.5 -24q0 3 -0.5 7.5t-0.5 9.5q-1 5 -1 10h72v-304h-75zM176 61q35 0 59 23t24 68q0 41 -24 66.5t-59 25.5
q-18 0 -33 -8t-26 -20.5t-17 -29t-6 -34.5t6 -34t17 -29t26 -20.5t33 -7.5zM147 514q10 -23 23 -36t34 -13t34 13t23 36h72q-11 -57 -47 -87t-82 -30q-23 0 -43.5 8.5t-37.5 24t-29.5 37t-17.5 47.5h71z" />
    <glyph glyph-name="Aogonek" unicode="&#x104;" horiz-adv-x="445" 
d="M489 -91q-17 -20 -33.5 -25.5t-32.5 -5.5q-15 0 -29 5.5t-25 15t-18 23t-7 29.5q0 23 16 44l-58 144h-166l-60 -150l-77 31l195 468l46 17l199 -485l-4 -2q-16 -17 -22.5 -31.5t-6.5 -25.5q0 -10 6 -13.5t11 -3.5q4 0 10.5 2.5t13.5 10.5zM274 211l-55 133l-54 -133h109z
" />
    <glyph glyph-name="aogonek" unicode="&#x105;" horiz-adv-x="373" 
d="M384 -110q-17 -20 -33.5 -25.5t-32.5 -5.5q-15 0 -29 5.5t-25 15t-18 23t-7 29.5q0 23 13.5 40.5t33.5 27.5h-29l1 25q-14 -12 -37.5 -21.5t-44.5 -9.5q-33 0 -61.5 12.5t-50.5 34t-34.5 50t-12.5 61.5t12.5 61.5t34.5 50.5t50.5 34.5t61.5 12.5q22 0 46.5 -10t39.5 -24
q0 3 -0.5 7.5t-0.5 9.5q-1 5 -1 10h72l-1 -304q-17 -18 -23.5 -32.5t-6.5 -25.5q0 -10 6 -13.5t11 -3.5q4 0 10.5 2.5t13.5 10.5zM176 61q35 0 59 23t24 68q0 41 -24 66.5t-59 25.5q-18 0 -33 -8t-26 -20.5t-17 -29t-6 -34.5t6 -34t17 -29t26 -20.5t33 -7.5z" />
    <glyph glyph-name="Cacute" unicode="&#x106;" horiz-adv-x="423" 
d="M420 45q-31 -24 -70 -37.5t-76 -13.5q-53 0 -99.5 19.5t-81.5 54t-55.5 80.5t-20.5 99t20.5 99t55.5 80.5t81.5 54.5t99.5 20q35 0 72.5 -11.5t71.5 -33.5l-55 -54q-46 26 -89 26q-36 0 -67.5 -14.5t-55 -39.5t-37 -57.5t-13.5 -68.5t13.5 -69t37 -58t55 -40t67.5 -15
q44 0 91 33zM189 582l122 92l42 -56l-122 -92z" />
    <glyph glyph-name="cacute" unicode="&#x107;" horiz-adv-x="311" 
d="M299 46q-20 -22 -52 -37t-69 -15q-33 0 -62.5 12.5t-51.5 34t-35 50t-13 61.5t13 61.5t35 50.5t51 34.5t62 12.5q34 0 64 -13.5t56 -35.5l-48 -48q-15 11 -32 20.5t-39 9.5q-18 0 -33 -8t-26.5 -20.5t-18 -29t-6.5 -34.5t6 -34t17 -29t26 -20.5t33 -7.5q20 0 40 10.5
t35 22.5zM87 426l122 92l42 -56l-122 -92z" />
    <glyph glyph-name="Ccircumflex" unicode="&#x108;" horiz-adv-x="425" 
d="M420 45q-31 -24 -70 -37.5t-76 -13.5q-53 0 -99.5 19.5t-81.5 54t-55.5 80.5t-20.5 99t20.5 99t55.5 80.5t81.5 54.5t99.5 20q35 0 72.5 -11.5t71.5 -33.5l-55 -54q-46 26 -89 26q-36 0 -67.5 -14.5t-55 -39.5t-37 -57.5t-13.5 -68.5t13.5 -69t37 -58t55 -40t67.5 -15
q44 0 91 33zM171 595l104 80l105 -80l-43 -56l-62 49l-63 -49z" />
    <glyph glyph-name="ccircumflex" unicode="&#x109;" horiz-adv-x="311" 
d="M299 46q-20 -22 -52 -37t-69 -15q-33 0 -62.5 12.5t-51.5 34t-35 50t-13 61.5t13 61.5t35 50.5t51 34.5t62 12.5q34 0 64 -13.5t56 -35.5l-48 -48q-15 11 -32 20.5t-39 9.5q-18 0 -33 -8t-26.5 -20.5t-18 -29t-6.5 -34.5t6 -34t17 -29t26 -20.5t33 -7.5q20 0 40 10.5
t35 22.5zM65 425l104 80l105 -80l-43 -56l-62 49l-63 -49z" />
    <glyph glyph-name="Cdotaccent" unicode="&#x10a;" horiz-adv-x="423" 
d="M420 45q-31 -24 -70 -37.5t-76 -13.5q-53 0 -99.5 19.5t-81.5 54t-55.5 80.5t-20.5 99t20.5 99t55.5 80.5t81.5 54.5t99.5 20q35 0 72.5 -11.5t71.5 -33.5l-55 -54q-46 26 -89 26q-36 0 -67.5 -14.5t-55 -39.5t-37 -57.5t-13.5 -68.5t13.5 -69t37 -58t55 -40t67.5 -15
q44 0 91 33zM221 623q0 22 15 36.5t37 14.5q20 0 36 -15.5t16 -35.5q0 -22 -15 -37t-37 -15t-37 15t-15 37z" />
    <glyph glyph-name="cdotaccent" unicode="&#x10b;" horiz-adv-x="311" 
d="M299 46q-20 -22 -52 -37t-69 -15q-33 0 -62.5 12.5t-51.5 34t-35 50t-13 61.5t13 61.5t35 50.5t51 34.5t62 12.5q34 0 64 -13.5t56 -35.5l-48 -48q-15 11 -32 20.5t-39 9.5q-18 0 -33 -8t-26.5 -20.5t-18 -29t-6.5 -34.5t6 -34t17 -29t26 -20.5t33 -7.5q20 0 40 10.5
t35 22.5zM125 422q0 22 15 36.5t37 14.5q20 0 36 -15.5t16 -35.5q0 -22 -15 -37t-37 -15t-37 15t-15 37z" />
    <glyph glyph-name="Ccaron" unicode="&#x10c;" horiz-adv-x="425" 
d="M420 45q-31 -24 -70 -37.5t-76 -13.5q-53 0 -99.5 19.5t-81.5 54t-55.5 80.5t-20.5 99t20.5 99t55.5 80.5t81.5 54.5t99.5 20q35 0 72.5 -11.5t71.5 -33.5l-55 -54q-46 26 -89 26q-36 0 -67.5 -14.5t-55 -39.5t-37 -57.5t-13.5 -68.5t13.5 -69t37 -58t55 -40t67.5 -15
q44 0 91 33zM207 674l63 -49l62 49l42 -57l-104 -79l-105 79z" />
    <glyph glyph-name="ccaron" unicode="&#x10d;" horiz-adv-x="311" 
d="M299 46q-20 -22 -52 -37t-69 -15q-33 0 -62.5 12.5t-51.5 34t-35 50t-13 61.5t13 61.5t35 50.5t51 34.5t62 12.5q34 0 64 -13.5t56 -35.5l-48 -48q-15 11 -32 20.5t-39 9.5q-18 0 -33 -8t-26.5 -20.5t-18 -29t-6.5 -34.5t6 -34t17 -29t26 -20.5t33 -7.5q20 0 40 10.5
t35 22.5zM110 505l63 -49l62 49l42 -57l-104 -79l-105 79z" />
    <glyph glyph-name="Dcaron" unicode="&#x10e;" horiz-adv-x="430" 
d="M38 494l114 1q57 0 103 -17.5t79 -49.5t50.5 -76.5t17.5 -96.5q0 -56 -20.5 -103t-55.5 -81t-81.5 -52.5t-99.5 -18.5h-107v494zM145 72q37 0 68.5 14t55 39t36.5 58.5t13 71.5q0 36 -11.5 66.5t-33.5 53t-52.5 35t-68.5 12.5l-32 -1v-349h25zM113 675l63 -49l62 49
l42 -57l-104 -79l-105 79z" />
    <glyph glyph-name="dcaron" unicode="&#x10f;" horiz-adv-x="390" 
d="M260 34q-14 -18 -38 -29t-46 -11q-33 0 -62.5 12.5t-51 33.5t-34.5 50t-13 62t12 61.5t33 50t49 34t60 12.5q29 0 51 -8.5t36 -22.5v240l76 -9v-510h-73zM176 61q35 0 58.5 24t23.5 67q0 41 -23.5 66.5t-58.5 25.5q-19 0 -34 -8t-25.5 -20.5t-16.5 -29t-6 -34.5t6 -34
t17 -29t26 -20.5t33 -7.5zM375 435q-10 6 -16 15.5t-6 22.5q0 18 14 30t31 12q19 0 31.5 -11.5t12.5 -34.5q0 -12 -7 -31t-15 -38q-10 -22 -21 -46l-52 20z" />
    <glyph glyph-name="Dcroat" unicode="&#x110;" horiz-adv-x="476" 
d="M81 232h-63v72h63v190h114q57 0 103.5 -17.5t79.5 -49.5t51 -76t18 -96q0 -56 -20.5 -103t-56 -81t-82.5 -52.5t-100 -18.5h-107v232zM188 72q36 0 68 14t55 38.5t36.5 58t13.5 71.5q0 36 -11.5 66.5t-33 53t-52.5 35t-69 12.5h-31v-117h98v-72h-98v-160h24z" />
    <glyph glyph-name="dcroat" unicode="&#x111;" horiz-adv-x="367" 
d="M180 441h76v78l76 -9v-69h35v-72h-35v-369h-73l1 34q-14 -18 -38 -29t-46 -11q-33 0 -62.5 12.5t-51 33.5t-34.5 50t-13 62t12 61.5t33 50t49 34t60 12.5q29 0 51 -8.5t36 -22.5v90h-76v72zM176 61q35 0 58.5 24t23.5 67q0 41 -23.5 66.5t-58.5 25.5q-19 0 -34 -8
t-25.5 -20.5t-16.5 -29t-6 -34.5t6 -34t17 -29t26 -20.5t33 -7.5z" />
    <glyph glyph-name="Emacron" unicode="&#x112;" horiz-adv-x="342" 
d="M36 495h272v-74h-188v-117h175v-72h-175v-160h189v-72h-273v495zM73 615h200v-71h-200v71z" />
    <glyph glyph-name="emacron" unicode="&#x113;" horiz-adv-x="344" 
d="M315 62q-24 -28 -59.5 -48t-77.5 -20q-33 0 -62 12.5t-51 34t-35 50t-13 61.5t13 62t34.5 50.5t51 34.5t62.5 13t60 -14t46.5 -37.5t31 -55t11.5 -66.5h-230q3 -32 26 -55t55 -23q28 0 51.5 17t37.5 32zM246 199q-5 17 -22 32.5t-46 15.5q-31 0 -50 -15t-27 -33h145z
M82 440h200v-71h-200v71z" />
    <glyph glyph-name="Ebreve" unicode="&#x114;" horiz-adv-x="350" 
d="M36 495h272v-74h-188v-117h175v-72h-175v-160h189v-72h-273v495zM117 674q10 -23 23 -36t34 -13t34 13t23 36h72q-11 -57 -47 -87t-82 -30q-23 0 -43.5 8.5t-37.5 24t-29.5 37t-17.5 47.5h71z" />
    <glyph glyph-name="ebreve" unicode="&#x115;" horiz-adv-x="344" 
d="M315 62q-24 -28 -59.5 -48t-77.5 -20q-33 0 -62 12.5t-51 34t-35 50t-13 61.5t13 62t34.5 50.5t51 34.5t62.5 13t60 -14t46.5 -37.5t31 -55t11.5 -66.5h-230q3 -32 26 -55t55 -23q28 0 51.5 17t37.5 32zM246 199q-5 17 -22 32.5t-46 15.5q-31 0 -50 -15t-27 -33h145z
M126 487q10 -23 23 -36t34 -13t34 13t23 36h72q-11 -57 -47 -87t-82 -30q-23 0 -43.5 8.5t-37.5 24t-29.5 37t-17.5 47.5h71z" />
    <glyph glyph-name="Edotaccent" unicode="&#x116;" horiz-adv-x="342" 
d="M36 495h272v-74h-188v-117h175v-72h-175v-160h189v-72h-273v495zM125 598q0 22 15 36.5t37 14.5q20 0 36 -15.5t16 -35.5q0 -22 -15 -37t-37 -15t-37 15t-15 37z" />
    <glyph glyph-name="edotaccent" unicode="&#x117;" horiz-adv-x="344" 
d="M315 62q-24 -28 -59.5 -48t-77.5 -20q-33 0 -62 12.5t-51 34t-35 50t-13 61.5t13 62t34.5 50.5t51 34.5t62.5 13t60 -14t46.5 -37.5t31 -55t11.5 -66.5h-230q3 -32 26 -55t55 -23q28 0 51.5 17t37.5 32zM246 199q-5 17 -22 32.5t-46 15.5q-31 0 -50 -15t-27 -33h145z
M133 422q0 22 15 36.5t37 14.5q20 0 36 -15.5t16 -35.5q0 -22 -15 -37t-37 -15t-37 15t-15 37z" />
    <glyph glyph-name="Eogonek" unicode="&#x118;" horiz-adv-x="343" 
d="M360 -112q-17 -20 -33.5 -25.5t-32.5 -5.5q-15 0 -29 5.5t-25 15t-18 23t-7 29.5q0 23 14.5 41.5t37.5 28.5h-231v495h272v-74h-188v-117h175v-72h-175v-160h189v-72q-17 -19 -24.5 -34t-7.5 -26q0 -10 6 -13.5t11 -3.5q4 0 10.5 2.5t13.5 10.5z" />
    <glyph glyph-name="eogonek" unicode="&#x119;" horiz-adv-x="344" 
d="M255 -112q-17 -20 -33.5 -25.5t-32.5 -5.5q-15 0 -29 5.5t-25 15t-18 23t-7 29.5q0 21 12 38t31 28q-29 4 -53.5 18t-43 35t-29 47t-10.5 56q0 33 13 62t34.5 50.5t51 34.5t62.5 13t60 -14t46.5 -37.5t31 -55t11.5 -66.5h-230q3 -32 26 -55t55 -23q28 0 51.5 17t37.5 32
l48 -48q-21 -24 -50.5 -42.5t-64.5 -23.5q-15 -17 -21.5 -31.5t-6.5 -24.5t6 -13.5t11 -3.5q4 0 10.5 2.5t13.5 10.5zM246 199q-5 17 -22 32.5t-46 15.5q-31 0 -50 -15t-27 -33h145z" />
    <glyph glyph-name="Ecaron" unicode="&#x11a;" horiz-adv-x="342" 
d="M36 495h272v-74h-188v-117h175v-72h-175v-160h189v-72h-273v495zM113 674l63 -49l62 49l42 -57l-104 -79l-105 79z" />
    <glyph glyph-name="ecaron" unicode="&#x11b;" horiz-adv-x="344" 
d="M315 62q-24 -28 -59.5 -48t-77.5 -20q-33 0 -62 12.5t-51 34t-35 50t-13 61.5t13 62t34.5 50.5t51 34.5t62.5 13t60 -14t46.5 -37.5t31 -55t11.5 -66.5h-230q3 -32 26 -55t55 -23q28 0 51.5 17t37.5 32zM246 199q-5 17 -22 32.5t-46 15.5q-31 0 -50 -15t-27 -33h145z
M118 506l63 -49l62 49l42 -57l-104 -79l-105 79z" />
    <glyph glyph-name="Gcircumflex" unicode="&#x11c;" horiz-adv-x="449" 
d="M330 197h-64v72h147v-229q-32 -24 -67 -35t-72 -11q-53 0 -99.5 19.5t-81.5 54t-55.5 80.5t-20.5 99t20.5 99t55.5 80.5t81.5 54.5t99.5 20q35 0 72.5 -11.5t71.5 -33.5l-55 -54q-46 26 -89 26q-36 0 -67.5 -14.5t-55 -39.5t-37 -57.5t-13.5 -68.5t13.5 -69t37 -58
t55 -40t67.5 -15q16 0 29 2.5t27 9.5v119zM169 594l104 80l105 -80l-43 -56l-62 49l-63 -49z" />
    <glyph glyph-name="gcircumflex" unicode="&#x11d;" 
d="M99 -39q16 -12 36 -22.5t40 -10.5q35 0 58.5 25.5t23.5 73.5q-14 -14 -34 -22.5t-47 -8.5q-33 0 -62.5 12.5t-51 33.5t-34.5 49.5t-13 61.5t13 62t34.5 50.5t51 34t62.5 12.5q11 0 23.5 -3t24.5 -8.5t21.5 -12.5t15.5 -16l-1 32h72v-284q0 -33 -12.5 -62t-34 -50.5
t-50 -34t-61.5 -12.5q-35 0 -66.5 14t-57.5 37zM176 62q35 0 58.5 25.5t23.5 65.5q0 44 -23.5 68t-58.5 24q-18 0 -33 -7.5t-26 -20.5t-17 -29.5t-6 -34.5t6 -34t17 -29t26 -20.5t33 -7.5zM87 426l104 80l105 -80l-43 -56l-62 49l-63 -49z" />
    <glyph glyph-name="Gbreve" unicode="&#x11e;" horiz-adv-x="449" 
d="M330 197h-64v72h147v-229q-32 -24 -67 -35t-72 -11q-53 0 -99.5 19.5t-81.5 54t-55.5 80.5t-20.5 99t20.5 99t55.5 80.5t81.5 54.5t99.5 20q35 0 72.5 -11.5t71.5 -33.5l-55 -54q-46 26 -89 26q-36 0 -67.5 -14.5t-55 -39.5t-37 -57.5t-13.5 -68.5t13.5 -69t37 -58
t55 -40t67.5 -15q16 0 29 2.5t27 9.5v119zM210 674q10 -23 23 -36t34 -13t34 13t23 36h72q-11 -57 -47 -87t-82 -30q-23 0 -43.5 8.5t-37.5 24t-29.5 37t-17.5 47.5h71z" />
    <glyph glyph-name="gbreve" unicode="&#x11f;" 
d="M99 -39q16 -12 36 -22.5t40 -10.5q35 0 58.5 25.5t23.5 73.5q-14 -14 -34 -22.5t-47 -8.5q-33 0 -62.5 12.5t-51 33.5t-34.5 49.5t-13 61.5t13 62t34.5 50.5t51 34t62.5 12.5q11 0 23.5 -3t24.5 -8.5t21.5 -12.5t15.5 -16l-1 32h72v-284q0 -33 -12.5 -62t-34 -50.5
t-50 -34t-61.5 -12.5q-35 0 -66.5 14t-57.5 37zM176 62q35 0 58.5 25.5t23.5 65.5q0 44 -23.5 68t-58.5 24q-18 0 -33 -7.5t-26 -20.5t-17 -29.5t-6 -34.5t6 -34t17 -29t26 -20.5t33 -7.5zM134 487q10 -23 23 -36t34 -13t34 13t23 36h72q-11 -57 -47 -87t-82 -30
q-23 0 -43.5 8.5t-37.5 24t-29.5 37t-17.5 47.5h71z" />
    <glyph glyph-name="Gdotaccent" unicode="&#x120;" horiz-adv-x="451" 
d="M330 197h-64v72h147v-229q-32 -24 -67 -35t-72 -11q-53 0 -99.5 19.5t-81.5 54t-55.5 80.5t-20.5 99t20.5 99t55.5 80.5t81.5 54.5t99.5 20q35 0 72.5 -11.5t71.5 -33.5l-55 -54q-46 26 -89 26q-36 0 -67.5 -14.5t-55 -39.5t-37 -57.5t-13.5 -68.5t13.5 -69t37 -58
t55 -40t67.5 -15q16 0 29 2.5t27 9.5v119zM222 599q0 22 15 36.5t37 14.5q20 0 36 -15.5t16 -35.5q0 -22 -15 -37t-37 -15t-37 15t-15 37z" />
    <glyph glyph-name="gdotaccent" unicode="&#x121;" 
d="M99 -39q16 -12 36 -22.5t40 -10.5q35 0 58.5 25.5t23.5 73.5q-14 -14 -34 -22.5t-47 -8.5q-33 0 -62.5 12.5t-51 33.5t-34.5 49.5t-13 61.5t13 62t34.5 50.5t51 34t62.5 12.5q11 0 23.5 -3t24.5 -8.5t21.5 -12.5t15.5 -16l-1 32h72v-284q0 -33 -12.5 -62t-34 -50.5
t-50 -34t-61.5 -12.5q-35 0 -66.5 14t-57.5 37zM176 62q35 0 58.5 25.5t23.5 65.5q0 44 -23.5 68t-58.5 24q-18 0 -33 -7.5t-26 -20.5t-17 -29.5t-6 -34.5t6 -34t17 -29t26 -20.5t33 -7.5zM135 423q0 22 15 36.5t37 14.5q20 0 36 -15.5t16 -35.5q0 -22 -15 -37t-37 -15
t-37 15t-15 37z" />
    <glyph glyph-name="uni0122" unicode="&#x122;" horiz-adv-x="451" 
d="M251 -106q-11 7 -17.5 17.5t-6.5 24.5q0 20 15 33.5t34 13.5q20 0 35 -12.5t15 -38.5q0 -14 -7.5 -35.5t-16.5 -42.5q-11 -25 -24 -51l-58 22zM330 197h-64v72h147v-229q-32 -24 -67 -35t-72 -11q-53 0 -99.5 19.5t-81.5 54t-55.5 80.5t-20.5 99t20.5 99t55.5 80.5
t81.5 54.5t99.5 20q35 0 72.5 -11.5t71.5 -33.5l-55 -54q-46 26 -89 26q-36 0 -67.5 -14.5t-55 -39.5t-37 -57.5t-13.5 -68.5t13.5 -69t37 -58t55 -40t67.5 -15q16 0 29 2.5t27 9.5v119z" />
    <glyph glyph-name="uni0123" unicode="&#x123;" 
d="M99 -39q16 -12 36 -22.5t40 -10.5q35 0 58.5 25.5t23.5 73.5q-14 -14 -34 -22.5t-47 -8.5q-33 0 -62.5 12.5t-51 33.5t-34.5 49.5t-13 61.5t13 62t34.5 50.5t51 34t62.5 12.5q11 0 23.5 -3t24.5 -8.5t21.5 -12.5t15.5 -16l-1 32h72v-284q0 -33 -12.5 -62t-34 -50.5
t-50 -34t-61.5 -12.5q-35 0 -66.5 14t-57.5 37zM176 62q35 0 58.5 25.5t23.5 65.5q0 44 -23.5 68t-58.5 24q-18 0 -33 -7.5t-26 -20.5t-17 -29.5t-6 -34.5t6 -34t17 -29t26 -20.5t33 -7.5zM243 532l-32 -70q11 -6 17.5 -17.5t6.5 -25.5q0 -22 -15.5 -35.5t-35.5 -13.5
q-22 0 -36.5 13t-14.5 39q0 14 7.5 36.5t16.5 43.5q11 25 25 52z" />
    <glyph glyph-name="Hcircumflex" unicode="&#x124;" horiz-adv-x="439" 
d="M43 494h84v-190h186v190h83v-494h-83v232h-186v-232h-84v494zM118 594l104 80l105 -80l-43 -56l-62 49l-63 -49z" />
    <glyph glyph-name="hcircumflex" unicode="&#x125;" horiz-adv-x="342" 
d="M33 510l75 9v-241q12 11 32 21.5t43 10.5q69 0 97 -40t28 -118v-152h-76v151q0 17 -1.5 33.5t-7.5 30t-17 21.5t-30 8q-37 0 -52.5 -26.5t-15.5 -67.5v-150h-75v510zM-33 583l66 80l143 -80l-43 -56l-62 49l-63 -49z" />
    <glyph glyph-name="Hbar" unicode="&#x126;" horiz-adv-x="439" 
d="M3 439h40v55h84v-55h186v55h83v-55h39v-71h-39v-368h-83v232h-186v-232h-84v368h-40v71zM313 304v64h-186v-64h186z" />
    <glyph glyph-name="hbar" unicode="&#x127;" horiz-adv-x="342" 
d="M16 440h17v70l75 9v-79h108v-71h-108v-91q12 11 32 21.5t43 10.5q69 0 97 -40t28 -118v-152h-76v151q0 17 -1.5 33.5t-7.5 30t-17 21.5t-30 8q-37 0 -52.5 -26.5t-15.5 -67.5v-150h-75v369h-17v71z" />
    <glyph glyph-name="Itilde" unicode="&#x128;" horiz-adv-x="163" 
d="M13 72h26v349h-26v73h135v-73h-26v-349h26v-72h-135v72zM-53 583q3 6 10.5 19t19 25.5t26.5 22t33 9.5q12 0 20 -2t15.5 -6t17 -10t25.5 -13q1 -1 4 -1q6 0 11 5.5t9 12.5l9 18l66 -33q-5 -9 -13.5 -22t-20 -24.5t-25.5 -19.5t-29 -8q-8 0 -19.5 5t-24.5 11.5t-24.5 11.5
t-18.5 5q-4 0 -7.5 -6t-7.5 -13q-4 -9 -9 -19z" />
    <glyph glyph-name="itilde" unicode="&#x129;" horiz-adv-x="148" 
d="M43 236h-25v68h102v-304h-77v236zM-46 397q2 5 9 16t17 22t23.5 19.5t28.5 8.5q11 0 17.5 -2t13.5 -5.5t15 -8.5t22 -11q1 -1 4 -1q5 0 9.5 5t8.5 11q4 7 7 16l58 -29q-4 -8 -11.5 -19.5t-17.5 -21.5t-22.5 -17t-25.5 -7q-6 0 -16.5 4.5t-22 10t-21.5 10t-16 4.5
q-3 0 -7 -5.5t-7 -11.5q-4 -7 -7 -16z" />
    <glyph glyph-name="Imacron" unicode="&#x12a;" horiz-adv-x="163" 
d="M13 72h26v349h-26v73h135v-73h-26v-349h26v-72h-135v72zM-18 615h200v-71h-200v71z" />
    <glyph glyph-name="imacron" unicode="&#x12b;" horiz-adv-x="148" 
d="M43 236h-25v68h102v-304h-77v236zM-28 440h200v-71h-200v71z" />
    <glyph glyph-name="Ibreve" unicode="&#x12c;" horiz-adv-x="164" 
d="M13 72h26v349h-26v73h135v-73h-26v-349h26v-72h-135v72zM29 675q9 -21 21 -32.5t31 -11.5t31 11.5t21 32.5h65q-11 -52 -43 -79t-74 -27q-41 0 -73.5 29t-42.5 77h64z" />
    <glyph glyph-name="ibreve" unicode="&#x12d;" horiz-adv-x="148" 
d="M43 236h-25v68h102v-304h-77v236zM24 473q9 -20 20.5 -31.5t29.5 -11.5q19 0 30.5 11.5t20.5 31.5h63q-10 -51 -41.5 -77t-72.5 -26q-40 0 -71.5 28t-41.5 75h63z" />
    <glyph glyph-name="Iogonek" unicode="&#x12e;" horiz-adv-x="164" 
d="M200 -110q-17 -20 -33.5 -25.5t-32.5 -5.5q-15 0 -29 5.5t-25 15t-18 23t-7 29.5q0 23 13.5 40.5t33.5 27.5h-89v72h26v349h-26v73h135v-73h-26v-349h26l-1 -72q-17 -18 -23.5 -32.5t-6.5 -25.5q0 -10 6 -13.5t11 -3.5q4 0 10.5 2.5t13.5 10.5z" />
    <glyph glyph-name="iogonek" unicode="&#x12f;" horiz-adv-x="142" 
d="M168 -110q-17 -20 -33.5 -25.5t-32.5 -5.5q-15 0 -29 5.5t-25 15t-18 23t-7 29.5q0 23 13.5 40.5t33.5 27.5h-32v237h-25v67h102v-302h2q-17 -19 -24.5 -34t-7.5 -26q0 -10 6 -13.5t11 -3.5q4 0 10.5 2.5t13.5 10.5zM20 389q0 22 14.5 36t35.5 14t35.5 -14t14.5 -36
t-14.5 -36t-34.5 -14q-22 0 -36.5 14.5t-14.5 35.5z" />
    <glyph glyph-name="Idotaccent" unicode="&#x130;" horiz-adv-x="163" 
d="M13 72h26v349h-26v73h135v-73h-26v-349h26v-72h-135v72zM29 600q0 22 15 36.5t37 14.5q20 0 36 -15.5t16 -35.5q0 -22 -15 -37t-37 -15t-37 15t-15 37z" />
    <glyph glyph-name="dotlessi" unicode="&#x131;" horiz-adv-x="142" 
d="M43 236h-25v68h102v-304h-77v236z" />
    <glyph glyph-name="IJ" unicode="&#x132;" horiz-adv-x="392" 
d="M13 72h26v349h-26v73h135v-73h-26v-349h26v-72h-135v72zM186 73q44 0 64.5 25t20.5 61v262h-79v73h163v-335q0 -34 -10.5 -63.5t-32 -51.5t-53 -35t-73.5 -13v77z" />
    <glyph glyph-name="ij" unicode="&#x133;" horiz-adv-x="280" 
d="M20 389q0 22 14.5 36t35.5 14t35.5 -14t14.5 -36t-14.5 -36t-34.5 -14q-22 0 -36.5 14.5t-14.5 35.5zM38 237h-25v67h102v-304h-77v237zM158 389q0 22 14.5 36t36.5 14q20 0 34.5 -14t14.5 -36t-14.5 -36t-34.5 -14q-21 0 -36 14.5t-15 35.5zM118 -77q26 15 41 37t15 45
v232h-26v67h103v-299q0 -41 -21.5 -76t-58.5 -61z" />
    <glyph glyph-name="Jcircumflex" unicode="&#x134;" horiz-adv-x="221" 
d="M19 73q44 0 64.5 25t20.5 61v262h-79v73h163v-335q0 -34 -10.5 -63.5t-32 -51.5t-53 -35t-73.5 -13v77zM29 595l104 80l105 -80l-43 -56l-62 49l-63 -49z" />
    <glyph glyph-name="jcircumflex" unicode="&#x135;" horiz-adv-x="145" 
d="M25 389q0 22 14.5 36t36.5 14q20 0 34.5 -14t14.5 -36t-14.5 -36t-34.5 -14q-21 0 -36 14.5t-15 35.5zM-15 -77q26 15 41 37t15 45v232h-26v67h103v-299q0 -41 -21.5 -76t-58.5 -61zM-29 481l104 80l105 -80l-43 -56l-62 49l-63 -49z" />
    <glyph glyph-name="uni0136" unicode="&#x136;" horiz-adv-x="388" 
d="M193 -98q-11 8 -18.5 19.5t-7.5 27.5q0 23 16.5 38t38.5 15q23 0 39.5 -14t16.5 -43q0 -15 -8.5 -39.5t-18.5 -47.5q-12 -27 -27 -58l-65 25zM37 494h122l-39 -208l186 220l63 -54l-160 -179l172 -236l-67 -49l-194 276v-264h-83v494z" />
    <glyph glyph-name="uni0137" unicode="&#x137;" horiz-adv-x="321" 
d="M166 -107q-11 8 -17.5 18.5t-6.5 25.5q0 21 15 34.5t35 13.5q21 0 36 -13t15 -39q0 -14 -8 -36.5t-17 -44.5q-11 -26 -24 -53l-60 24zM36 510l98 9l-21 -345l141 142l51 -52l-107 -102l123 -119l-54 -54l-154 156v-145h-77v510z" />
    <glyph glyph-name="kgreenlandic" unicode="&#x138;" horiz-adv-x="346" 
d="M52 210q0 33 0.5 52t1 28t0.5 11.5v2.5h76q-1 -11 -1 -25v-69v-37l140 142l51 -51l-107 -103l124 -118l-54 -54l-154 156v-145h-77v210z" />
    <glyph glyph-name="Lacute" unicode="&#x139;" horiz-adv-x="276" 
d="M36 494h84v-422h152v-72h-236v494zM24 583l122 92l42 -56l-122 -92z" />
    <glyph glyph-name="lacute" unicode="&#x13a;" horiz-adv-x="158" 
d="M13 584l122 92l42 -56l-122 -92zM36 510l77 9v-392q0 -26 5.5 -46.5t33.5 -37.5l-54 -54q-19 13 -31 26t-19 29t-9.5 36t-2.5 47v383z" />
    <glyph glyph-name="uni013B" unicode="&#x13b;" horiz-adv-x="279" 
d="M128 -106q-11 7 -17.5 18t-6.5 26q0 21 15.5 35t35.5 14q21 0 36.5 -13.5t15.5 -39.5q0 -14 -8 -36.5t-17 -44.5q-11 -26 -25 -53l-60 23zM36 494h61v-422h175v-72h-236v494z" />
    <glyph glyph-name="uni013C" unicode="&#x13c;" horiz-adv-x="158" 
d="M82 -108q-10 7 -16.5 18t-6.5 25q0 21 15 34t35 13t35 -12.5t15 -38.5q0 -14 -8 -36t-17 -43q-11 -25 -24 -52l-59 23zM36 510l77 9v-392q0 -26 5.5 -46.5t33.5 -37.5l-54 -54q-19 13 -31 26t-19 29t-9.5 36t-2.5 47v383z" />
    <glyph glyph-name="Lcaron" unicode="&#x13d;" horiz-adv-x="280" 
d="M36 494h84v-422h152v-72h-236v494zM177 403q-11 7 -18 18t-7 25q0 21 15.5 35t35.5 14q22 0 36.5 -13.5t14.5 -39.5q0 -14 -8 -36.5t-17 -43.5q-11 -26 -24 -52l-60 23z" />
    <glyph glyph-name="lcaron" unicode="&#x13e;" horiz-adv-x="167" 
d="M36 510l77 9v-392q0 -26 5.5 -46.5t33.5 -37.5l-54 -54q-19 13 -31 26t-19 29t-9.5 36t-2.5 47v383zM152 429q-11 7 -18 18t-7 25q0 21 15.5 35t35.5 14q22 0 36.5 -13.5t14.5 -39.5q0 -14 -8 -36.5t-17 -43.5q-11 -26 -24 -52l-60 23z" />
    <glyph glyph-name="Ldot" unicode="&#x13f;" horiz-adv-x="280" 
d="M36 494h84v-422h152v-72h-236v494zM169 187q0 23 16 39.5t40 16.5q23 0 39.5 -16.5t16.5 -39.5q0 -24 -16.5 -40t-39.5 -16q-24 0 -40 16t-16 40z" />
    <glyph glyph-name="ldot" unicode="&#x140;" horiz-adv-x="164" 
d="M36 510l77 9v-392q0 -26 5.5 -46.5t33.5 -37.5l-54 -54q-19 13 -31 26t-19 29t-9.5 36t-2.5 47v383zM129 187q0 18 12 30.5t31 12.5q17 0 30 -12.5t13 -30.5t-13 -30.5t-30 -12.5q-19 0 -31 12.5t-12 30.5z" />
    <glyph glyph-name="Lslash" unicode="&#x141;" horiz-adv-x="272" 
d="M26 170l-21 -22l-52 52l73 74v220h84v-137l21 22l51 -51l-72 -73v-183h151v-72h-235v170z" />
    <glyph glyph-name="lslash" unicode="&#x142;" horiz-adv-x="125" 
d="M22 262v248l76 9v-180l29 28l49 -50l-78 -78v-112q0 -26 6 -46.5t33 -37.5l-54 -54q-19 13 -31 26t-18.5 29t-9 36t-2.5 47v36l-20 -19l-50 49z" />
    <glyph glyph-name="Nacute" unicode="&#x143;" horiz-adv-x="460" 
d="M38 487l49 17l252 -321v311h83v-486l-38 -16l-263 330v-322h-83v487zM169 583l122 92l42 -56l-122 -92z" />
    <glyph glyph-name="nacute" unicode="&#x144;" horiz-adv-x="348" 
d="M36 304h73l-1 -34q4 6 13 13t20 13.5t23.5 10.5t23.5 4q70 0 96.5 -42t26.5 -117v-152h-76v152q0 16 -1.5 32.5t-6.5 30t-14.5 21.5t-25.5 8q-35 0 -55 -26.5t-20 -66.5v-151h-76v304zM107 425l122 92l42 -56l-122 -92z" />
    <glyph glyph-name="uni0145" unicode="&#x145;" horiz-adv-x="460" 
d="M211 -97q-11 8 -18.5 19.5t-7.5 27.5q0 23 16.5 38t38.5 15q23 0 39.5 -14t16.5 -43q0 -15 -8.5 -39.5t-18.5 -47.5q-12 -27 -27 -58l-65 25zM38 487l49 17l252 -321v311h83v-486l-38 -16l-263 330v-322h-83v487z" />
    <glyph glyph-name="uni0146" unicode="&#x146;" horiz-adv-x="348" 
d="M155 -115q-10 6 -16 16t-6 23q0 20 14 32.5t32 12.5q19 0 33 -12t14 -36q0 -13 -7.5 -33t-15.5 -40q-10 -23 -22 -49l-55 21zM36 304h90l-18 -34q4 6 13 13t20 13.5t23.5 10.5t23.5 4q70 0 96.5 -42t26.5 -117v-152h-76v152q0 16 -1.5 32.5t-6.5 30t-14.5 21.5t-25.5 8
q-35 0 -55 -26.5t-20 -66.5v-151h-76v304z" />
    <glyph glyph-name="Ncaron" unicode="&#x147;" horiz-adv-x="460" 
d="M38 487l49 17l252 -321v311h83v-486l-38 -16l-263 330v-322h-83v487zM169 674l63 -49l62 49l42 -57l-104 -79l-105 79z" />
    <glyph glyph-name="ncaron" unicode="&#x148;" horiz-adv-x="348" 
d="M36 304h73l-1 -34q4 6 13 13t20 13.5t23.5 10.5t23.5 4q70 0 96.5 -42t26.5 -117v-152h-76v152q0 16 -1.5 32.5t-6.5 30t-14.5 21.5t-25.5 8q-35 0 -55 -26.5t-20 -66.5v-151h-76v304zM127 506l63 -49l62 49l42 -57l-104 -79l-105 79z" />
    <glyph glyph-name="napostrophe" unicode="&#x149;" horiz-adv-x="348" 
d="M83 438q-23 15 -23 43q0 20 14.5 33.5t34.5 13.5t35 -12.5t15 -38.5q0 -14 -7.5 -35.5t-16.5 -42.5q-11 -25 -24 -52l-59 22zM36 304h73l-1 -34q4 6 13 13t20 13.5t23.5 10.5t23.5 4q70 0 96.5 -42t26.5 -117v-152h-76v152q0 16 -1.5 32.5t-6.5 30t-14.5 21.5t-25.5 8
q-35 0 -55 -26.5t-20 -66.5v-151h-76v304z" />
    <glyph glyph-name="Eng" unicode="&#x14a;" horiz-adv-x="488" 
d="M438 4q0 -34 -10.5 -63.5t-32 -51.5t-53 -35t-73.5 -13v77q44 0 65.5 25.5t20.5 60.5l-1 42l-216 273v-323h-84v487l49 17l251 -321v315h84v-490z" />
    <glyph glyph-name="eng" unicode="&#x14b;" horiz-adv-x="340" 
d="M230 152q0 16 -1.5 32.5t-6 30t-14 21.5t-25.5 8q-35 0 -55.5 -26t-20.5 -66v-152h-75v304h73l-1 -34q4 6 13 13t20 13.5t23.5 10.5t23.5 4q41 0 65.5 -15t37.5 -42.5t17 -66.5t4 -86q0 -33 -1 -69.5t-1 -76.5q0 -32 -10 -57t-26.5 -42t-36.5 -26t-40 -9l-26 45
q25 0 44 24t19 65v197z" />
    <glyph glyph-name="Omacron" unicode="&#x14c;" horiz-adv-x="573" 
d="M29 247q0 53 20 99t55 80.5t82 54.5t100 20t100 -20t82 -54t55.5 -80.5t20.5 -98.5q0 -53 -20.5 -99.5t-55.5 -81t-82 -54t-100 -19.5t-100 19.5t-82 54t-55 80.5t-20 99zM286 66q35 0 66.5 15t55 39.5t37 57.5t13.5 69t-13.5 69t-37 58t-54.5 39.5t-67 14.5t-67.5 -14.5
t-55 -39.5t-37 -57.5t-13.5 -68.5t13.5 -69t37 -58t55 -40t67.5 -15zM193 615h200v-71h-200v71z" />
    <glyph glyph-name="omacron" unicode="&#x14d;" horiz-adv-x="370" 
d="M25 152q0 33 12.5 61.5t34.5 50.5t51 34.5t62 12.5t62 -12.5t50.5 -34.5t34.5 -50.5t13 -61.5t-13 -61.5t-34.5 -50t-50.5 -34t-62 -12.5t-62 12.5t-51 34t-34.5 50t-12.5 61.5zM185 61q18 0 33 7.5t26 20.5t17 29t6 34t-6 34.5t-17 29t-26 20.5t-33 8t-33 -8t-26 -20.5
t-17 -29t-6 -34.5t6 -34t17 -29t26 -20.5t33 -7.5zM86 440h200v-71h-200v71z" />
    <glyph glyph-name="Obreve" unicode="&#x14e;" horiz-adv-x="573" 
d="M29 247q0 53 20 99t55 80.5t82 54.5t100 20t100 -20t82 -54t55.5 -80.5t20.5 -98.5q0 -53 -20.5 -99.5t-55.5 -81t-82 -54t-100 -19.5t-100 19.5t-82 54t-55 80.5t-20 99zM286 66q35 0 66.5 15t55 39.5t37 57.5t13.5 69t-13.5 69t-37 58t-54.5 39.5t-67 14.5t-67.5 -14.5
t-55 -39.5t-37 -57.5t-13.5 -68.5t13.5 -69t37 -58t55 -40t67.5 -15zM238 674q10 -23 23 -36t34 -13t34 13t23 36h72q-11 -57 -47 -87t-82 -30q-23 0 -43.5 8.5t-37.5 24t-29.5 37t-17.5 47.5h71z" />
    <glyph glyph-name="obreve" unicode="&#x14f;" horiz-adv-x="370" 
d="M25 152q0 33 12.5 61.5t34.5 50.5t51 34.5t62 12.5t62 -12.5t50.5 -34.5t34.5 -50.5t13 -61.5t-13 -61.5t-34.5 -50t-50.5 -34t-62 -12.5t-62 12.5t-51 34t-34.5 50t-12.5 61.5zM185 61q18 0 33 7.5t26 20.5t17 29t6 34t-6 34.5t-17 29t-26 20.5t-33 8t-33 -8t-26 -20.5
t-17 -29t-6 -34.5t6 -34t17 -29t26 -20.5t33 -7.5zM133 486q10 -23 23 -36t34 -13t34 13t23 36h72q-11 -57 -47 -87t-82 -30q-23 0 -43.5 8.5t-37.5 24t-29.5 37t-17.5 47.5h71z" />
    <glyph glyph-name="Ohungarumlaut" unicode="&#x150;" horiz-adv-x="573" 
d="M29 247q0 53 20 99t55 80.5t82 54.5t100 20t100 -20t82 -54t55.5 -80.5t20.5 -98.5q0 -53 -20.5 -99.5t-55.5 -81t-82 -54t-100 -19.5t-100 19.5t-82 54t-55 80.5t-20 99zM286 66q35 0 66.5 15t55 39.5t37 57.5t13.5 69t-13.5 69t-37 58t-54.5 39.5t-67 14.5t-67.5 -14.5
t-55 -39.5t-37 -57.5t-13.5 -68.5t13.5 -69t37 -58t55 -40t67.5 -15zM393 675l54 -43l-96 -121l-54 43zM264 675l54 -43l-95 -121l-54 43z" />
    <glyph glyph-name="ohungarumlaut" unicode="&#x151;" horiz-adv-x="370" 
d="M25 152q0 33 12.5 61.5t34.5 50.5t51 34.5t62 12.5t62 -12.5t50.5 -34.5t34.5 -50.5t13 -61.5t-13 -61.5t-34.5 -50t-50.5 -34t-62 -12.5t-62 12.5t-51 34t-34.5 50t-12.5 61.5zM185 61q18 0 33 7.5t26 20.5t17 29t6 34t-6 34.5t-17 29t-26 20.5t-33 8t-33 -8t-26 -20.5
t-17 -29t-6 -34.5t6 -34t17 -29t26 -20.5t33 -7.5zM278 535l54 -43l-96 -121l-54 43zM149 535l54 -43l-95 -121l-54 43z" />
    <glyph glyph-name="OE" unicode="&#x152;" horiz-adv-x="749" 
d="M456 73q-30 -39 -75 -59t-100 -20q-53 0 -99.5 19.5t-81.5 54t-55.5 80.5t-20.5 99t20.5 99t55.5 80.5t81.5 54.5t99.5 20q27 0 53.5 -6.5t49 -17.5t41.5 -25.5t31 -30.5v73h268v-73h-187v-117h176v-72h-176v-160h190v-72h-271v73zM281 66q35 0 66.5 15t55 39.5
t37.5 57.5t14 69t-13.5 69t-37 58t-55 39.5t-67.5 14.5t-67 -14.5t-54.5 -39.5t-37 -57.5t-13.5 -68.5t13.5 -69t37 -58t54.5 -40t67 -15z" />
    <glyph glyph-name="oe" unicode="&#x153;" horiz-adv-x="603" 
d="M563 62q-23 -28 -59 -48t-78 -20t-71.5 18.5t-50.5 44.5q-20 -26 -49.5 -44.5t-71.5 -18.5q-33 0 -62 12.5t-50.5 34t-34.5 50t-13 61.5t13 61.5t34.5 50.5t50.5 34.5t62 12.5q41 0 70.5 -17.5t50.5 -42.5q20 25 48.5 42.5t72.5 17.5q33 0 60 -13.5t47 -37t31.5 -54.5
t11.5 -65h-231q5 -33 27.5 -56.5t54.5 -23.5q28 0 51 17t37 32zM183 61q18 0 33 7.5t26 20.5t17 29t6 34t-6 34.5t-17 29t-26 20.5t-33 8t-33 -8t-26 -20.5t-17 -29t-6 -34.5t6 -34t17 -29t26 -20.5t33 -7.5zM489 205q-8 17 -24 29t-39 12q-26 0 -44.5 -12t-27.5 -29h135z
" />
    <glyph glyph-name="Racute" unicode="&#x154;" horiz-adv-x="347" 
d="M37 494l104 1q37 0 70 -5t58 -20.5t40 -43.5t15 -72q0 -26 -9 -47t-23.5 -36.5t-32 -26t-34.5 -15.5l116 -199l-71 -41l-151 264v-253h-82v494zM146 283q2 0 4.5 -0.5t5.5 -0.5q31 0 57 18t26 54q0 39 -24 54t-60 14l-36 -1v-135zM95 583l122 92l42 -56l-122 -92z" />
    <glyph glyph-name="racute" unicode="&#x155;" horiz-adv-x="240" 
d="M32 304h73l-1 -37q7 17 28 30.5t44 13.5q21 0 38.5 -7t37.5 -20l-10 -10.5t-22 -23.5t-22 -23.5l-10 -10.5q-5 11 -14 16t-17 5q-49 0 -49 -86v-151h-76v304zM52 426l122 92l42 -56l-122 -92z" />
    <glyph glyph-name="uni0156" unicode="&#x156;" horiz-adv-x="349" 
d="M171 -98q-11 8 -18.5 19.5t-7.5 27.5q0 23 16.5 38t38.5 15q23 0 39.5 -14t16.5 -43q0 -15 -8.5 -39.5t-18.5 -47.5q-12 -27 -27 -58l-65 25zM37 494l100 1q38 0 72 -5t59.5 -20.5t40.5 -43.5t15 -72q0 -26 -9 -47t-23.5 -36.5t-32 -26t-34.5 -15.5l116 -199l-71 -41
l-151 264v-253h-82v494zM146 283q2 0 4.5 -0.5t5.5 -0.5q31 0 57 18t26 54q0 39 -24 54t-60 14l-36 -1v-135z" />
    <glyph glyph-name="uni0157" unicode="&#x157;" horiz-adv-x="242" 
d="M38 -105q-11 7 -17.5 18t-6.5 26q0 22 15.5 35.5t35.5 13.5q21 0 37 -13t16 -40q0 -14 -8 -37t-18 -45q-11 -26 -25 -54l-60 24zM32 304h73l-1 -37q7 17 28 30.5t44 13.5q21 0 38.5 -7t37.5 -20l-10 -10.5t-22 -23.5t-22 -23.5l-10 -10.5q-5 11 -14 16t-17 5
q-49 0 -49 -86v-151h-76v304z" />
    <glyph glyph-name="Rcaron" unicode="&#x158;" horiz-adv-x="349" 
d="M37 494l104 1q37 0 70 -5t58 -20.5t40 -43.5t15 -72q0 -26 -9 -47t-23.5 -36.5t-32 -26t-34.5 -15.5l116 -199l-71 -41l-151 264v-253h-82v494zM146 283q2 0 4.5 -0.5t5.5 -0.5q31 0 57 18t26 54q0 39 -24 54t-60 14l-36 -1v-135zM108 674l63 -49l62 49l42 -57l-104 -79
l-105 79z" />
    <glyph glyph-name="rcaron" unicode="&#x159;" horiz-adv-x="242" 
d="M32 304h73l-1 -37q7 17 28 30.5t44 13.5q21 0 38.5 -7t37.5 -20l-10 -10.5t-22 -23.5t-22 -23.5l-10 -10.5q-5 11 -14 16t-17 5q-49 0 -49 -86v-151h-76v304zM69 509l63 -49l62 49l42 -57l-104 -79l-105 79z" />
    <glyph glyph-name="Sacute" unicode="&#x15a;" horiz-adv-x="344" 
d="M72 106q19 -14 42 -27t53 -13q14 0 26 6t21 16t14 22.5t5 25.5q0 14 -6 24t-15 18.5t-20.5 15t-23.5 12.5l-25 14q-23 13 -43.5 26t-36 29.5t-25 37.5t-9.5 50t11 54.5t31 44t47.5 29t59.5 10.5q46 0 78 -15.5t58 -37.5l-55 -54q-16 14 -35.5 24t-45.5 10t-44.5 -19
t-18.5 -42t19.5 -38t39.5 -27l45 -26q42 -24 71 -57t29 -82q0 -30 -12 -56t-33 -45.5t-48.5 -31t-57.5 -11.5q-50 0 -88 19t-62 40zM110 583l122 92l42 -56l-122 -92z" />
    <glyph glyph-name="sacute" unicode="&#x15b;" horiz-adv-x="254" 
d="M49 94q17 -13 36 -23t39 -10q11 0 20.5 7.5t9.5 20.5q0 14 -15 21.5t-28 14.5l-14 7q-13 5 -26 13t-23 18.5t-16.5 24t-6.5 30.5q0 20 8 37t22 29.5t32.5 19.5t38.5 7q29 0 53 -11t50 -31l-50 -47q-20 13 -30 17.5t-22 4.5q-9 0 -17 -5.5t-8 -14.5q0 -5 4.5 -9.5t11 -8
t13.5 -6t12 -5.5l13 -7q35 -17 55 -37t20 -60q0 -45 -31 -71t-75 -26q-36 0 -67.5 14.5t-56.5 36.5zM45 425l122 92l42 -56l-122 -92z" />
    <glyph glyph-name="Scircumflex" unicode="&#x15c;" horiz-adv-x="340" 
d="M72 106q19 -14 42 -27t53 -13q14 0 26 6t21 16t14 22.5t5 25.5q0 14 -6 24t-15 18.5t-20.5 15t-23.5 12.5l-25 14q-23 13 -43.5 26t-36 29.5t-25 37.5t-9.5 50t11 54.5t31 44t47.5 29t59.5 10.5q46 0 78 -15.5t58 -37.5l-55 -54q-16 14 -35.5 24t-45.5 10t-44.5 -19
t-18.5 -42t19.5 -38t39.5 -27l45 -26q42 -24 71 -57t29 -82q0 -30 -12 -56t-33 -45.5t-48.5 -31t-57.5 -11.5q-50 0 -88 19t-62 40zM75 591l104 80l105 -80l-43 -56l-62 49l-63 -49z" />
    <glyph glyph-name="scircumflex" unicode="&#x15d;" horiz-adv-x="254" 
d="M49 94q17 -13 36 -23t39 -10q11 0 20.5 7.5t9.5 20.5q0 14 -15 21.5t-28 14.5l-14 7q-13 5 -26 13t-23 18.5t-16.5 24t-6.5 30.5q0 20 8 37t22 29.5t32.5 19.5t38.5 7q29 0 53 -11t50 -31l-50 -47q-20 13 -30 17.5t-22 4.5q-9 0 -17 -5.5t-8 -14.5q0 -5 4.5 -9.5t11 -8
t13.5 -6t12 -5.5l13 -7q35 -17 55 -37t20 -60q0 -45 -31 -71t-75 -26q-36 0 -67.5 14.5t-56.5 36.5zM28 432l104 80l105 -80l-43 -56l-62 49l-63 -49z" />
    <glyph glyph-name="Scedilla" unicode="&#x15e;" horiz-adv-x="346" 
d="M72 106q19 -14 42 -27t53 -13q14 0 26 6t21 16t14 22.5t5 25.5q0 14 -6 24t-15 18.5t-20.5 15t-23.5 12.5l-25 14q-23 13 -43.5 26t-36 29.5t-25 37.5t-9.5 50t11 54.5t31 44t47.5 29t59.5 10.5q46 0 78 -15.5t58 -37.5l-55 -54q-16 14 -35.5 24t-45.5 10t-44.5 -19
t-18.5 -42t19.5 -38t39.5 -27l45 -26q42 -24 71 -57t29 -82q0 -30 -12 -56t-33 -45.5t-48.5 -31t-57.5 -11.5q-50 0 -88 19t-62 40zM179 -8l122 -92l-41 -56l-123 92z" />
    <glyph glyph-name="scedilla" unicode="&#x15f;" horiz-adv-x="254" 
d="M49 94q17 -13 36 -23t39 -10q11 0 20.5 7.5t9.5 20.5q0 14 -15 21.5t-28 14.5l-14 7q-13 5 -26 13t-23 18.5t-16.5 24t-6.5 30.5q0 20 8 37t22 29.5t32.5 19.5t38.5 7q29 0 53 -11t50 -31l-50 -47q-20 13 -30 17.5t-22 4.5q-9 0 -17 -5.5t-8 -14.5q0 -5 4.5 -9.5t11 -8
t13.5 -6t12 -5.5l13 -7q35 -17 55 -37t20 -60q0 -45 -31 -71t-75 -26q-36 0 -67.5 14.5t-56.5 36.5zM96 -5l122 -92l-41 -56l-123 92z" />
    <glyph glyph-name="Scaron" unicode="&#x160;" horiz-adv-x="341" 
d="M72 106q19 -14 42 -27t53 -13q14 0 26 6t21 16t14 22.5t5 25.5q0 14 -6 24t-15 18.5t-20.5 15t-23.5 12.5l-25 14q-23 13 -43.5 26t-36 29.5t-25 37.5t-9.5 50t11 54.5t31 44t47.5 29t59.5 10.5q46 0 78 -15.5t58 -37.5l-55 -54q-16 14 -35.5 24t-45.5 10t-44.5 -19
t-18.5 -42t19.5 -38t39.5 -27l45 -26q42 -24 71 -57t29 -82q0 -30 -12 -56t-33 -45.5t-48.5 -31t-57.5 -11.5q-50 0 -88 19t-62 40zM112 674l63 -49l62 49l42 -57l-104 -79l-105 79z" />
    <glyph glyph-name="scaron" unicode="&#x161;" horiz-adv-x="254" 
d="M49 94q17 -13 36 -23t39 -10q11 0 20.5 7.5t9.5 20.5q0 14 -15 21.5t-28 14.5l-14 7q-13 5 -26 13t-23 18.5t-16.5 24t-6.5 30.5q0 20 8 37t22 29.5t32.5 19.5t38.5 7q29 0 53 -11t50 -31l-50 -47q-20 13 -30 17.5t-22 4.5q-9 0 -17 -5.5t-8 -14.5q0 -5 4.5 -9.5t11 -8
t13.5 -6t12 -5.5l13 -7q35 -17 55 -37t20 -60q0 -45 -31 -71t-75 -26q-36 0 -67.5 14.5t-56.5 36.5zM67 512l63 -49l62 49l42 -57l-104 -79l-105 79z" />
    <glyph glyph-name="uni0162" unicode="&#x162;" horiz-adv-x="291" 
d="M115 -105q-11 7 -17.5 18t-6.5 26q0 21 15.5 35t35.5 14q21 0 36.5 -13.5t15.5 -39.5q0 -14 -8 -36.5t-17 -44.5q-11 -26 -25 -53l-60 23zM103 421h-103v73h290v-73h-104v-421h-83v421z" />
    <glyph glyph-name="uni0163" unicode="&#x163;" horiz-adv-x="188" 
d="M73 -109q-23 15 -23 43q0 20 14.5 33.5t34.5 13.5t35 -12.5t15 -38.5q0 -14 -7.5 -35.5t-16.5 -42.5q-11 -25 -24 -52l-59 22zM43 237h-43v23l120 120v-76h85l-70 -67h-15v-110q0 -26 6 -46t33 -37l-54 -55q-19 13 -31 26t-19 29t-9.5 36t-2.5 47v110z" />
    <glyph glyph-name="Tcaron" unicode="&#x164;" horiz-adv-x="291" 
d="M103 421h-103v73h290v-73h-104v-421h-83v421zM83 664l63 -49l62 49l42 -57l-104 -79l-105 79z" />
    <glyph glyph-name="tcaron" unicode="&#x165;" horiz-adv-x="191" 
d="M43 237h-43v23l120 120v-76h85l-70 -67h-15v-110q0 -26 6 -46t33 -37l-54 -55q-19 13 -31 26t-19 29t-9.5 36t-2.5 47v110zM144 465q-10 6 -16 15.5t-6 22.5q0 19 14 31t31 12q20 0 32.5 -12t12.5 -35q0 -12 -7 -31.5t-15 -38.5q-10 -22 -21 -46l-53 20z" />
    <glyph glyph-name="Tbar" unicode="&#x166;" horiz-adv-x="291" 
d="M10 375h93v46h-103v73h290v-73h-104v-46h94v-71h-94v-304h-83v304h-93v71z" />
    <glyph glyph-name="tbar" unicode="&#x167;" horiz-adv-x="188" 
d="M0 211h43v26h-43v23l120 120v-76h85l-70 -67h-15v-26h50v-71h-50v-13q0 -26 6 -46t33 -37l-54 -55q-19 13 -31 26t-19 29t-9.5 36t-2.5 47v13h-43v71z" />
    <glyph glyph-name="Utilde" unicode="&#x168;" horiz-adv-x="429" 
d="M41 494h82v-345q0 -15 7.5 -30t20.5 -26.5t29.5 -19t33.5 -7.5t33.5 7.5t29 19t20.5 26.5t8 30v345h83v-345q0 -33 -14.5 -61.5t-38.5 -49.5t-55.5 -33t-65.5 -12q-35 0 -66 12t-55 33t-38 49.5t-14 61.5v345zM87 595q3 6 10.5 19t19 25.5t26.5 22t33 9.5q12 0 20 -2
t15.5 -6t17 -10t25.5 -13q1 -1 4 -1q6 0 11 5.5t9 12.5l9 18l66 -33q-5 -9 -13.5 -22t-20 -24.5t-25.5 -19.5t-29 -8q-8 0 -19.5 5t-24.5 11.5t-24.5 11.5t-18.5 5q-4 0 -7.5 -6t-7.5 -13q-4 -9 -9 -19z" />
    <glyph glyph-name="utilde" unicode="&#x169;" horiz-adv-x="340" 
d="M32 304h76v-151q0 -18 3.5 -34.5t10.5 -29t18.5 -20.5t28.5 -8t28.5 7.5t19 20.5t11 29t3.5 34v152h77v-151q0 -33 -9 -62t-26 -50.5t-43.5 -34t-60.5 -12.5t-59.5 12.5t-43 33.5t-26 50t-8.5 62v152zM37 401q3 6 10.5 19t19 25.5t26.5 22t33 9.5q12 0 20 -2t15.5 -6
t17 -10t25.5 -13q1 -1 4 -1q6 0 11 5.5t9 12.5l9 18l66 -33q-5 -9 -13.5 -22t-20 -24.5t-25.5 -19.5t-29 -8q-8 0 -19.5 5t-24.5 11.5t-24.5 11.5t-18.5 5q-4 0 -7.5 -6t-7.5 -13q-4 -9 -9 -19z" />
    <glyph glyph-name="Umacron" unicode="&#x16a;" horiz-adv-x="429" 
d="M41 494h82v-345q0 -15 7.5 -30t20.5 -26.5t29.5 -19t33.5 -7.5t33.5 7.5t29 19t20.5 26.5t8 30v345h83v-345q0 -33 -14.5 -61.5t-38.5 -49.5t-55.5 -33t-65.5 -12q-35 0 -66 12t-55 33t-38 49.5t-14 61.5v345zM114 615h200v-71h-200v71z" />
    <glyph glyph-name="umacron" unicode="&#x16b;" horiz-adv-x="340" 
d="M32 304h76v-151q0 -18 3.5 -34.5t10.5 -29t18.5 -20.5t28.5 -8t28.5 7.5t19 20.5t11 29t3.5 34v152h77v-151q0 -33 -9 -62t-26 -50.5t-43.5 -34t-60.5 -12.5t-59.5 12.5t-43 33.5t-26 50t-8.5 62v152zM73 440h200v-71h-200v71z" />
    <glyph glyph-name="Ubreve" unicode="&#x16c;" horiz-adv-x="429" 
d="M41 494h82v-345q0 -15 7.5 -30t20.5 -26.5t29.5 -19t33.5 -7.5t33.5 7.5t29 19t20.5 26.5t8 30v345h83v-345q0 -33 -14.5 -61.5t-38.5 -49.5t-55.5 -33t-65.5 -12q-35 0 -66 12t-55 33t-38 49.5t-14 61.5v345zM160 674q10 -23 23 -36t34 -13t34 13t23 36h72
q-11 -57 -47 -87t-82 -30q-23 0 -43.5 8.5t-37.5 24t-29.5 37t-17.5 47.5h71z" />
    <glyph glyph-name="ubreve" unicode="&#x16d;" horiz-adv-x="345" 
d="M32 304h76v-151q0 -18 3.5 -34.5t10.5 -29t18.5 -20.5t28.5 -8t28.5 7.5t19 20.5t11 29t3.5 34v152h77v-151q0 -33 -9 -62t-26 -50.5t-43.5 -34t-60.5 -12.5t-59.5 12.5t-43 33.5t-26 50t-8.5 62v152zM114 482q10 -22 22.5 -34t32.5 -12t32.5 12t22.5 34h69
q-11 -54 -45 -83t-79 -29q-44 0 -78 30.5t-45 81.5h68z" />
    <glyph glyph-name="Uring" unicode="&#x16e;" horiz-adv-x="429" 
d="M41 494h82v-345q0 -15 7.5 -30t20.5 -26.5t29.5 -19t33.5 -7.5t33.5 7.5t29 19t20.5 26.5t8 30v345h83v-345q0 -33 -14.5 -61.5t-38.5 -49.5t-55.5 -33t-65.5 -12q-35 0 -66 12t-55 33t-38 49.5t-14 61.5v345zM146 603q0 29 21 50t50 21t50 -21t21 -50t-21 -49.5
t-50 -20.5t-50 20.5t-21 49.5zM191 603q0 -10 7 -17t18 -7t18.5 6.5t7.5 17.5t-7.5 18.5t-18.5 7.5t-18 -7.5t-7 -18.5z" />
    <glyph glyph-name="uring" unicode="&#x16f;" horiz-adv-x="340" 
d="M32 304h76v-151q0 -18 3.5 -34.5t10.5 -29t18.5 -20.5t28.5 -8t28.5 7.5t19 20.5t11 29t3.5 34v152h77v-151q0 -33 -9 -62t-26 -50.5t-43.5 -34t-60.5 -12.5t-59.5 12.5t-43 33.5t-26 50t-8.5 62v152zM99 439q0 29 21 50t50 21t50 -21t21 -50t-21 -49.5t-50 -20.5
t-50 20.5t-21 49.5zM144 439q0 -10 7 -17t18 -7t18.5 6.5t7.5 17.5t-7.5 18.5t-18.5 7.5t-18 -7.5t-7 -18.5z" />
    <glyph glyph-name="Uhungarumlaut" unicode="&#x170;" horiz-adv-x="429" 
d="M41 494h82v-345q0 -15 7.5 -30t20.5 -26.5t29.5 -19t33.5 -7.5t33.5 7.5t29 19t20.5 26.5t8 30v345h83v-345q0 -33 -14.5 -61.5t-38.5 -49.5t-55.5 -33t-65.5 -12q-35 0 -66 12t-55 33t-38 49.5t-14 61.5v345zM323 675l54 -43l-96 -121l-54 43zM194 675l54 -43l-95 -121
l-54 43z" />
    <glyph glyph-name="uhungarumlaut" unicode="&#x171;" horiz-adv-x="344" 
d="M32 304h76v-151q0 -18 3.5 -34.5t10.5 -29t18.5 -20.5t28.5 -8t28.5 7.5t19 20.5t11 29t3.5 34v152h77v-151q0 -33 -9 -62t-26 -50.5t-43.5 -34t-60.5 -12.5t-59.5 12.5t-43 33.5t-26 50t-8.5 62v152zM266 534l54 -43l-96 -121l-54 43zM137 534l54 -43l-95 -121l-54 43z
" />
    <glyph glyph-name="Uogonek" unicode="&#x172;" horiz-adv-x="429" 
d="M302 -114q-17 -20 -33.5 -25.5t-32.5 -5.5q-15 0 -29 5.5t-25 15t-18 23t-7 29.5q0 21 11.5 38t31.5 28q-32 2 -61 15t-51 33.5t-34.5 48t-12.5 58.5v345h82v-345q0 -15 7.5 -30t20.5 -26.5t29.5 -19t33.5 -7.5t33.5 7.5t29 19t20.5 26.5t8 30v345h83v-345q0 -29 -11 -54
t-29.5 -45t-44 -34t-54.5 -19q-17 -19 -23.5 -33.5t-6.5 -25.5q0 -10 6 -13.5t11 -3.5q4 0 10.5 2.5t13.5 10.5z" />
    <glyph glyph-name="uogonek" unicode="&#x173;" horiz-adv-x="340" 
d="M285 -102q-17 -20 -33.5 -25.5t-32.5 -5.5q-15 0 -29 5.5t-25 15t-18 23t-7 29.5t7 29.5t19 24.5q-67 2 -100.5 47t-33.5 111v152h76v-151q0 -18 3.5 -34.5t10.5 -29t18.5 -20.5t28.5 -8t28.5 7.5t19 20.5t11 29t3.5 34v152h77v-151q0 -49 -19.5 -88t-57.5 -58
q-16 -17 -22.5 -31.5t-6.5 -25.5q0 -10 6 -13.5t11 -3.5q4 0 10.5 2.5t13.5 10.5z" />
    <glyph glyph-name="Wcircumflex" unicode="&#x174;" horiz-adv-x="685" 
d="M7 474l78 30l125 -339l115 327l39 13l119 -341l115 340l77 -30l-164 -467l-49 -16l-116 316l-108 -300l-49 -16zM244 595l104 80l105 -80l-43 -56l-62 49l-63 -49z" />
    <glyph glyph-name="wcircumflex" unicode="&#x175;" horiz-adv-x="494" 
d="M14 284l71 31l77 -186l68 173l33 13l72 -185l76 185l71 -31l-117 -278l-54 -14l-63 152l-56 -137l-56 -15zM151 426l104 80l105 -80l-43 -56l-62 49l-63 -49z" />
    <glyph glyph-name="Ycircumflex" unicode="&#x176;" horiz-adv-x="378" 
d="M149 200l-142 265l72 42l111 -210l2 -8l113 218l72 -42l-145 -266v-199h-83v200zM88 595l104 80l105 -80l-43 -56l-62 49l-63 -49z" />
    <glyph glyph-name="ycircumflex" unicode="&#x177;" horiz-adv-x="340" 
d="M15 -63q36 9 55 25.5t30 38.5q7 13 11.5 23t8.5 16q4 7 7 12q-28 54 -59.5 114t-57.5 113l70 35l89 -178l91 178l69 -35q-38 -75 -71 -138l-28 -54t-25.5 -50t-20.5 -40t-12 -24q-18 -35 -48 -62.5t-75 -41.5zM73 442l104 80l105 -80l-43 -56l-62 49l-63 -49z" />
    <glyph glyph-name="Ydieresis" unicode="&#x178;" horiz-adv-x="378" 
d="M149 200l-142 265l72 42l111 -210l2 -8l113 218l72 -42l-145 -266v-199h-83v200zM305 622q0 -22 -15.5 -35.5t-35.5 -13.5t-34.5 15t-14.5 34q0 20 14.5 35.5t34.5 15.5t35.5 -15.5t15.5 -35.5zM181 622q0 -22 -15.5 -35.5t-35.5 -13.5q-21 0 -35 15t-14 34
q0 20 14.5 35.5t34.5 15.5t35.5 -15.5t15.5 -35.5z" />
    <glyph glyph-name="Zacute" unicode="&#x179;" horiz-adv-x="404" 
d="M237 416h-188v78h333l-239 -413h255l-80 -81h-317zM124 582l122 92l42 -56l-122 -92z" />
    <glyph glyph-name="zacute" unicode="&#x17a;" horiz-adv-x="289" 
d="M12 45l135 187l6 5h-135v67h238l4 -46l-134 -185l-5 -3h168l-69 -70h-205zM78 426l122 92l42 -56l-122 -92z" />
    <glyph glyph-name="Zdotaccent" unicode="&#x17b;" horiz-adv-x="404" 
d="M237 416h-188v78h333l-239 -413h255l-80 -81h-317zM160 624q0 22 15 36.5t37 14.5q20 0 36 -15.5t16 -35.5q0 -22 -15 -37t-37 -15t-37 15t-15 37z" />
    <glyph glyph-name="zdotaccent" unicode="&#x17c;" horiz-adv-x="291" 
d="M12 45l135 187l6 5h-135v67h238l4 -46l-134 -185l-5 -3h168l-69 -70h-205zM103 421q0 22 15 36.5t37 14.5q20 0 36 -15.5t16 -35.5q0 -22 -15 -37t-37 -15t-37 15t-15 37z" />
    <glyph glyph-name="Zcaron" unicode="&#x17d;" horiz-adv-x="404" 
d="M237 416h-188v78h333l-239 -413h255l-80 -81h-317zM151 674l63 -49l62 49l42 -57l-104 -79l-105 79z" />
    <glyph glyph-name="zcaron" unicode="&#x17e;" horiz-adv-x="292" 
d="M12 45l135 187l6 5h-135v67h238l4 -46l-134 -185l-5 -3h168l-69 -70h-205zM89 505l63 -49l62 49l42 -57l-104 -79l-105 79z" />
    <glyph glyph-name="longs" unicode="&#x17f;" horiz-adv-x="198" 
d="M198 416q-18 0 -30 -8t-19.5 -20.5t-10.5 -29t-3 -33.5v-325h-77v236h-37v68h37v21q0 32 8 61t25 50.5t43.5 34t63.5 12.5v-67z" />
    <glyph glyph-name="florin" unicode="&#x192;" horiz-adv-x="242" 
d="M-92 -140q41 2 66.5 30t30.5 62l35 223h-36l11 67h36q3 37 16 70t37 57.5t58 38.5t78 14l-10 -68q-43 -1 -69 -31.5t-33 -80.5h102l-79 -67h-32q-9 -58 -18.5 -113.5t-18.5 -112.5q-5 -32 -19.5 -60t-37.5 -49.5t-55.5 -34t-72.5 -12.5z" />
    <glyph glyph-name="Aringacute" unicode="&#x1fa;" horiz-adv-x="438" 
d="M152 527q0 29 21 50t50 21t50 -21t21 -50q0 -20 -10.5 -37t-27.5 -25l183 -445l-77 -31l-60 150h-166l-60 -150l-77 31l186 447q-15 10 -24 25t-9 35zM136 645l122 92l42 -56l-122 -92zM274 211l-55 133l-54 -133h109zM197 527q0 -10 7 -17t18 -7t18.5 6.5t7.5 17.5
t-7.5 18.5t-18.5 7.5t-18 -7.5t-7 -18.5z" />
    <glyph glyph-name="aringacute" unicode="&#x1fb;" 
d="M258 25q-14 -12 -37.5 -21.5t-44.5 -9.5q-33 0 -61.5 12.5t-50.5 34t-34.5 50t-12.5 61.5t12.5 61.5t34.5 50.5t50.5 34.5t61.5 12.5q22 0 46.5 -10t39.5 -24q0 3 -0.5 7.5t-0.5 9.5q-1 5 -1 10h72v-304h-75zM176 61q35 0 59 23t24 68q0 41 -24 66.5t-59 25.5
q-18 0 -33 -8t-26 -20.5t-17 -29t-6 -34.5t6 -34t17 -29t26 -20.5t33 -7.5zM121 464q0 29 21 50t50 21t50 -21t21 -50t-21 -49.5t-50 -20.5t-50 20.5t-21 49.5zM166 464q0 -10 7 -17t18 -7t18.5 6.5t7.5 17.5t-7.5 18.5t-18.5 7.5t-18 -7.5t-7 -18.5zM99 582l122 92l42 -56
l-122 -92z" />
    <glyph glyph-name="AEacute" unicode="&#x1fc;" horiz-adv-x="637" 
d="M197 494h235l29 -73h-187l48 -117h175l29 -72h-175l66 -160h189l29 -72h-277l-58 139h-165l-60 -150l-76 31zM273 211l-55 133l-54 -133h109zM170 582l122 92l42 -56l-122 -92z" />
    <glyph glyph-name="aeacute" unicode="&#x1fd;" horiz-adv-x="591" 
d="M265 25q-14 -12 -37 -21.5t-45 -9.5q-32 0 -61 12.5t-51 34t-34.5 50t-12.5 61.5t12.5 61.5t34.5 50.5t51 34.5t61 12.5q23 0 46.5 -10t38.5 -24v27h71l-1 -27q15 13 36 23.5t47 10.5q32 0 59.5 -13.5t47.5 -37t31 -54.5t11 -65h-231q5 -33 27.5 -56.5t54.5 -23.5
q28 0 51.5 17t37.5 32l48 -48q-23 -28 -59 -48t-78 -20q-25 0 -46.5 10t-36.5 23l1 -27h-75zM183 61q35 0 59.5 23t24.5 68q0 41 -24.5 66.5t-59.5 25.5q-18 0 -33 -8t-26 -20.5t-17 -29t-6 -34.5t6 -34t17 -29t26 -20.5t33 -7.5zM484 205q-7 17 -23.5 29t-39.5 12
q-26 0 -43.5 -12t-26.5 -29h133zM256 427l122 92l42 -56l-122 -92z" />
    <glyph glyph-name="Oslashacute" unicode="&#x1fe;" horiz-adv-x="589" 
d="M90 85q-26 32 -39.5 71.5t-13.5 83.5q0 53 20 99.5t55 81t81.5 54t99.5 19.5q45 0 86.5 -14.5t74.5 -40.5q15 15 32 32.5t31 30.5l45 -48l-63 -62q22 -31 37 -70t15 -81q0 -53 -20.5 -99t-55.5 -80.5t-82 -54t-100 -19.5q-44 0 -84 14t-72 37q-16 -14 -32.5 -31
t-29.5 -30l-48 46zM396 384q-22 17 -48 27t-55 10q-36 0 -67.5 -14.5t-55 -39.5t-37 -57.5t-13.5 -68.5q0 -27 7.5 -51.5t21.5 -47.5zM192 95q44 -35 101 -35q36 0 68 15t55 39.5t36.5 57t13.5 68.5q0 26 -7 50.5t-20 44.5zM209 583l122 92l42 -56l-122 -92z" />
    <glyph glyph-name="oslashacute" unicode="&#x1ff;" horiz-adv-x="358" 
d="M51 43q-15 20 -24.5 44.5t-9.5 52.5q0 33 12.5 61.5t34.5 50t51 34t62 12.5q49 0 85 -23q9 11 20 22.5t19 19.5l41 -39l-38 -41q15 -20 24.5 -44.5t9.5 -52.5q0 -33 -13 -61.5t-35 -50.5t-51 -34.5t-62 -12.5q-23 0 -44.5 7t-39.5 19l-42 -47l-41 38zM214 222
q-18 10 -37 10q-17 0 -32 -8t-26 -20.5t-17 -29t-6 -34.5q0 -11 2 -20t5 -19zM140 59q17 -10 37 -10q18 0 33 7.5t26 20t17 29t6 34.5q0 21 -7 39zM104 425l122 92l42 -56l-122 -92z" />
    <glyph glyph-name="uni0218" unicode="&#x218;" horiz-adv-x="338" 
d="M155 -110q-11 7 -17.5 17.5t-6.5 24.5q0 20 15 33.5t34 13.5q20 0 35 -12.5t15 -38.5q0 -14 -7.5 -35t-16.5 -42q-11 -25 -24 -51l-58 22zM72 106q19 -14 42 -27t53 -13q14 0 26 6t21 16t14 22.5t5 25.5q0 14 -6 24t-15 18.5t-20.5 15t-23.5 12.5l-25 14q-23 13 -43.5 26
t-36 29.5t-25 37.5t-9.5 50t11 54.5t31 44t47.5 29t59.5 10.5q46 0 78 -15.5t58 -37.5l-55 -54q-16 14 -35.5 24t-45.5 10t-44.5 -19t-18.5 -42t19.5 -38t39.5 -27l45 -26q42 -24 71 -57t29 -82q0 -30 -12 -56t-33 -45.5t-48.5 -31t-57.5 -11.5q-50 0 -88 19t-62 40z" />
    <glyph glyph-name="uni0219" unicode="&#x219;" horiz-adv-x="254" 
d="M98 -106q-11 7 -17.5 18t-6.5 26q0 22 15.5 35.5t35.5 13.5q21 0 37 -13.5t16 -39.5q0 -14 -8 -36.5t-18 -44.5q-11 -26 -25 -54l-60 23zM49 94q17 -13 36 -23t39 -10q11 0 20.5 7.5t9.5 20.5q0 14 -15 21.5t-28 14.5l-14 7q-13 5 -26 13t-23 18.5t-16.5 24t-6.5 30.5
q0 20 8 37t22 29.5t32.5 19.5t38.5 7q29 0 53 -11t50 -31l-50 -47q-20 13 -30 17.5t-22 4.5q-9 0 -17 -5.5t-8 -14.5q0 -5 4.5 -9.5t11 -8t13.5 -6t12 -5.5l13 -7q35 -17 55 -37t20 -60q0 -45 -31 -71t-75 -26q-36 0 -67.5 14.5t-56.5 36.5z" />
    <glyph glyph-name="uni021A" unicode="&#x21a;" horiz-adv-x="291" 
d="M115 -105q-11 7 -17.5 18t-6.5 26q0 21 15.5 35t35.5 14q21 0 36.5 -13.5t15.5 -39.5q0 -14 -8 -36.5t-17 -44.5q-11 -26 -25 -53l-60 23zM103 421h-103v73h290v-73h-104v-421h-83v421z" />
    <glyph glyph-name="uni021B" unicode="&#x21b;" horiz-adv-x="189" 
d="M73 -109q-23 15 -23 43q0 20 14.5 33.5t34.5 13.5t35 -12.5t15 -38.5q0 -14 -7.5 -35.5t-16.5 -42.5q-11 -25 -24 -52l-59 22zM43 237h-43v23l120 120v-76h85l-70 -67h-15v-110q0 -26 6 -46t33 -37l-54 -55q-19 13 -31 26t-19 29t-9.5 36t-2.5 47v110z" />
    <glyph glyph-name="circumflex" unicode="&#x2c6;" horiz-adv-x="299" 
d="M-1 598l104 80l105 -80l-43 -56l-62 49l-63 -49z" />
    <glyph glyph-name="caron" unicode="&#x2c7;" horiz-adv-x="489" 
d="M130 682l63 -49l62 49l42 -57l-104 -79l-105 79z" />
    <glyph glyph-name="breve" unicode="&#x2d8;" horiz-adv-x="412" 
d="M93 668q10 -23 23 -36t34 -13t34 13t23 36h72q-11 -57 -47 -87t-82 -30q-23 0 -43.5 8.5t-37.5 24t-29.5 37t-17.5 47.5h71z" />
    <glyph glyph-name="dotaccent" unicode="&#x2d9;" horiz-adv-x="340" 
d="M96 603q0 22 15 36.5t37 14.5q20 0 36 -15.5t16 -35.5q0 -22 -15 -37t-37 -15t-37 15t-15 37z" />
    <glyph glyph-name="ring" unicode="&#x2da;" horiz-adv-x="361" 
d="M79 621q0 29 21 50t50 21t50 -21t21 -50t-21 -49.5t-50 -20.5t-50 20.5t-21 49.5zM124 621q0 -10 7 -17t18 -7t18.5 6.5t7.5 17.5t-7.5 18.5t-18.5 7.5t-18 -7.5t-7 -18.5z" />
    <glyph glyph-name="ogonek" unicode="&#x2db;" horiz-adv-x="378" 
d="M240 -176q-17 -20 -33.5 -25.5t-32.5 -5.5q-15 0 -29 5.5t-25 15t-18 23t-7 29.5q0 23 14.5 41.5t37.5 28.5h42q-17 -19 -24.5 -34t-7.5 -26q0 -10 6 -13.5t11 -3.5q4 0 10.5 2.5t13.5 10.5z" />
    <glyph glyph-name="tilde" unicode="&#x2dc;" horiz-adv-x="381" 
d="M-1 571q3 6 10.5 19t19 25.5t26.5 22t33 9.5q12 0 20 -2t15.5 -6t17 -10t25.5 -13q1 -1 4 -1q6 0 11 5.5t9 12.5l9 18l66 -33q-5 -9 -13.5 -22t-20 -24.5t-25.5 -19.5t-29 -8q-8 0 -19.5 5t-24.5 11.5t-24.5 11.5t-18.5 5q-4 0 -7.5 -6t-7.5 -13q-4 -9 -9 -19z" />
    <glyph glyph-name="hungarumlaut" unicode="&#x2dd;" horiz-adv-x="447" 
d="M249 706l54 -43l-96 -121l-54 43zM120 706l54 -43l-95 -121l-54 43z" />
    <glyph glyph-name="gravecomb" unicode="&#x300;" horiz-adv-x="277" 
d="M63 691l123 -92l-43 -56l-122 92z" />
    <glyph glyph-name="acutecomb" unicode="&#x301;" horiz-adv-x="277" 
d="M15 598l122 92l42 -56l-122 -92z" />
    <glyph glyph-name="tildecomb" unicode="&#x303;" horiz-adv-x="381" 
d="M-1 571q3 6 10.5 19t19 25.5t26.5 22t33 9.5q12 0 20 -2t15.5 -6t17 -10t25.5 -13q1 -1 4 -1q6 0 11 5.5t9 12.5l9 18l66 -33q-5 -9 -13.5 -22t-20 -24.5t-25.5 -19.5t-29 -8q-8 0 -19.5 5t-24.5 11.5t-24.5 11.5t-18.5 5q-4 0 -7.5 -6t-7.5 -13q-4 -9 -9 -19z" />
    <glyph glyph-name="dotbelowcomb" unicode="&#x323;" horiz-adv-x="340" 
d="M96 -67q0 22 15 36.5t37 14.5q20 0 36 -15.5t16 -35.5q0 -22 -15 -37t-37 -15t-37 15t-15 37z" />
    <glyph glyph-name="pi" unicode="&#x3c0;" horiz-adv-x="503" 
d="M459 561v-69h-43v-339q0 -40 10 -65t46 -25l-26 -67q-27 0 -47.5 11.5t-34 31.5t-20.5 47t-7 58v348h-175v-492h-79v492h-46v69h422z" />
    <glyph glyph-name="Wgrave" unicode="&#x1e80;" horiz-adv-x="685" 
d="M7 474l78 30l125 -339l115 327l39 13l119 -341l115 340l77 -30l-164 -467l-49 -16l-116 316l-108 -300l-49 -16zM294 675l123 -92l-43 -56l-122 92z" />
    <glyph glyph-name="wgrave" unicode="&#x1e81;" horiz-adv-x="491" 
d="M14 284l71 31l77 -186l68 173l33 13l72 -185l76 185l71 -31l-117 -278l-54 -14l-63 152l-56 -137l-56 -15zM212 499l123 -92l-43 -56l-122 92z" />
    <glyph glyph-name="Wacute" unicode="&#x1e82;" horiz-adv-x="685" 
d="M7 474l78 30l125 -339l115 327l39 13l119 -341l115 340l77 -30l-164 -467l-49 -16l-116 316l-108 -300l-49 -16zM266 582l122 92l42 -56l-122 -92z" />
    <glyph glyph-name="wacute" unicode="&#x1e83;" horiz-adv-x="492" 
d="M14 284l71 31l77 -186l68 173l33 13l72 -185l76 185l71 -31l-117 -278l-54 -14l-63 152l-56 -137l-56 -15zM190 426l122 92l42 -56l-122 -92z" />
    <glyph glyph-name="Wdieresis" unicode="&#x1e84;" horiz-adv-x="685" 
d="M7 474l78 30l125 -339l115 327l39 13l119 -341l115 340l77 -30l-164 -467l-49 -16l-116 316l-108 -300l-49 -16zM463 622q0 -22 -15.5 -35.5t-35.5 -13.5t-34.5 15t-14.5 34q0 20 14.5 35.5t34.5 15.5t35.5 -15.5t15.5 -35.5zM339 622q0 -22 -15.5 -35.5t-35.5 -13.5
q-21 0 -35 15t-14 34q0 20 14.5 35.5t34.5 15.5t35.5 -15.5t15.5 -35.5z" />
    <glyph glyph-name="wdieresis" unicode="&#x1e85;" horiz-adv-x="491" 
d="M14 284l71 31l77 -186l68 173l33 13l72 -185l76 185l71 -31l-117 -278l-54 -14l-63 152l-56 -137l-56 -15zM365 418q0 -22 -15.5 -35.5t-35.5 -13.5t-34.5 15t-14.5 34q0 20 14.5 35.5t34.5 15.5t35.5 -15.5t15.5 -35.5zM241 418q0 -22 -15.5 -35.5t-35.5 -13.5
q-21 0 -35 15t-14 34q0 20 14.5 35.5t34.5 15.5t35.5 -15.5t15.5 -35.5z" />
    <glyph glyph-name="Ygrave" unicode="&#x1ef2;" horiz-adv-x="378" 
d="M149 200l-142 265l72 42l111 -210l2 -8l113 218l72 -42l-145 -266v-199h-83v200zM152 675l123 -92l-43 -56l-122 92z" />
    <glyph glyph-name="ygrave" unicode="&#x1ef3;" horiz-adv-x="337" 
d="M15 -63q36 9 55 25.5t30 38.5q7 13 11.5 23t8.5 16q4 7 7 12q-28 54 -59.5 114t-57.5 113l70 35l89 -178l91 178l69 -35q-38 -75 -71 -138l-28 -54t-25.5 -50t-20.5 -40t-12 -24q-18 -35 -48 -62.5t-75 -41.5zM139 529l123 -92l-43 -56l-122 92z" />
    <glyph glyph-name="endash" unicode="&#x2013;" horiz-adv-x="381" 
d="M44 295h295v-72h-295v72z" />
    <glyph glyph-name="emdash" unicode="&#x2014;" horiz-adv-x="531" 
d="M38 295h454v-72h-454v72z" />
    <glyph glyph-name="quoteleft" unicode="&#x2018;" horiz-adv-x="133" 
d="M120 595l-32 -70q11 -6 17.5 -17.5t6.5 -25.5q0 -22 -15.5 -35.5t-35.5 -13.5q-22 0 -36.5 13t-14.5 39q0 14 7.5 36.5t16.5 43.5q11 25 25 52z" />
    <glyph glyph-name="quoteright" unicode="&#x2019;" horiz-adv-x="133" 
d="M40 521q-11 7 -18 18t-7 25q0 21 15.5 35t35.5 14q22 0 36.5 -13.5t14.5 -39.5q0 -14 -8 -36.5t-17 -43.5q-11 -26 -24 -52l-60 23z" />
    <glyph glyph-name="quotesinglbase" unicode="&#x201a;" horiz-adv-x="159" 
d="M57 -39q-24 14 -24 42q0 23 15.5 36.5t35.5 13.5q21 0 36 -13.5t15 -39.5q0 -14 -8 -36.5t-17 -43.5q-11 -26 -24 -52l-60 22z" />
    <glyph glyph-name="quotedblleft" unicode="&#x201c;" horiz-adv-x="248" 
d="M237 595l-31 -70q11 -6 17 -17.5t6 -25.5q0 -22 -15.5 -35.5t-35.5 -13.5q-21 0 -36 13t-15 39q0 14 7.5 36.5t16.5 43.5q11 25 25 52zM123 595l-32 -70q11 -6 17.5 -17.5t6.5 -25.5q0 -22 -15.5 -35.5t-35.5 -13.5q-21 0 -36 13t-15 39q0 14 7.5 36.5t16.5 43.5
q11 25 25 52z" />
    <glyph glyph-name="quotedblright" unicode="&#x201d;" horiz-adv-x="245" 
d="M153 521q-23 14 -23 43q0 21 15 35t35 14q21 0 36.5 -13.5t15.5 -39.5q0 -14 -8 -36.5t-17 -43.5q-11 -26 -25 -52l-60 23zM39 521q-11 7 -17.5 18t-6.5 25q0 21 15 35t35 14q23 0 37.5 -13.5t14.5 -39.5q0 -14 -8 -36.5t-17 -43.5q-11 -26 -24 -52l-60 23z" />
    <glyph glyph-name="quotedblbase" unicode="&#x201e;" horiz-adv-x="241" 
d="M144 -39q-23 15 -23 42q0 23 15 36.5t35 13.5q22 0 36.5 -13.5t14.5 -39.5q0 -14 -7.5 -36.5t-16.5 -43.5q-11 -26 -24 -52l-62 22zM34 -39q-24 14 -24 42q0 23 15 36.5t35 13.5q22 0 37 -13.5t15 -39.5q0 -14 -8 -36.5t-17 -43.5q-11 -26 -25 -52l-60 22z" />
    <glyph glyph-name="dagger" unicode="&#x2020;" horiz-adv-x="359" 
d="M145 269h-112v72h112v137h72v-137h112v-72h-112v-269h-72v269z" />
    <glyph glyph-name="daggerdbl" unicode="&#x2021;" horiz-adv-x="362" 
d="M145 141h-112v72h112v56h-112v72h112v137h72v-137h112v-72h-112v-56h112v-72h-112v-141h-72v141z" />
    <glyph glyph-name="bullet" unicode="&#x2022;" horiz-adv-x="266" 
d="M45 305q0 38 26 64t63 26t63 -26t26 -63q0 -38 -26 -63.5t-63 -25.5t-63 25.5t-26 62.5z" />
    <glyph glyph-name="ellipsis" unicode="&#x2026;" horiz-adv-x="676" 
d="M544 -6q-21 0 -35 14.5t-14 35.5q0 20 14.5 34.5t34.5 14.5t34.5 -14.5t14.5 -34.5t-14.5 -35t-34.5 -15zM349 -6q-20 0 -34.5 14.5t-14.5 35.5q0 20 14.5 34.5t34.5 14.5q21 0 35.5 -14.5t14.5 -34.5t-14.5 -35t-35.5 -15zM154 -6q-21 0 -35 14.5t-14 35.5
q0 20 14.5 34.5t34.5 14.5q21 0 35 -14.5t14 -34.5t-14 -35t-35 -15z" />
    <glyph glyph-name="perthousand" unicode="&#x2030;" horiz-adv-x="814" 
d="M41 263q-1 11 -1 22v36q0 30 3 59t13.5 51.5t30.5 36t54 13.5t54 -13.5t30.5 -36t13.5 -51.5t3 -59q0 -31 -3.5 -59.5t-14 -50t-30.5 -34.5t-53 -13q-47 0 -72 29.5t-28 72.5v-3zM575 91q-1 10 -1 24v31q0 31 3.5 60t14 51t30.5 35t53 13t53 -13t30.5 -35t14 -51t3.5 -60
t-3.5 -59.5t-14 -50t-30.5 -34.5t-53 -13q-47 0 -71 29.5t-29 72.5zM351 91q-1 10 -1 24v31q0 31 3 60t13.5 51t30.5 35t53 13q34 0 54 -13t30.5 -35t13.5 -51t3 -60t-3 -59.5t-13.5 -50t-30.5 -34.5t-54 -13q-46 0 -70 29.5t-29 72.5zM387 484l53 -25l-237 -476l-53 25z
M450 43q14 0 22 8t12 21t5 29.5t1 33.5v30q0 16 -1 31t-5.5 27t-12.5 19.5t-21 7.5q-16 0 -24.5 -10.5t-12 -27t-4 -36.5t-0.5 -39q0 -16 1 -33t5 -30.5t12 -22t23 -8.5zM142 218q16 0 24 11t11.5 28.5t3.5 38v38.5q0 15 -1 31t-5 29.5t-12 22.5t-21 9q-18 0 -26.5 -12.5
t-12 -31t-3.5 -39.5v-37q0 -15 1 -31t5.5 -28.5t12.5 -20.5t23 -8zM675 43q16 0 24.5 11t12 28t3.5 37v39q0 16 -1 32t-5 29.5t-12 22t-22 8.5q-16 0 -24.5 -10.5t-12 -27t-4 -36.5t-0.5 -39q0 -16 1 -33t5 -30.5t12 -22t23 -8.5z" />
    <glyph glyph-name="minute" unicode="&#x2032;" horiz-adv-x="177" 
d="M71 675h79l-50 -292h-79z" />
    <glyph glyph-name="second" unicode="&#x2033;" horiz-adv-x="301" 
d="M65 675h79l-50 -292h-79zM195 675h79l-50 -292h-79z" />
    <glyph glyph-name="guilsinglleft" unicode="&#x2039;" horiz-adv-x="182" 
d="M2 162l102 140l58 -43l-76 -97l77 -98l-59 -42z" />
    <glyph glyph-name="guilsinglright" unicode="&#x203a;" horiz-adv-x="172" 
d="M77 162l-77 97l58 43l103 -140l-103 -140l-57 42z" />
    <glyph glyph-name="fraction" unicode="&#x2044;" horiz-adv-x="99" 
d="M138 492l49 -25l-249 -503l-48 23z" />
    <glyph glyph-name="uni2070" unicode="&#x2070;" horiz-adv-x="287" 
d="M142 157q-33 0 -53.5 13t-31 35t-14 50.5t-3.5 59.5q0 33 2.5 64.5t13 55.5t30.5 38.5t56 14.5t57 -14.5t31.5 -38.5t13.5 -54.5t3 -63.5q0 -31 -3.5 -60t-15 -51t-32 -35.5t-54.5 -13.5zM143 207q20 0 30 12.5t14.5 32t4.5 42.5v44q0 16 -1.5 33.5t-6.5 32.5t-14.5 24.5
t-26.5 9.5q-16 0 -25.5 -8.5t-14.5 -22t-6.5 -30t-1.5 -32.5v-45t4 -45t14 -34.5t30 -13.5z" />
    <glyph glyph-name="uni2074" unicode="&#x2074;" horiz-adv-x="290" 
d="M20 262l138 234l46 -28l-100 -174l-7 -8h52v33l56 65v-98h65l-52 -51h-13v-68h-56v68h-129v27z" />
    <glyph glyph-name="uni2075" unicode="&#x2075;" horiz-adv-x="288" 
d="M76 229q11 -10 24.5 -16.5t30.5 -6.5q21 0 40 15.5t19 54.5q0 23 -12 38.5t-30 15.5q-20 0 -33.5 -7.5t-24.5 -16.5l-29 28v148h187l-52 -50h-84v-59q8 2 17 4.5t20 2.5q42 0 70.5 -28.5t28.5 -75.5q0 -32 -10.5 -54.5t-27 -37t-37.5 -21.5t-42 -7q-30 0 -52 10.5
t-39 25.5z" />
    <glyph glyph-name="uni2076" unicode="&#x2076;" horiz-adv-x="264" 
d="M194 464l-61 -86q49 0 80 -31.5t31 -77.5q0 -23 -9 -43t-24 -35t-35.5 -23.5t-43.5 -8.5t-43.5 8.5t-35.5 23.5t-24 35t-9 43q0 15 5 31.5t10 24.5q8 14 28 41.5t40 55.5q24 33 50 70zM132 205q27 0 42 19.5t15 44.5q0 26 -15 45.5t-42 19.5q-26 0 -42 -18.5t-16 -46.5
q0 -25 17 -44.5t41 -19.5z" />
    <glyph glyph-name="uni2077" unicode="&#x2077;" horiz-adv-x="264" 
d="M40 173q21 63 54.5 129.5t68.5 127.5h-93l-50 51h217l7 -14q-18 -33 -40 -73t-43 -82t-39.5 -83.5t-30.5 -76.5z" />
    <glyph glyph-name="uni2078" unicode="&#x2078;" horiz-adv-x="278" 
d="M194 345q11 -5 21 -14t17.5 -21t11.5 -24.5t4 -22.5q0 -22 -9 -41t-24 -33.5t-35 -22.5t-41 -8q-22 0 -41.5 8t-34.5 22.5t-24 33.5t-9 41q0 26 14.5 49.5t37.5 32.5q-17 8 -26 24t-9 34q0 37 27.5 61t64.5 24q36 0 63 -24t27 -61q0 -17 -9 -33t-26 -25zM139 366
q15 0 24.5 10.5t9.5 26.5q0 15 -9.5 25.5t-24.5 10.5q-17 0 -26.5 -10.5t-9.5 -25.5q0 -16 9.5 -26.5t26.5 -10.5zM86 263q0 -21 15.5 -36.5t37.5 -15.5q21 0 36.5 15.5t15.5 36.5q0 23 -15.5 39t-36.5 16q-23 0 -38 -16t-15 -39z" />
    <glyph glyph-name="uni2079" unicode="&#x2079;" horiz-adv-x="264" 
d="M135 271q-5 -1 -8.5 -1h-8.5q-22 0 -40 8.5t-31 22.5t-20 33t-7 40q0 23 9 43.5t24.5 35.5t35.5 23.5t43 8.5q24 0 44.5 -8.5t35.5 -23.5t23.5 -35.5t8.5 -43.5q0 -20 -6.5 -36t-11.5 -24q-10 -14 -28.5 -41t-38.5 -54q-23 -32 -48 -68l-41 29zM132 311q26 0 42 17.5
t16 45.5q0 26 -16 45t-42 19q-25 0 -41 -19t-16 -45q0 -25 15 -44t42 -19z" />
    <glyph glyph-name="lira" unicode="&#x20a4;" horiz-adv-x="389" 
d="M40 287h37q-7 17 -11 33t-4 29q0 28 11 52t30.5 42t46 28t56.5 10q45 0 76 -15.5t56 -36.5l-53 -52q-15 14 -33.5 23.5t-44.5 9.5t-44 -18t-18 -41q0 -12 4.5 -29t12.5 -35h106v-53h-82l14 -29h68v-57h-47q2 -10 2 -17q0 -12 -3 -24.5t-7 -23.5q32 -17 43 -17
q15 0 27 16.5t23 32.5l64 -36q-27 -43 -49 -66t-61 -23q-23 0 -40.5 7t-32 15t-27.5 15t-27 7t-27 -16.5t-22 -32.5l-65 37q11 17 22 32.5t23.5 27t29 18.5t39.5 7q5 10 5 18q0 6 -2 11.5t-5 11.5h-91v57h73l-13 29h-60v53z" />
    <glyph glyph-name="Euro" unicode="&#x20ac;" horiz-adv-x="603" 
d="M56 224h118l5 32h-113l24 72h101q13 36 36 64.5t53 48.5t66 31t77 11q35 0 71 -11.5t68 -33.5l-52 -52q-22 12 -43.5 19t-43.5 7q-47 0 -85.5 -21.5t-58.5 -62.5h133l-24 -72h-126q0 -11 -2 -19t-2 -13l121 -1l-25 -72h-76q23 -38 61.5 -64t83.5 -26q22 0 44 8.5t44 24.5
l53 -54q-26 -23 -65.5 -36t-75.5 -13q-40 0 -76 12t-66.5 33t-54 50.5t-37.5 64.5h-157z" />
    <glyph glyph-name="uni2105" unicode="&#x2105;" horiz-adv-x="767" 
d="M458 484l53 -25l-236 -476l-53 25zM299 228q-20 -22 -52 -37t-69 -15q-33 0 -62.5 12.5t-51.5 34t-35 50t-13 61.5t13 61.5t35 50.5t51 34.5t62 12.5q34 0 64 -13.5t56 -35.5l-48 -48q-15 11 -32 20.5t-39 9.5q-18 0 -33 -8t-26.5 -20.5t-18 -29t-6.5 -34.5t6 -34t17 -29
t26 -20.5t33 -7.5q20 0 40 10.5t35 22.5zM424 152q0 33 12.5 61.5t34.5 50.5t51 34.5t62 12.5t62 -12.5t50.5 -34.5t34.5 -50.5t13 -61.5t-13 -61.5t-34.5 -50t-50.5 -34t-62 -12.5t-62 12.5t-51 34t-34.5 50t-12.5 61.5zM584 61q18 0 33 7.5t26 20.5t17 29t6 34t-6 34.5
t-17 29t-26 20.5t-33 8t-33 -8t-26 -20.5t-17 -29t-6 -34.5t6 -34t17 -29t26 -20.5t33 -7.5z" />
    <glyph glyph-name="uni2113" unicode="&#x2113;" horiz-adv-x="476" 
d="M439 18q-32 -14 -66 -23t-70 -9q-35 0 -67 10.5t-58 33t-44.5 56.5t-26.5 82q-11 -9 -20.5 -16.5t-17.5 -13.5q-9 -7 -17 -12l-37 50q16 13 32 25q13 11 27 21.5t22 17.5q-3 21 -4 46t-1 54q0 57 10 119.5t32.5 115t58.5 87t88 34.5q57 0 92 -36t35 -103q0 -51 -20 -98
t-52 -89.5t-72 -80.5t-79 -71q5 -78 38.5 -119.5t94.5 -41.5q27 0 52 8t47 18zM174 297q35 31 64.5 63.5t51 65.5t33.5 65.5t12 61.5q0 21 -5.5 35.5t-13.5 23.5t-18 12.5t-20 3.5q-31 0 -51.5 -32t-32.5 -78t-17 -97t-5 -90v-18.5t2 -15.5z" />
    <glyph glyph-name="uni2116" unicode="&#x2116;" horiz-adv-x="824" 
d="M477 150h300v-72h-300v72zM38 487l49 17l252 -321v311h83v-486l-38 -16l-263 330v-322h-83v487zM465 342q0 33 12.5 61.5t34.5 50.5t51 34.5t62 12.5t62 -12.5t50.5 -34.5t34.5 -50.5t13 -61.5t-13 -61.5t-34.5 -50t-50.5 -34t-62 -12.5t-62 12.5t-51 34t-34.5 50
t-12.5 61.5zM625 251q18 0 33 7.5t26 20.5t17 29t6 34t-6 34.5t-17 29t-26 20.5t-33 8t-33 -8t-26 -20.5t-17 -29t-6 -34.5t6 -34t17 -29t26 -20.5t33 -7.5z" />
    <glyph glyph-name="trademark" unicode="&#x2122;" horiz-adv-x="431" 
d="M186 574h40l59 -154l58 154h40l36 -251l-53 -7l-18 126l-44 -116l-33 -10l-51 126l-18 -126l-52 7zM60 525h-50v49h154v-48h-51v-205h-53v204z" />
    <glyph glyph-name="estimated" unicode="&#x212e;" horiz-adv-x="693" 
d="M359 -10q-71 0 -125 25t-90 68.5t-54.5 101t-18.5 123.5t21.5 123.5t60 101t91 68.5t114.5 25q72 0 123 -25.5t84.5 -69t50 -101.5t19.5 -123h-494v-12q0 -51 15.5 -97t44 -80.5t69 -54.5t91.5 -20q66 0 121.5 22t106.5 61l30 -41q-41 -31 -77 -50t-68.5 -29t-61 -13
t-53.5 -3zM564 354q-6 48 -20.5 89t-40 70.5t-61.5 46t-84 16.5q-42 0 -79 -16.5t-65.5 -45.5t-47 -70t-24.5 -90h422z" />
    <glyph glyph-name="oneeighth" unicode="&#x215b;" horiz-adv-x="633" 
d="M378 484l53 -25l-236 -476l-53 25zM70 220h31v186l-54 -28v61l67 35h49v-254h28v-55h-121v55zM539 180q11 -5 21 -14t17.5 -21t11.5 -24.5t4 -22.5q0 -22 -9 -41t-24 -33.5t-35 -22.5t-41 -8q-22 0 -41.5 8t-34.5 22.5t-24 33.5t-9 41q0 26 14.5 49.5t37.5 32.5
q-17 8 -26 24t-9 34q0 37 27.5 61t64.5 24q36 0 63 -24t27 -61q0 -17 -9 -33t-26 -25zM484 201q15 0 24.5 10.5t9.5 26.5q0 15 -9.5 25.5t-24.5 10.5q-17 0 -26.5 -10.5t-9.5 -25.5q0 -16 9.5 -26.5t26.5 -10.5zM431 98q0 -21 15.5 -36.5t37.5 -15.5q21 0 36.5 15.5
t15.5 36.5q0 23 -15.5 39t-36.5 16q-23 0 -38 -16t-15 -39z" />
    <glyph glyph-name="threeeighths" unicode="&#x215c;" horiz-adv-x="700" 
d="M438 484l53 -25l-236 -476l-53 25zM599 180q11 -5 21 -14t17.5 -21t11.5 -24.5t4 -22.5q0 -22 -9 -41t-24 -33.5t-35 -22.5t-41 -8q-22 0 -41.5 8t-34.5 22.5t-24 33.5t-9 41q0 26 14.5 49.5t37.5 32.5q-17 8 -26 24t-9 34q0 37 27.5 61t64.5 24q36 0 63 -24t27 -61
q0 -17 -9 -33t-26 -25zM544 201q15 0 24.5 10.5t9.5 26.5q0 15 -9.5 25.5t-24.5 10.5q-17 0 -26.5 -10.5t-9.5 -25.5q0 -16 9.5 -26.5t26.5 -10.5zM491 98q0 -21 15.5 -36.5t37.5 -15.5q21 0 36.5 15.5t15.5 36.5q0 23 -15.5 39t-36.5 16q-23 0 -38 -16t-15 -39zM93 230
q11 -10 24 -16.5t30 -6.5q21 0 37.5 15.5t16.5 41.5q0 22 -19.5 35.5t-42.5 13.5v46q25 2 38.5 14.5t13.5 29.5q0 16 -9 25.5t-26 9.5t-28.5 -7.5t-25.5 -18.5l-36 36q17 14 37.5 27t52.5 13q43 0 68 -25t25 -60q0 -20 -12.5 -38t-29.5 -26q22 -10 36.5 -29.5t14.5 -45.5
t-9.5 -46t-24.5 -33.5t-35 -20.5t-41 -7q-31 0 -53 10.5t-39 25.5z" />
    <glyph glyph-name="fiveeighths" unicode="&#x215d;" horiz-adv-x="700" 
d="M438 484l53 -25l-236 -476l-53 25zM599 180q11 -5 21 -14t17.5 -21t11.5 -24.5t4 -22.5q0 -22 -9 -41t-24 -33.5t-35 -22.5t-41 -8q-22 0 -41.5 8t-34.5 22.5t-24 33.5t-9 41q0 26 14.5 49.5t37.5 32.5q-17 8 -26 24t-9 34q0 37 27.5 61t64.5 24q36 0 63 -24t27 -61
q0 -17 -9 -33t-26 -25zM544 201q15 0 24.5 10.5t9.5 26.5q0 15 -9.5 25.5t-24.5 10.5q-17 0 -26.5 -10.5t-9.5 -25.5q0 -16 9.5 -26.5t26.5 -10.5zM491 98q0 -21 15.5 -36.5t37.5 -15.5q21 0 36.5 15.5t15.5 36.5q0 23 -15.5 39t-36.5 16q-23 0 -38 -16t-15 -39zM88 229
q11 -10 24.5 -16.5t30.5 -6.5q21 0 40 15.5t19 54.5q0 23 -12 38.5t-30 15.5q-20 0 -33.5 -7.5t-24.5 -16.5l-29 28v148h187l-52 -50h-84v-59q8 2 17 4.5t20 2.5q42 0 70.5 -28.5t28.5 -75.5q0 -32 -10.5 -54.5t-27 -37t-37.5 -21.5t-42 -7q-30 0 -52 10.5t-39 25.5z" />
    <glyph glyph-name="seveneighths" unicode="&#x215e;" horiz-adv-x="700" 
d="M428 484l53 -25l-236 -476l-53 25zM589 180q11 -5 21 -14t17.5 -21t11.5 -24.5t4 -22.5q0 -22 -9 -41t-24 -33.5t-35 -22.5t-41 -8q-22 0 -41.5 8t-34.5 22.5t-24 33.5t-9 41q0 26 14.5 49.5t37.5 32.5q-17 8 -26 24t-9 34q0 37 27.5 61t64.5 24q36 0 63 -24t27 -61
q0 -17 -9 -33t-26 -25zM534 201q15 0 24.5 10.5t9.5 26.5q0 15 -9.5 25.5t-24.5 10.5q-17 0 -26.5 -10.5t-9.5 -25.5q0 -16 9.5 -26.5t26.5 -10.5zM481 98q0 -21 15.5 -36.5t37.5 -15.5q21 0 36.5 15.5t15.5 36.5q0 23 -15.5 39t-36.5 16q-23 0 -38 -16t-15 -39zM102 173
q21 63 54.5 129.5t68.5 127.5h-93l-50 51h217l7 -14q-18 -33 -40 -73t-43 -82t-39.5 -83.5t-30.5 -76.5z" />
    <glyph glyph-name="arrowleft" unicode="&#x2190;" horiz-adv-x="448" 
d="M20 257l206 175l43 -52l-130 -100h292v-68h-291l129 -98l-43 -52l-206 178v17z" />
    <glyph glyph-name="arrowup" unicode="&#x2191;" horiz-adv-x="448" 
d="M235 452l175 -206l-52 -43l-100 130v-292h-68v291l-98 -129l-52 43l178 206h17z" />
    <glyph glyph-name="arrowright" unicode="&#x2192;" horiz-adv-x="448" 
d="M431 240l-206 -178l-43 52l129 98h-291v68h292l-130 100l43 52l206 -175v-17z" />
    <glyph glyph-name="arrowdown" unicode="&#x2193;" horiz-adv-x="448" 
d="M215 41l-175 206l52 43l100 -130v292h68v-291l98 129l52 -43l-178 -206h-17z" />
    <glyph glyph-name="arrowboth" unicode="&#x2194;" horiz-adv-x="706" 
d="M681 240l-206 -178l-43 52l129 98h-421l129 -98l-43 -52l-206 178v17l206 175l43 -52l-130 -100h423l-130 100l43 52l206 -175v-17z" />
    <glyph glyph-name="arrowupdn" unicode="&#x2195;" horiz-adv-x="434" 
d="M227 577l178 -206l-52 -43l-98 129v-421l98 129l52 -43l-178 -206h-17l-175 206l52 43l100 -130v423l-100 -130l-52 43l175 206h17z" />
    <glyph glyph-name="partialdiff" unicode="&#x2202;" horiz-adv-x="354" 
d="M85 427l59 41q38 -53 71 -100q29 -40 56.5 -79.5t41.5 -59.5q11 -17 16 -37.5t5 -42.5q0 -33 -12.5 -61.5t-34.5 -50t-51 -34t-62 -12.5q-32 0 -61 12.5t-51 34t-35 50t-13 61.5t12 61.5t33 49.5t50.5 33t64.5 12zM174 58q18 0 33 7.5t26 20.5t17.5 29t6.5 34
q0 40 -23 66t-60 26q-38 0 -60 -28t-22 -64q0 -18 6 -34t16.5 -29t25.5 -20.5t34 -7.5z" />
    <glyph glyph-name="product" unicode="&#x220f;" horiz-adv-x="673" 
d="M468 -91v688h-295v-688h-83v765h460v-765h-82z" />
    <glyph glyph-name="summation" unicode="&#x2211;" horiz-adv-x="523" 
d="M34 -87v72l231 325l-223 290v75h444v-76h-340l222 -286l-234 -324h358v-76h-458z" />
    <glyph glyph-name="minus" unicode="&#x2212;" horiz-adv-x="387" 
d="M20 295h347v-72h-347v72z" />
    <glyph glyph-name="radical" unicode="&#x221a;" horiz-adv-x="500" 
d="M48 233l64 31l81 -173l130 280h156v-72h-110l-141 -299h-70z" />
    <glyph glyph-name="infinity" unicode="&#x221e;" horiz-adv-x="437" 
d="M219 133q-14 -17 -36 -27.5t-45 -10.5q-22 0 -42 8.5t-35 23.5t-24 34.5t-9 42.5t9 43t24 35t35 23.5t42 8.5q25 0 46 -9.5t35 -27.5q14 17 36 27t43 10q23 0 43.5 -8.5t35.5 -23.5t24 -35t9 -43t-9 -42.5t-24 -34.5t-35.5 -23.5t-43.5 -8.5q-24 0 -45 10t-34 28z
M298 149q23 0 37.5 16t14.5 39t-14.5 39.5t-37.5 16.5q-21 0 -35.5 -17t-14.5 -39q0 -20 14.5 -37.5t35.5 -17.5zM138 149q22 0 36.5 16t14.5 39t-14.5 39.5t-36.5 16.5q-21 0 -36 -16.5t-15 -39.5t15 -39t36 -16z" />
    <glyph glyph-name="integral" unicode="&#x222b;" horiz-adv-x="159" 
d="M-64 -140q43 2 63 28.5t20 61.5v314q0 32 10 60.5t30 50t50 34.5t71 13v-69h-8q-23 0 -37.5 -8t-23.5 -20.5t-12.5 -28.5t-3.5 -32v-314q0 -32 -9.5 -60.5t-29.5 -50t-50 -34t-70 -12.5v67z" />
    <glyph glyph-name="approxequal" unicode="&#x2248;" horiz-adv-x="434" 
d="M58 210q10 13 19 25.5t20.5 22t26.5 15t36 5.5q22 0 41 -6.5t34 -14t27.5 -14t21.5 -6.5q14 0 27 17t22 32l65 -35l-16 -24q-8 -12 -16.5 -24t-19 -21.5t-24.5 -15t-33 -5.5q-22 0 -39.5 7t-32.5 15t-29 15t-28 7t-26.5 -16.5t-22.5 -31.5l-65 36zM58 71q10 14 19 26.5
t20.5 22t26.5 15t36 5.5q22 0 40 -6.5t33.5 -14t28 -14t22.5 -6.5q14 0 27 16.5t22 32.5l65 -36l-16 -24l-16 -24t-18.5 -21t-24.5 -14.5t-34 -5.5q-23 0 -40.5 7t-32.5 15t-28.5 15t-27.5 7t-26.5 -16.5t-22.5 -32.5l-65 36z" />
    <glyph glyph-name="notequal" unicode="&#x2260;" horiz-adv-x="366" 
d="M45 73h-25v72h93l41 42h-134v72h203l71 73l51 -50l-22 -23h19v-72h-89l-41 -42h130v-72h-199l-78 -82l-52 50z" />
    <glyph glyph-name="equivalence" unicode="&#x2261;" horiz-adv-x="493" 
d="M60 125h382v-68h-382v68zM60 253h382v-68h-382v68zM60 381h382v-68h-382v68z" />
    <glyph glyph-name="lessequal" unicode="&#x2264;" horiz-adv-x="200" 
d="M21 222l102 139l58 -41l-76 -98l76 -98l-58 -42zM17 70h169v-70h-169v70z" />
    <glyph glyph-name="greaterequal" unicode="&#x2265;" horiz-adv-x="200" 
d="M98 224l-78 98l58 42l103 -140l-103 -140l-57 42zM17 70h169v-70h-169v70z" />
    <glyph glyph-name="revlogicalnot" unicode="&#x2310;" horiz-adv-x="494" 
d="M479 162h-377v-162h-77v238h454v-76z" />
    <glyph glyph-name="lozenge" unicode="&#x25ca;" horiz-adv-x="325" 
d="M19 228l106 226h71l108 -228l-106 -226h-71zM162 91l62 135l-63 137l-63 -136z" />
    <glyph glyph-name="uniFB00" unicode="&#xfb00;" horiz-adv-x="380" 
d="M242 237h-113v-237h-77v237h-37v67h37v21q0 33 10 61.5t29.5 50t49.5 34.5t71 13v-68h-9q-20 0 -34 -8t-23 -20.5t-13 -29t-4 -33.5v-21h113v21q0 33 10 61.5t29.5 50t49.5 34.5t71 13v-68h-9q-20 0 -34 -8t-23 -20.5t-13 -29t-4 -33.5v-21h101l-69 -67h-32v-237h-77v237
z" />
    <glyph glyph-name="uniFB01" unicode="&#xfb01;" horiz-adv-x="387" 
d="M52 237h-37v67h37v21q0 33 10 61.5t29.5 50t49.5 34.5t71 13v-68h-9q-20 0 -34 -8t-23 -20.5t-13 -29t-4 -33.5v-21h101l-69 -67h-32v-237h-77v237zM250 389q0 22 14.5 36t35.5 14t35.5 -14t14.5 -36t-14.5 -36t-34.5 -14q-22 0 -36.5 14.5t-14.5 35.5zM268 237h-25v67
h102v-304h-77v237z" />
    <glyph glyph-name="uniFB02" unicode="&#xfb02;" horiz-adv-x="367" 
d="M52 237h-37v67h37v21q0 33 10 61.5t29.5 50t49.5 34.5t71 13v-68h-9q-20 0 -34 -8t-23 -20.5t-13 -29t-4 -33.5v-21h101l-69 -67h-32v-237h-77v237zM248 510l77 9v-392q0 -26 5.5 -46.5t33.5 -37.5l-54 -54q-19 13 -31 26t-19 29t-9.5 36t-2.5 47v383z" />
    <glyph glyph-name="uniFB03" unicode="&#xfb03;" horiz-adv-x="582" 
d="M445 389q0 22 14.5 36t35.5 14t35.5 -14t14.5 -36t-14.5 -36t-34.5 -14q-22 0 -36.5 14.5t-14.5 35.5zM463 237h-25v67h102v-304h-77v237zM255 336q0 32 10 60.5t29.5 50t49.5 34.5t71 13v-67q-45 0 -64 -27t-19 -64v-32h73v-67h-73v-237h-77v237h-120v-237h-77v237h-37
v67l37 1q0 32 8 61t26 51t46.5 35.5t69.5 13.5v-67q-23 0 -37 -7.5t-22 -20.5t-11 -30.5t-3 -36.5h120v32z" />
    <glyph glyph-name="uniFB04" unicode="&#xfb04;" horiz-adv-x="568" 
d="M445 510l77 9v-392q0 -26 5.5 -46.5t33.5 -37.5l-54 -54q-19 13 -31 26t-19 29t-9.5 36t-2.5 47v383zM255 336q0 32 10 60.5t29.5 50t49.5 34.5t71 13v-67q-45 0 -64 -27t-19 -64v-32h73v-67h-73v-237h-77v237h-120v-237h-77v237h-37v67l37 1q0 32 8 61t26 51t46.5 35.5
t69.5 13.5v-67q-23 0 -37 -7.5t-22 -20.5t-11 -30.5t-3 -36.5h120v32z" />
    <glyph glyph-name="uniFB05" unicode="&#xfb05;" horiz-adv-x="365" 
d="M198 416q-18 0 -30 -8t-19.5 -20.5t-10.5 -29t-3 -33.5v-325h-77v236h-37v68h37v21q0 32 8 61t25 50.5t43.5 34t63.5 12.5v-67zM216 237h-43v23l120 120v-76h85l-70 -67h-15v-110q0 -26 6 -46t33 -37l-54 -55q-19 13 -31 26t-19 29t-9.5 36t-2.5 47v110z" />
    <glyph glyph-name="uniFB06" unicode="&#xfb06;" horiz-adv-x="423" 
d="M277 237h-43q-43 0 -69.5 3.5t-37.5 3.5q-9 0 -17 -5.5t-8 -14.5q0 -5 4.5 -9.5t11 -8t13.5 -6t12 -5.5l13 -7q35 -17 55 -37t20 -60q0 -45 -31 -71t-75 -26q-36 0 -67.5 14.5t-56.5 36.5l48 49q17 -13 36 -23t39 -10q11 0 20.5 7.5t9.5 20.5q0 14 -15 21.5t-28 14.5
l-14 7q-13 5 -26 13t-23 18.5t-16.5 24t-6.5 30.5q0 20 8 37t22 29.5t32.5 19.5t38.5 7t34.5 -1t30 -2.5t36 -2.5t51.5 -1l76 76v-76h85l-70 -67h-15v-110q0 -26 6 -46t33 -37l-54 -55q-19 13 -31 26t-19 29t-9.5 36t-2.5 47v110z" />
    <glyph glyph-name="glyph172" horiz-adv-x="227" 
d="M11 507q0 21 8 39t22 31.5t32.5 21t39.5 7.5q20 0 38.5 -7.5t32 -21t21.5 -31.5t8 -39t-8 -39t-21.5 -32t-32 -22t-38.5 -8q-21 0 -39.5 8t-32.5 22t-22 32t-8 39zM113 457q18 0 30.5 15t12.5 35q0 19 -12.5 34.5t-30.5 15.5q-20 0 -32.5 -15.5t-12.5 -34.5
q0 -20 12.5 -35t32.5 -15z" />
    <glyph glyph-name="glyph178" horiz-adv-x="489" 
d="M130 682l63 -49l62 49l42 -57l-104 -79l-105 79z" />
    <glyph glyph-name="glyph198" horiz-adv-x="287" 
d="M142 -8q-33 0 -53.5 13t-31 35t-14 50.5t-3.5 59.5q0 33 2.5 64.5t13 55.5t30.5 38.5t56 14.5t57 -14.5t31.5 -38.5t13.5 -54.5t3 -63.5q0 -31 -3.5 -60t-15 -51t-32 -35.5t-54.5 -13.5zM143 42q20 0 30 12.5t14.5 32t4.5 42.5v44q0 16 -1.5 33.5t-6.5 32.5t-14.5 24.5
t-26.5 9.5q-16 0 -25.5 -8.5t-14.5 -22t-6.5 -30t-1.5 -32.5v-45t4 -45t14 -34.5t30 -13.5z" />
    <glyph glyph-name="glyph199" horiz-adv-x="226" 
d="M65 49h34v212l-59 -29v55l69 35h45v-273h32v-49h-121v49z" />
    <glyph glyph-name="glyph200" horiz-adv-x="306" 
d="M266 50l-50 -49h-176q8 37 32 68t47 54l21 21q16 16 31.5 38t15.5 54q0 17 -12.5 29t-29.5 12t-30.5 -7t-24.5 -16l-37 37q17 14 39 25t54 11q21 0 39 -7t31.5 -19.5t21.5 -29.5t8 -36q0 -40 -19.5 -68t-42.5 -53l-25 -27q-9 -10 -19 -19.5t-15 -17.5h141z" />
    <glyph glyph-name="glyph201" horiz-adv-x="282" 
d="M77 65q11 -10 24 -16.5t30 -6.5q21 0 37.5 15.5t16.5 41.5q0 22 -19.5 35.5t-42.5 13.5v46q25 2 38.5 14.5t13.5 29.5q0 16 -9 25.5t-26 9.5t-28.5 -7.5t-25.5 -18.5l-36 36q17 14 37.5 27t52.5 13q43 0 68 -25t25 -60q0 -20 -12.5 -38t-29.5 -26q22 -10 36.5 -29.5
t14.5 -45.5t-9.5 -46t-24.5 -33.5t-35 -20.5t-41 -7q-31 0 -53 10.5t-39 25.5z" />
    <glyph glyph-name="glyph202" horiz-adv-x="290" 
d="M20 97l138 234l46 -28l-100 -174l-7 -8h52v33l56 65v-98h65l-52 -51h-13v-68h-56v68h-129v27z" />
    <glyph glyph-name="glyph203" horiz-adv-x="288" 
d="M76 64q11 -10 24.5 -16.5t30.5 -6.5q21 0 40 15.5t19 54.5q0 23 -12 38.5t-30 15.5q-20 0 -33.5 -7.5t-24.5 -16.5l-29 28v148h187l-52 -50h-84v-59q8 2 17 4.5t20 2.5q42 0 70.5 -28.5t28.5 -75.5q0 -32 -10.5 -54.5t-27 -37t-37.5 -21.5t-42 -7q-30 0 -52 10.5
t-39 25.5z" />
    <glyph glyph-name="glyph204" horiz-adv-x="264" 
d="M194 299l-61 -86q49 0 80 -31.5t31 -77.5q0 -23 -9 -43t-24 -35t-35.5 -23.5t-43.5 -8.5t-43.5 8.5t-35.5 23.5t-24 35t-9 43q0 15 5 31.5t10 24.5q8 14 28 41.5t40 55.5q24 33 50 70zM132 40q27 0 42 19.5t15 44.5q0 26 -15 45.5t-42 19.5q-26 0 -42 -18.5t-16 -46.5
q0 -25 17 -44.5t41 -19.5z" />
    <glyph glyph-name="glyph205" horiz-adv-x="264" 
d="M40 8q21 63 54.5 129.5t68.5 127.5h-93l-50 51h217l7 -14q-18 -33 -40 -73t-43 -82t-39.5 -83.5t-30.5 -76.5z" />
    <glyph glyph-name="glyph206" horiz-adv-x="278" 
d="M194 180q11 -5 21 -14t17.5 -21t11.5 -24.5t4 -22.5q0 -22 -9 -41t-24 -33.5t-35 -22.5t-41 -8q-22 0 -41.5 8t-34.5 22.5t-24 33.5t-9 41q0 26 14.5 49.5t37.5 32.5q-17 8 -26 24t-9 34q0 37 27.5 61t64.5 24q36 0 63 -24t27 -61q0 -17 -9 -33t-26 -25zM139 201
q15 0 24.5 10.5t9.5 26.5q0 15 -9.5 25.5t-24.5 10.5q-17 0 -26.5 -10.5t-9.5 -25.5q0 -16 9.5 -26.5t26.5 -10.5zM86 98q0 -21 15.5 -36.5t37.5 -15.5q21 0 36.5 15.5t15.5 36.5q0 23 -15.5 39t-36.5 16q-23 0 -38 -16t-15 -39z" />
    <glyph glyph-name="glyph207" horiz-adv-x="264" 
d="M135 106q-5 -1 -8.5 -1h-8.5q-22 0 -40 8.5t-31 22.5t-20 33t-7 40q0 23 9 43.5t24.5 35.5t35.5 23.5t43 8.5q24 0 44.5 -8.5t35.5 -23.5t23.5 -35.5t8.5 -43.5q0 -20 -6.5 -36t-11.5 -24q-10 -14 -28.5 -41t-38.5 -54q-23 -32 -48 -68l-41 29zM132 146q26 0 42 17.5
t16 45.5q0 26 -16 45t-42 19q-25 0 -41 -19t-16 -45q0 -25 15 -44t42 -19z" />
    <glyph glyph-name="glyph212" horiz-adv-x="144" 
d="M40 -43q-11 8 -18.5 19.5t-7.5 27.5q0 23 16.5 38t38.5 15q23 0 39.5 -14t16.5 -43q0 -15 -8.5 -39.5t-18.5 -47.5q-12 -27 -27 -58l-65 25z" />
    <glyph glyph-name="glyph213" horiz-adv-x="159" 
d="M80 -11q-22 1 -37.5 15.5t-15.5 37.5q0 24 15.5 40t38.5 16t39 -16t16 -40q0 -25 -16 -39t-40 -14z" />
    <glyph glyph-name="glyph214" horiz-adv-x="165" 
d="M28 171q1 21 16 37.5t40 16.5q22 0 39 -15.5t17 -38.5q0 -25 -17.5 -40t-40.5 -15t-38.5 15t-15.5 40zM55 -43q-11 8 -18.5 19.5t-7.5 27.5q0 23 17 38t38 15q23 0 39.5 -14t16.5 -43q0 -15 -8.5 -39.5t-18.5 -47.5q-12 -27 -27 -58l-65 25z" />
    <glyph glyph-name="glyph215" horiz-adv-x="175" 
d="M88 155q-23 1 -38.5 17t-15.5 39t15.5 39.5t38.5 16.5q24 0 40 -16.5t16 -39.5q0 -24 -16 -40t-40 -16zM88 -7q-23 0 -38.5 16.5t-15.5 39.5q0 22 16 38t39 16t39 -16t16 -40t-16.5 -39t-39.5 -15z" />
    <glyph glyph-name="glyph216" horiz-adv-x="262" 
d="M39 295h187v-72h-187v72z" />
    <glyph glyph-name="glyph217" horiz-adv-x="281" 
d="M210 486l67 -28l-211 -474l-67 29z" />
    <glyph glyph-name="glyph221" horiz-adv-x="636" 
d="M299 46q-20 -22 -52 -37t-69 -15q-33 0 -62.5 12.5t-51.5 34t-35 50t-13 61.5t13 61.5t35 50.5t51 34.5t62 12.5q34 0 64 -13.5t56 -35.5l-48 -48q-15 11 -32 20.5t-39 9.5q-18 0 -33 -8t-26.5 -20.5t-18 -29t-6.5 -34.5t6 -34t17 -29t26 -20.5t33 -7.5q20 0 40 10.5
t35 22.5zM324 510l75 9v-241q12 11 32 21.5t43 10.5q69 0 97 -40t28 -118v-152h-76v151q0 17 -1.5 33.5t-7.5 30t-17 21.5t-30 8q-37 0 -52.5 -26.5t-15.5 -67.5v-150h-75v510z" />
    <glyph glyph-name="glyph222" horiz-adv-x="601" 
d="M52 237h-37v67h37v21q0 33 10 61.5t29.5 50t49.5 34.5t71 13v-68h-9q-20 0 -34 -8t-23 -20.5t-13 -29t-4 -33.5v-21h101l-69 -67h-32v-237h-77v237zM252 510l76 9v-245q13 13 35.5 24.5t51.5 11.5q36 0 64.5 -12.5t48.5 -34t30.5 -50t10.5 -61.5t-13 -62t-35 -50
t-51 -33.5t-62 -12.5q-26 0 -49 11.5t-35 28.5q0 -2 -0.5 -5t-0.5 -7q0 -7 0.5 -13.5t0.5 -8.5h-72v510zM408 61q18 0 33 7.5t26 20.5t17 29t6 34t-5 34.5t-15 29t-25.5 20.5t-36.5 8q-35 0 -59 -26t-24 -66q0 -43 24 -67t59 -24z" />
    <glyph glyph-name="glyph223" horiz-adv-x="780" 
d="M431 510l76 9v-245q13 13 35.5 24.5t51.5 11.5q36 0 64.5 -12.5t48.5 -34t30.5 -50t10.5 -61.5t-13 -62t-35 -50t-51 -33.5t-62 -12.5q-26 0 -49 11.5t-35 28.5q0 -2 -0.5 -5t-0.5 -7q0 -7 0.5 -13.5t0.5 -8.5h-72v510zM587 61q18 0 33 7.5t26 20.5t17 29t6 34t-5 34.5
t-15 29t-25.5 20.5t-36.5 8q-35 0 -59 -26t-24 -66q0 -43 24 -67t59 -24zM255 336q0 32 10 60.5t29.5 50t49.5 34.5t71 13v-67q-45 0 -64 -27t-19 -64v-32h73v-67h-73v-237h-77v237h-120v-237h-77v237h-37v67l37 1q0 32 8 61t26 51t46.5 35.5t69.5 13.5v-67q-23 0 -37 -7.5
t-22 -20.5t-11 -30.5t-3 -36.5h120v32z" />
    <glyph glyph-name="glyph224" horiz-adv-x="563" 
d="M52 237h-37v67h37v21q0 33 10 61.5t29.5 50t49.5 34.5t71 13v-68h-9q-20 0 -34 -8t-23 -20.5t-13 -29t-4 -33.5v-21h101l-69 -67h-32v-237h-77v237zM251 510l75 9v-241q12 11 32 21.5t43 10.5q69 0 97 -40t28 -118v-152h-76v151q0 17 -1.5 33.5t-7.5 30t-17 21.5t-30 8
q-37 0 -52.5 -26.5t-15.5 -67.5v-150h-75v510z" />
    <glyph glyph-name="glyph225" horiz-adv-x="750" 
d="M438 510l75 9v-241q12 11 32 21.5t43 10.5q69 0 97 -40t28 -118v-152h-76v151q0 17 -1.5 33.5t-7.5 30t-17 21.5t-30 8q-37 0 -52.5 -26.5t-15.5 -67.5v-150h-75v510zM255 336q0 32 10 60.5t29.5 50t49.5 34.5t71 13v-67q-45 0 -64 -27t-19 -64v-32h73v-67h-73v-237h-77
v237h-120v-237h-77v237h-37v67l37 1q0 32 8 61t26 51t46.5 35.5t69.5 13.5v-67q-23 0 -37 -7.5t-22 -20.5t-11 -30.5t-3 -36.5h120v32z" />
    <glyph glyph-name="glyph228" horiz-adv-x="390" 
d="M52 237h-37v67h37v21q0 33 10 61.5t29.5 50t49.5 34.5t71 13v-68h-9q-20 0 -34 -8t-23 -20.5t-13 -29t-4 -33.5v-21h101l-69 -67h-32v-237h-77v237zM253 389q0 22 14.5 36t36.5 14q20 0 34.5 -14t14.5 -36t-14.5 -36t-34.5 -14q-21 0 -36 14.5t-15 35.5zM213 -77
q26 15 41 37t15 45v232h-26v67h103v-299q0 -41 -21.5 -76t-58.5 -61z" />
    <glyph glyph-name="glyph229" horiz-adv-x="577" 
d="M440 389q0 22 14.5 36t36.5 14q20 0 34.5 -14t14.5 -36t-14.5 -36t-34.5 -14q-21 0 -36 14.5t-15 35.5zM400 -77q26 15 41 37t15 45v232h-26v67h103v-299q0 -41 -21.5 -76t-58.5 -61zM255 336q0 32 10 60.5t29.5 50t49.5 34.5t71 13v-67q-45 0 -64 -27t-19 -64v-32h73
v-67h-73v-237h-77v237h-120v-237h-77v237h-37v67l37 1q0 32 8 61t26 51t46.5 35.5t69.5 13.5v-67q-23 0 -37 -7.5t-22 -20.5t-11 -30.5t-3 -36.5h120v32z" />
    <glyph glyph-name="glyph230" horiz-adv-x="540" 
d="M52 237h-37v67h37v21q0 33 10 61.5t29.5 50t49.5 34.5t71 13v-68h-9q-20 0 -34 -8t-23 -20.5t-13 -29t-4 -33.5v-21h101l-69 -67h-32v-237h-77v237zM248 510l77 9v-345l141 142l51 -52l-107 -102l123 -119l-54 -54l-154 156v-145h-77v510z" />
    <glyph glyph-name="glyph231" horiz-adv-x="737" 
d="M445 510l77 9v-345l141 142l51 -52l-107 -102l123 -119l-54 -54l-154 156v-145h-77v510zM255 336q0 32 10 60.5t29.5 50t49.5 34.5t71 13v-67q-45 0 -64 -27t-19 -64v-32h73v-67h-73v-237h-77v237h-120v-237h-77v237h-37v67l37 1q0 32 8 61t26 51t46.5 35.5t69.5 13.5
v-67q-23 0 -37 -7.5t-22 -20.5t-11 -30.5t-3 -36.5h120v32z" />
    <glyph glyph-name="glyph234" horiz-adv-x="374" 
d="M224 237h-95v-237h-77v237h-37v67h37v21q0 33 10 61.5t29.5 50t49.5 34.5t71 13v-68h-9q-20 0 -34 -8t-23 -20.5t-13 -29t-4 -33.5v-21h96l76 76v-76h85l-70 -67h-15v-110q0 -26 6 -46t33 -37l-54 -55q-19 13 -31 26t-19 29t-9.5 36t-2.5 47v110z" />
    <glyph glyph-name="glyph236" horiz-adv-x="350" 
d="M198 416q-18 0 -30 -8t-19.5 -20.5t-10.5 -29t-3 -33.5v-325h-77v236h-37v68h37v21q0 32 8 61t25 50.5t43.5 34t63.5 12.5v-67zM229 510l77 9v-392q0 -26 5.5 -46.5t33.5 -37.5l-54 -54q-19 13 -31 26t-19 29t-9.5 36t-2.5 47v383z" />
    <glyph glyph-name="glyph238" horiz-adv-x="345" 
d="M198 416q-18 0 -30 -8t-19.5 -20.5t-10.5 -29t-3 -33.5v-325h-77v236h-37v68h37v21q0 32 8 61t25 50.5t43.5 34t63.5 12.5v-67zM213 389q0 22 14.5 36t35.5 14t35.5 -14t14.5 -36t-14.5 -36t-34.5 -14q-22 0 -36.5 14.5t-14.5 35.5zM231 237h-25v67h102v-304h-77v237z
" />
    <glyph glyph-name="glyph239" horiz-adv-x="350" 
d="M198 416q-18 0 -30 -8t-19.5 -20.5t-10.5 -29t-3 -33.5v-325h-77v236h-37v68h37v21q0 32 8 61t25 50.5t43.5 34t63.5 12.5v-67zM218 389q0 22 14.5 36t36.5 14q20 0 34.5 -14t14.5 -36t-14.5 -36t-34.5 -14q-21 0 -36 14.5t-15 35.5zM178 -77q26 15 41 37t15 45v232h-26
v67h103v-299q0 -41 -21.5 -76t-58.5 -61z" />
    <glyph glyph-name="glyph440" horiz-adv-x="675" 
d="M601 258q0 -55 -21 -103.5t-57 -84.5t-84 -57t-103 -21t-103.5 21t-84.5 57t-57 84.5t-21 103.5t21 103t57 84t84.5 57t103.5 21t103 -21t84 -57t57 -84t21 -103zM260 65q17 -6 36.5 -10t39.5 -4q19 0 37.5 3.5t35.5 8.5l-73 229zM421 234l58 172q-26 26 -60.5 41
t-73.5 17zM254 234l74 230q-38 -2 -71.5 -15.5t-60.5 -37.5zM129 258q0 -63 32.5 -112.5t84.5 -74.5l-96 279q-10 -21 -15.5 -44t-5.5 -48zM542 258q0 23 -5 44.5t-13 42.5l-101 -277q53 25 86 76t33 114z" />
    </font>
</defs>
</svg>
